<svg xmlns="http://www.w3.org/2000/svg" width="248" height="248" viewBox="0 0 248 248" fill="none"><rect width="248" height="248" rx="9" fill="#910121"></rect><path d="M132.569 222.351C121.407 222.351 110.685 220.153 100.401 215.759C90.2061 211.364 81.1533 205.036 73.2432 196.774C65.4209 188.513 59.1807 178.449 54.5225 166.584C49.8643 154.631 47.5352 141.184 47.5352 126.242C47.5352 111.301 49.8203 97.7656 54.3906 85.6367C58.9609 73.4199 65.2891 62.917 73.375 54.1279C81.373 45.4268 90.8213 38.7031 101.72 33.957C112.618 29.2109 124.264 26.8379 136.656 26.8379C145.885 26.8379 154.234 27.9805 161.705 30.2656C169.176 32.5508 176.295 35.7588 183.062 39.8896L188.468 30.9248H199.015L200.201 97.6338H189.391C187.984 91.1299 185.875 84.0986 183.062 76.54C180.25 68.8936 176.954 62.4336 173.175 57.1602C168.956 51.1836 163.946 46.5254 158.146 43.1855C152.345 39.7578 145.709 38.0439 138.238 38.0439C129.713 38.0439 121.759 39.9336 114.376 43.7129C107.081 47.4922 100.753 53.0732 95.3916 60.4561C90.2939 67.5752 86.2949 76.6279 83.3945 87.6143C80.4941 98.6006 79.0439 110.861 79.0439 124.396C79.0439 136.35 80.5381 147.336 83.5264 157.355C86.6025 167.287 90.9531 176.032 96.5781 183.591C102.203 191.062 108.839 196.906 116.485 201.125C124.22 205.344 132.833 207.453 142.325 207.453C149.444 207.453 155.992 206.354 161.969 204.157C167.945 201.872 173.131 198.884 177.525 195.192C181.92 191.325 185.787 186.931 189.127 182.009C192.467 177.087 195.191 171.726 197.301 165.925L207.188 170.671C199.63 189.216 189.61 202.487 177.13 210.485C164.649 218.396 149.796 222.351 132.569 222.351Z" fill="white"></path><style>@media (prefers-color-scheme: light) { :root { filter: none; } }
@media (prefers-color-scheme: dark) { :root { filter: none; } }
</style></svg>