<svg width="1140" height="662" viewBox="0 0 1140 662" fill="none" xmlns="http://www.w3.org/2000/svg">
<circle cx="571.341" cy="330.818" r="107.553" fill="white" stroke="url(#paint0_radial_344_4590)" stroke-width="44.5046"/>
<rect x="507.551" y="304.115" width="44.4208" height="52.4972" fill="#910121"/>
<path d="M531.949 353.848C529.278 353.848 526.712 353.322 524.251 352.271C521.811 351.219 519.645 349.705 517.752 347.728C515.88 345.751 514.387 343.342 513.272 340.503C512.157 337.643 511.6 334.425 511.6 330.849C511.6 327.273 512.147 324.034 513.241 321.132C514.334 318.208 515.849 315.695 517.784 313.592C519.698 311.51 521.959 309.901 524.567 308.765C527.175 307.629 529.962 307.061 532.927 307.061C535.136 307.061 537.134 307.335 538.921 307.881C540.709 308.428 542.413 309.196 544.032 310.185L545.326 308.039H547.85L548.134 324.003H545.547C545.21 322.447 544.705 320.764 544.032 318.955C543.359 317.125 542.571 315.579 541.666 314.317C540.657 312.887 539.458 311.772 538.07 310.973C536.681 310.153 535.093 309.743 533.306 309.743C531.266 309.743 529.362 310.195 527.595 311.099C525.85 312.004 524.335 313.339 523.052 315.106C521.832 316.81 520.875 318.976 520.181 321.605C519.487 324.234 519.14 327.168 519.14 330.407C519.14 333.268 519.498 335.897 520.213 338.295C520.949 340.671 521.99 342.764 523.336 344.573C524.682 346.361 526.27 347.759 528.1 348.769C529.951 349.778 532.012 350.283 534.284 350.283C535.987 350.283 537.554 350.02 538.985 349.494C540.415 348.948 541.656 348.232 542.707 347.349C543.759 346.424 544.684 345.372 545.484 344.194C546.283 343.016 546.935 341.733 547.44 340.345L549.806 341.481C547.997 345.919 545.599 349.095 542.613 351.009C539.626 352.902 536.072 353.848 531.949 353.848Z" fill="white"/>
<path d="M573.467 353.848C570.796 353.848 568.23 353.322 565.769 352.271C563.33 351.219 561.163 349.705 559.27 347.728C557.399 345.751 555.905 343.342 554.79 340.503C553.676 337.643 553.118 334.425 553.118 330.849C553.118 327.273 553.665 324.034 554.759 321.132C555.853 318.208 557.367 315.695 559.302 313.592C561.216 311.51 563.477 309.901 566.085 308.765C568.693 307.629 571.48 307.061 574.445 307.061C576.654 307.061 578.652 307.335 580.44 307.881C582.227 308.428 583.931 309.196 585.551 310.185L586.844 308.039H589.368L589.652 324.003H587.065C586.728 322.447 586.224 320.764 585.551 318.955C584.878 317.125 584.089 315.579 583.184 314.317C582.175 312.887 580.976 311.772 579.588 310.973C578.2 310.153 576.612 309.743 574.824 309.743C572.784 309.743 570.88 310.195 569.114 311.099C567.368 312.004 565.854 313.339 564.571 315.106C563.351 316.81 562.394 318.976 561.7 321.605C561.006 324.234 560.659 327.168 560.659 330.407C560.659 333.268 561.016 335.897 561.731 338.295C562.467 340.671 563.508 342.764 564.855 344.573C566.201 346.361 567.789 347.759 569.618 348.769C571.469 349.778 573.53 350.283 575.802 350.283C577.506 350.283 579.073 350.02 580.503 349.494C581.933 348.948 583.174 348.232 584.226 347.349C585.277 346.424 586.203 345.372 587.002 344.194C587.801 343.016 588.453 341.733 588.958 340.345L591.324 341.481C589.515 345.919 587.118 349.095 584.131 351.009C581.144 352.902 577.59 353.848 573.467 353.848ZM638.142 330.691C638.142 334.498 637.427 337.8 635.997 340.598C634.567 343.395 632.706 345.687 630.413 347.475C628.099 349.263 625.502 350.599 622.62 351.482C619.739 352.365 616.763 352.807 613.692 352.807H595.141V350.567C595.751 350.567 596.54 350.514 597.508 350.409C598.496 350.283 599.148 350.146 599.464 349.999C600.095 349.726 600.547 349.326 600.82 348.8C601.115 348.253 601.262 347.601 601.262 346.844V314.538C601.262 313.823 601.136 313.182 600.883 312.614C600.652 312.046 600.179 311.594 599.464 311.257C598.812 310.942 598.107 310.71 597.35 310.563C596.593 310.416 595.941 310.321 595.394 310.279V308.039H614.954C617.646 308.039 620.296 308.46 622.904 309.301C625.512 310.121 627.784 311.236 629.719 312.645C632.348 314.517 634.409 316.968 635.903 319.996C637.396 323.025 638.142 326.59 638.142 330.691ZM630.413 330.66C630.413 327.652 630.013 324.939 629.214 322.52C628.415 320.08 627.248 317.956 625.712 316.147C624.261 314.423 622.473 313.066 620.349 312.077C618.246 311.089 615.901 310.595 613.314 310.595C612.451 310.595 611.473 310.616 610.38 310.658C609.307 310.679 608.508 310.7 607.982 310.721V345.141C607.982 347.055 608.539 348.38 609.654 349.116C610.769 349.852 612.483 350.22 614.796 350.22C617.467 350.22 619.802 349.747 621.8 348.8C623.798 347.854 625.418 346.539 626.659 344.857C627.963 343.09 628.909 341.05 629.498 338.736C630.108 336.402 630.413 333.709 630.413 330.66Z" fill="#910121"/>
<circle cx="570.229" cy="329.705" r="150.203" stroke="url(#paint1_radial_344_4590)" stroke-width="44.5046"/>
<circle cx="569.857" cy="330.818" r="193.595" stroke="url(#paint2_radial_344_4590)" stroke-width="44.5046"/>
<circle cx="572" cy="115" r="13" fill="#910121"/>
<circle cx="572" cy="546" r="13" fill="#910121"/>
<circle cx="446" cy="329" r="13" fill="#95B8DB"/>
<circle cx="475" cy="191" r="13" fill="#979797"/>
<circle cx="675" cy="467" r="13" transform="rotate(180 675 467)" fill="#979797"/>
<circle cx="13" cy="13" r="13" transform="matrix(1 0 0 -1 462 480)" fill="#979797"/>
<circle cx="13" cy="13" r="13" transform="matrix(-1 0 0 1 688 178)" fill="#979797"/>
<circle cx="13" cy="13" r="13" transform="matrix(-1 0 0 1 713 316)" fill="#95B8DB"/>
<rect x="437.827" width="264.061" height="48.2133" rx="24.1067" fill="#910121"/>
<path d="M492.548 15.2692L490.545 14.9221V13.2665H494.444C495.031 13.2665 495.824 13.2309 496.82 13.1597C497.052 13.1419 497.399 13.1241 497.862 13.1063C498.342 13.0885 498.77 13.0796 499.144 13.0796C502.419 13.0796 504.867 13.8985 506.487 15.5363C508.125 17.174 508.943 19.4972 508.943 22.5057C508.943 24.6063 508.534 26.4755 507.715 28.1133C506.914 29.751 505.766 31.0328 504.27 31.9585C502.775 32.8664 501.031 33.3203 499.037 33.3203C498.52 33.3203 497.711 33.2847 496.607 33.2135C495.574 33.1423 494.871 33.1067 494.497 33.1067H490.438V31.5045L492.548 31.2375V15.2692ZM496.42 31.3176C497.025 31.4778 497.871 31.5579 498.957 31.5579C500.737 31.5223 502.134 30.8103 503.149 29.4217C504.164 28.0154 504.671 25.9147 504.671 23.1198C504.671 20.4674 504.173 18.4202 503.176 16.9782C502.179 15.5185 500.63 14.7886 498.529 14.7886C498.084 14.7886 497.657 14.8153 497.248 14.8687C496.856 14.9221 496.58 14.9577 496.42 14.9755V31.3176ZM514.09 15.83C513.449 15.83 512.942 15.6431 512.568 15.2692C512.194 14.8954 512.007 14.4147 512.007 13.8273C512.007 13.1508 512.221 12.5901 512.648 12.145C513.076 11.7 513.645 11.4774 514.357 11.4774C515.069 11.4774 515.612 11.6733 515.986 12.0649C516.36 12.4387 516.547 12.9105 516.547 13.4801C516.547 14.1922 516.333 14.7619 515.906 15.1891C515.479 15.6164 514.882 15.83 514.117 15.83H514.09ZM512.675 20.7967L510.779 20.2894V18.5003L515.666 17.9128H515.719L516.467 18.4469V31.2909L518.256 31.5045V33.1067H510.806V31.5045L512.675 31.2642V20.7967ZM519.876 28.9411C519.876 27.3211 520.686 26.1017 522.306 25.2828C523.944 24.4639 526.053 24.0455 528.635 24.0277V23.4136C528.635 22.6837 528.555 22.114 528.394 21.7046C528.252 21.2952 527.976 20.9925 527.567 20.7967C527.175 20.5831 526.596 20.4763 525.831 20.4763C524.959 20.4763 524.175 20.592 523.481 20.8234C522.787 21.037 522.066 21.3219 521.318 21.6779L520.49 19.9689C520.757 19.7375 521.202 19.4616 521.825 19.1411C522.466 18.8207 523.223 18.5448 524.095 18.3133C524.968 18.0641 525.867 17.9395 526.792 17.9395C528.163 17.9395 529.231 18.1175 529.997 18.4736C530.78 18.8296 531.341 19.3993 531.679 20.1825C532.017 20.9658 532.186 22.0161 532.186 23.3335V31.5045H533.628V32.9999C533.272 33.0889 532.765 33.1779 532.106 33.2669C531.447 33.3559 530.869 33.4004 530.37 33.4004C529.765 33.4004 529.356 33.3114 529.142 33.1334C528.946 32.9554 528.848 32.5904 528.848 32.0386V31.3176C528.368 31.8517 527.745 32.3323 526.979 32.7596C526.214 33.1868 525.35 33.4004 524.389 33.4004C523.57 33.4004 522.813 33.2313 522.119 32.8931C521.443 32.537 520.9 32.0297 520.49 31.371C520.081 30.6945 519.876 29.8846 519.876 28.9411ZM526.098 31.1841C526.472 31.1841 526.899 31.0773 527.38 30.8637C527.86 30.6322 528.279 30.3563 528.635 30.0359V25.6566C527.033 25.6566 525.831 25.9325 525.03 26.4844C524.247 27.0185 523.855 27.7127 523.855 28.5672C523.855 29.4217 524.051 30.0715 524.442 30.5165C524.852 30.9616 525.404 31.1841 526.098 31.1841ZM541.757 40.3164C539.371 40.3164 537.644 39.9426 536.576 39.1949C535.508 38.4472 534.974 37.4325 534.974 36.1508C534.974 35.4209 535.214 34.7267 535.695 34.068C536.194 33.4271 536.79 32.9465 537.484 32.626C536.665 32.1454 536.256 31.3799 536.256 30.3296C536.256 29.7243 536.452 29.1547 536.843 28.6206C537.235 28.0688 537.742 27.6415 538.365 27.3389C537.386 26.965 536.656 26.3954 536.176 25.6299C535.695 24.8644 535.455 23.9565 535.455 22.9062C535.455 21.8915 535.748 21.0103 536.336 20.2627C536.941 19.4972 537.742 18.9097 538.739 18.5003C539.754 18.0908 540.849 17.8861 542.024 17.8861C544.106 17.8861 545.655 18.2866 546.67 19.0877C546.901 18.7851 547.293 18.5003 547.845 18.2332C548.397 17.9662 548.966 17.8327 549.554 17.8327H550.488V20.7433H547.738C548.005 21.313 548.139 21.9182 548.139 22.5591C548.156 24.1791 547.587 25.4786 546.43 26.4577C545.272 27.419 543.688 27.8996 541.676 27.8996C540.84 27.8996 540.137 27.8373 539.567 27.7127C539.389 27.9442 539.247 28.1934 539.14 28.4604C539.051 28.7096 539.006 28.9322 539.006 29.128C539.006 29.7154 539.211 30.116 539.62 30.3296C540.048 30.5432 540.804 30.65 541.89 30.65H544.747C548.379 30.65 550.195 31.9674 550.195 34.602C550.195 35.7058 549.803 36.6938 549.02 37.5661C548.236 38.4383 547.195 39.1148 545.896 39.5955C544.596 40.0761 543.216 40.3164 541.757 40.3164ZM541.944 26.2441C543.599 26.2441 544.427 25.1137 544.427 22.8528C544.427 21.6957 544.213 20.8501 543.786 20.3161C543.377 19.7642 542.745 19.4883 541.89 19.4883C541.053 19.4883 540.404 19.7642 539.941 20.3161C539.496 20.8501 539.273 21.6601 539.273 22.746C539.273 25.0781 540.163 26.2441 541.944 26.2441ZM542.157 38.4739C543.279 38.4739 544.249 38.198 545.068 37.6462C545.887 37.1121 546.296 36.3644 546.296 35.4031C546.296 34.6376 546.091 34.0858 545.682 33.7476C545.29 33.4093 544.578 33.2402 543.546 33.2402H540.635C540.19 33.2402 539.781 33.2135 539.407 33.1601C538.926 33.801 538.686 34.5664 538.686 35.4565C538.686 36.4356 538.953 37.1833 539.487 37.6996C540.021 38.2158 540.911 38.4739 542.157 38.4739ZM553.401 20.7967L551.692 20.3161V18.4736L556.125 17.9128H556.205L556.872 18.4469V19.4883L556.846 20.1291C557.469 19.5417 558.279 19.0343 559.276 18.6071C560.272 18.1798 561.278 17.9662 562.293 17.9662C563.379 17.9662 564.224 18.1709 564.83 18.5804C565.453 18.972 565.898 19.5951 566.165 20.4496C566.432 21.3041 566.565 22.4612 566.565 23.9209V31.2909L568.194 31.5045V33.1067H561.305V31.5045L562.747 31.2909V23.9209C562.747 22.9952 562.685 22.2743 562.56 21.758C562.435 21.224 562.204 20.8412 561.866 20.6098C561.545 20.3606 561.082 20.2359 560.477 20.2359C559.462 20.2359 558.377 20.6721 557.219 21.5444V31.2642L558.822 31.5045V33.1067H551.852V31.5045L553.401 31.2642V20.7967ZM570.081 25.71C570.081 24.0366 570.41 22.6125 571.069 21.4376C571.746 20.2627 572.645 19.3815 573.766 18.794C574.888 18.1887 576.107 17.8861 577.424 17.8861C579.667 17.8861 581.394 18.5804 582.605 19.9689C583.833 21.3397 584.447 23.2089 584.447 25.5765C584.447 27.2677 584.109 28.7096 583.433 29.9024C582.774 31.0773 581.884 31.9585 580.762 32.5459C579.659 33.1156 578.439 33.4004 577.104 33.4004C574.879 33.4004 573.152 32.715 571.924 31.3443C570.695 29.9558 570.081 28.0777 570.081 25.71ZM577.318 31.6647C579.329 31.6647 580.335 29.7243 580.335 25.8435C580.335 23.8141 580.095 22.2743 579.614 21.224C579.133 20.1558 578.35 19.6218 577.264 19.6218C575.199 19.6218 574.167 21.5622 574.167 25.443C574.167 27.4724 574.416 29.0212 574.914 30.0893C575.431 31.1396 576.232 31.6647 577.318 31.6647ZM574.834 14.7886L579.347 9.2344L581.697 11.2905C581.27 12.0026 580.433 12.8749 579.187 13.9074C577.958 14.9399 576.962 15.6164 576.196 15.9368L574.834 14.7886ZM589.839 30.9171C589.981 31.1307 590.302 31.3354 590.8 31.5312C591.316 31.7092 591.833 31.7983 592.349 31.7983C593.185 31.7983 593.809 31.6291 594.218 31.2909C594.645 30.9349 594.859 30.472 594.859 29.9024C594.859 29.3149 594.601 28.8431 594.084 28.4871C593.568 28.1133 592.696 27.6593 591.468 27.1253L590.72 26.8048C589.492 26.2886 588.575 25.6655 587.97 24.9356C587.364 24.2058 587.062 23.2623 587.062 22.1051C587.062 21.3041 587.302 20.592 587.783 19.9689C588.263 19.3281 588.94 18.8296 589.812 18.4736C590.684 18.1175 591.69 17.9395 592.829 17.9395C593.666 17.9395 594.378 17.9929 594.966 18.0997C595.571 18.2065 596.203 18.349 596.862 18.527C597.218 18.6516 597.485 18.7228 597.663 18.7406V22.2387H595.553L594.939 20.2092C594.832 20.0312 594.592 19.871 594.218 19.7286C593.844 19.5862 593.417 19.515 592.936 19.515C592.206 19.515 591.619 19.6752 591.174 19.9956C590.747 20.2983 590.533 20.7255 590.533 21.2774C590.533 21.7758 590.684 22.1942 590.987 22.5324C591.29 22.8528 591.619 23.102 591.975 23.2801C592.331 23.4581 592.99 23.7518 593.951 24.1613C594.912 24.5707 595.704 24.9623 596.327 25.3362C596.968 25.71 597.494 26.1996 597.903 26.8048C598.33 27.3923 598.544 28.1133 598.544 28.9678C598.544 30.2851 598.028 31.3532 596.995 32.1721C595.963 32.991 594.476 33.4004 592.536 33.4004C591.628 33.4004 590.809 33.3203 590.079 33.1601C589.367 32.9999 588.539 32.7863 587.596 32.5192L587.008 32.3323V28.8075H589.225L589.839 30.9171ZM605.208 33.347C604.086 33.347 603.258 33.0889 602.724 32.5726C602.19 32.0564 601.923 31.2375 601.923 30.116V20.3161H600.187V18.9275C600.33 18.8741 600.588 18.7851 600.962 18.6605C601.336 18.5181 601.621 18.4024 601.816 18.3133C602.119 18.0819 602.377 17.6814 602.591 17.1117C602.751 16.7379 603.045 15.8122 603.472 14.3346H605.608L605.715 18.2599H609.8V20.3161H605.742V27.8195C605.742 28.8164 605.768 29.5196 605.822 29.9291C605.875 30.3385 605.991 30.6055 606.169 30.7301C606.347 30.837 606.658 30.8904 607.104 30.8904C607.549 30.8904 608.011 30.8459 608.492 30.7568C608.973 30.65 609.373 30.5254 609.694 30.383L610.201 31.8784C609.703 32.2522 608.973 32.5904 608.011 32.8931C607.05 33.1957 606.116 33.347 605.208 33.347ZM614.799 15.83C614.158 15.83 613.651 15.6431 613.277 15.2692C612.903 14.8954 612.717 14.4147 612.717 13.8273C612.717 13.1508 612.93 12.5901 613.357 12.145C613.785 11.7 614.354 11.4774 615.066 11.4774C615.778 11.4774 616.321 11.6733 616.695 12.0649C617.069 12.4387 617.256 12.9105 617.256 13.4801C617.256 14.1922 617.042 14.7619 616.615 15.1891C616.188 15.6164 615.592 15.83 614.826 15.83H614.799ZM613.384 20.7967L611.488 20.2894V18.5003L616.375 17.9128H616.428L617.176 18.4469V31.2909L618.965 31.5045V33.1067H611.515V31.5045L613.384 31.2642V20.7967ZM620.532 25.7634C620.532 24.2325 620.835 22.8706 621.44 21.6779C622.063 20.4852 622.944 19.5595 624.083 18.9008C625.24 18.2243 626.585 17.8861 628.115 17.8861C628.828 17.8861 629.442 17.9395 629.958 18.0463C630.474 18.1531 631.053 18.2955 631.694 18.4736L632.468 18.6872L632.308 23.2534H629.985L629.317 20.3161C629.21 19.8532 628.685 19.6218 627.742 19.6218C626.745 19.6218 625.961 20.0579 625.392 20.9302C624.84 21.8025 624.555 23.1644 624.537 25.0157C624.537 26.974 624.876 28.4782 625.552 29.5285C626.228 30.561 627.127 31.0773 628.249 31.0773C629.602 31.0773 630.848 30.7123 631.987 29.9825L632.602 31.371C632.139 31.8695 631.427 32.3323 630.465 32.7596C629.522 33.1868 628.498 33.4004 627.395 33.4004C625.116 33.4004 623.398 32.6972 622.241 31.2909C621.102 29.8846 620.532 28.0421 620.532 25.7634ZM634.726 25.71C634.726 24.0366 635.055 22.6125 635.714 21.4376C636.39 20.2627 637.289 19.3815 638.411 18.794C639.532 18.1887 640.752 17.8861 642.069 17.8861C644.312 17.8861 646.039 18.5804 647.249 19.9689C648.478 21.3397 649.092 23.2089 649.092 25.5765C649.092 27.2677 648.754 28.7096 648.077 29.9024C647.419 31.0773 646.529 31.9585 645.407 32.5459C644.303 33.1156 643.084 33.4004 641.749 33.4004C639.523 33.4004 637.797 32.715 636.568 31.3443C635.34 29.9558 634.726 28.0777 634.726 25.71ZM641.962 31.6647C643.974 31.6647 644.98 29.7243 644.98 25.8435C644.98 23.8141 644.739 22.2743 644.259 21.224C643.778 20.1558 642.995 19.6218 641.909 19.6218C639.844 19.6218 638.811 21.5622 638.811 25.443C638.811 27.4724 639.061 29.0212 639.559 30.0893C640.075 31.1396 640.876 31.6647 641.962 31.6647Z" fill="white"/>
<rect x="437.827" y="613.422" width="264.061" height="48.2133" rx="24.1067" fill="#910121"/>
<path d="M533.28 628.691L530.396 628.344V626.689H538.728L541.905 638.171L542.653 641.295L543.294 638.171L546.445 626.689H554.696V628.344L551.785 628.691L553.922 644.633L556.085 644.927V646.529H547.566V644.927L549.916 644.66L548.741 632.964L548.234 628.077L547.246 632.189L543.374 645.701H540.544L536.591 632.884L535.23 628.077L534.829 632.964L533.814 644.66L536.511 644.927V646.529H529.088V644.927L531.331 644.66L533.28 628.691ZM564.085 646.823C561.735 646.823 559.981 646.137 558.824 644.766C557.685 643.378 557.115 641.491 557.115 639.105C557.115 637.503 557.409 636.115 557.996 634.94C558.602 633.765 559.447 632.866 560.533 632.243C561.619 631.62 562.874 631.308 564.298 631.308C566.079 631.308 567.449 631.78 568.411 632.723C569.372 633.649 569.87 634.975 569.906 636.702C569.906 637.877 569.835 638.749 569.692 639.319H561.014C561.085 640.939 561.468 642.203 562.162 643.111C562.856 644.001 563.844 644.446 565.126 644.446C565.82 644.446 566.532 644.33 567.262 644.099C568.01 643.867 568.597 643.592 569.025 643.271L569.692 644.74C569.212 645.256 568.428 645.737 567.342 646.182C566.274 646.609 565.188 646.823 564.085 646.823ZM566.168 637.717C566.203 637.218 566.221 636.836 566.221 636.569C566.221 634.201 565.429 633.017 563.844 633.017C562.972 633.017 562.296 633.364 561.815 634.059C561.334 634.753 561.067 635.972 561.014 637.717H566.168ZM576.523 646.769C575.401 646.769 574.574 646.511 574.04 645.995C573.506 645.478 573.239 644.66 573.239 643.538V633.738H571.503V632.35C571.645 632.296 571.903 632.207 572.277 632.083C572.651 631.94 572.936 631.824 573.132 631.735C573.434 631.504 573.693 631.104 573.906 630.534C574.066 630.16 574.36 629.234 574.787 627.757H576.924L577.03 631.682H581.116V633.738H577.057V641.242C577.057 642.239 577.084 642.942 577.137 643.351C577.191 643.761 577.306 644.028 577.484 644.152C577.662 644.259 577.974 644.312 578.419 644.312C578.864 644.312 579.327 644.268 579.807 644.179C580.288 644.072 580.689 643.948 581.009 643.805L581.516 645.3C581.018 645.674 580.288 646.013 579.327 646.315C578.365 646.618 577.431 646.769 576.523 646.769ZM582.643 642.363C582.643 640.743 583.453 639.524 585.073 638.705C586.711 637.886 588.821 637.468 591.402 637.45V636.836C591.402 636.106 591.322 635.536 591.162 635.127C591.019 634.717 590.743 634.415 590.334 634.219C589.942 634.005 589.364 633.898 588.598 633.898C587.726 633.898 586.943 634.014 586.248 634.246C585.554 634.459 584.833 634.744 584.085 635.1L583.258 633.391C583.525 633.16 583.97 632.884 584.593 632.563C585.234 632.243 585.99 631.967 586.862 631.735C587.735 631.486 588.634 631.362 589.559 631.362C590.93 631.362 591.998 631.54 592.764 631.896C593.547 632.252 594.108 632.821 594.446 633.605C594.784 634.388 594.953 635.438 594.953 636.756V644.927H596.395V646.422C596.039 646.511 595.532 646.6 594.873 646.689C594.215 646.778 593.636 646.823 593.138 646.823C592.532 646.823 592.123 646.734 591.909 646.556C591.713 646.377 591.615 646.013 591.615 645.461V644.74C591.135 645.274 590.512 645.754 589.746 646.182C588.981 646.609 588.117 646.823 587.156 646.823C586.337 646.823 585.581 646.653 584.886 646.315C584.21 645.959 583.667 645.452 583.258 644.793C582.848 644.117 582.643 643.307 582.643 642.363ZM588.865 644.606C589.239 644.606 589.666 644.499 590.147 644.286C590.627 644.054 591.046 643.778 591.402 643.458V639.079C589.8 639.079 588.598 639.355 587.797 639.907C587.014 640.441 586.622 641.135 586.622 641.989C586.622 642.844 586.818 643.494 587.21 643.939C587.619 644.384 588.171 644.606 588.865 644.606ZM601.026 644.339C601.168 644.553 601.489 644.758 601.987 644.953C602.503 645.131 603.02 645.22 603.536 645.22C604.372 645.22 604.996 645.051 605.405 644.713C605.832 644.357 606.046 643.894 606.046 643.324C606.046 642.737 605.788 642.265 605.271 641.909C604.755 641.535 603.883 641.081 602.655 640.547L601.907 640.227C600.679 639.711 599.762 639.088 599.157 638.358C598.551 637.628 598.249 636.684 598.249 635.527C598.249 634.726 598.489 634.014 598.97 633.391C599.45 632.75 600.127 632.252 600.999 631.896C601.871 631.54 602.877 631.362 604.016 631.362C604.853 631.362 605.565 631.415 606.153 631.522C606.758 631.629 607.39 631.771 608.049 631.949C608.405 632.074 608.672 632.145 608.85 632.163V635.661H606.74L606.126 633.631C606.019 633.453 605.779 633.293 605.405 633.151C605.031 633.008 604.604 632.937 604.123 632.937C603.393 632.937 602.806 633.097 602.361 633.418C601.934 633.72 601.72 634.148 601.72 634.699C601.72 635.198 601.871 635.616 602.174 635.955C602.477 636.275 602.806 636.524 603.162 636.702C603.518 636.88 604.177 637.174 605.138 637.583C606.099 637.993 606.891 638.384 607.514 638.758C608.155 639.132 608.681 639.622 609.09 640.227C609.517 640.814 609.731 641.535 609.731 642.39C609.731 643.707 609.215 644.775 608.182 645.594C607.15 646.413 605.663 646.823 603.723 646.823C602.815 646.823 601.996 646.742 601.266 646.582C600.554 646.422 599.726 646.208 598.783 645.941L598.195 645.754V642.23H600.412L601.026 644.339Z" fill="white"/>
<rect x="875.654" y="91.9763" width="264.061" height="48.2133" rx="24.1067" fill="#979797"/>
<path d="M964.373 105.243H972.49V106.898L970.22 107.245L974.199 119.208L974.974 121.905L975.641 119.182L979.38 107.245L977.27 106.898V105.243H983.732V106.898L982.023 107.245L975.881 125.27H972.704L965.975 107.245L964.373 106.898V105.243ZM987.565 107.806C986.924 107.806 986.416 107.619 986.042 107.245C985.669 106.872 985.482 106.391 985.482 105.804C985.482 105.127 985.695 104.566 986.123 104.121C986.55 103.676 987.12 103.454 987.832 103.454C988.544 103.454 989.087 103.65 989.46 104.041C989.834 104.415 990.021 104.887 990.021 105.456C990.021 106.168 989.808 106.738 989.38 107.165C988.953 107.593 988.357 107.806 987.591 107.806H987.565ZM986.149 112.773L984.253 112.266V110.477L989.14 109.889H989.193L989.941 110.423V123.267L991.73 123.481V125.083H984.28V123.481L986.149 123.24V112.773ZM996.608 122.893C996.751 123.107 997.071 123.312 997.57 123.507C998.086 123.686 998.602 123.775 999.118 123.775C999.955 123.775 1000.58 123.605 1000.99 123.267C1001.41 122.911 1001.63 122.448 1001.63 121.879C1001.63 121.291 1001.37 120.819 1000.85 120.463C1000.34 120.09 999.465 119.636 998.237 119.102L997.489 118.781C996.261 118.265 995.344 117.642 994.739 116.912C994.134 116.182 993.831 115.239 993.831 114.081C993.831 113.28 994.071 112.568 994.552 111.945C995.033 111.304 995.709 110.806 996.582 110.45C997.454 110.094 998.46 109.916 999.599 109.916C1000.44 109.916 1001.15 109.969 1001.74 110.076C1002.34 110.183 1002.97 110.325 1003.63 110.503C1003.99 110.628 1004.25 110.699 1004.43 110.717V114.215H1002.32L1001.71 112.186C1001.6 112.007 1001.36 111.847 1000.99 111.705C1000.61 111.562 1000.19 111.491 999.706 111.491C998.976 111.491 998.388 111.651 997.943 111.972C997.516 112.275 997.303 112.702 997.303 113.254C997.303 113.752 997.454 114.17 997.756 114.509C998.059 114.829 998.388 115.078 998.744 115.256C999.1 115.434 999.759 115.728 1000.72 116.138C1001.68 116.547 1002.47 116.939 1003.1 117.312C1003.74 117.686 1004.26 118.176 1004.67 118.781C1005.1 119.369 1005.31 120.09 1005.31 120.944C1005.31 122.261 1004.8 123.329 1003.76 124.148C1002.73 124.967 1001.25 125.377 999.305 125.377C998.397 125.377 997.578 125.297 996.849 125.136C996.136 124.976 995.309 124.763 994.365 124.495L993.778 124.309V120.784H995.994L996.608 122.893ZM1010.67 107.806C1010.03 107.806 1009.52 107.619 1009.15 107.245C1008.77 106.872 1008.59 106.391 1008.59 105.804C1008.59 105.127 1008.8 104.566 1009.23 104.121C1009.65 103.676 1010.22 103.454 1010.94 103.454C1011.65 103.454 1012.19 103.65 1012.56 104.041C1012.94 104.415 1013.13 104.887 1013.13 105.456C1013.13 106.168 1012.91 106.738 1012.48 107.165C1012.06 107.593 1011.46 107.806 1010.7 107.806H1010.67ZM1009.25 112.773L1007.36 112.266V110.477L1012.24 109.889H1012.3L1013.05 110.423V123.267L1014.83 123.481V125.083H1007.38V123.481L1009.25 123.24V112.773ZM1016.75 117.686C1016.75 116.013 1017.08 114.589 1017.74 113.414C1018.41 112.239 1019.31 111.358 1020.43 110.77C1021.55 110.165 1022.77 109.862 1024.09 109.862C1026.33 109.862 1028.06 110.557 1029.27 111.945C1030.5 113.316 1031.11 115.185 1031.11 117.553C1031.11 119.244 1030.78 120.686 1030.1 121.879C1029.44 123.054 1028.55 123.935 1027.43 124.522C1026.33 125.092 1025.11 125.377 1023.77 125.377C1021.55 125.377 1019.82 124.691 1018.59 123.321C1017.36 121.932 1016.75 120.054 1016.75 117.686ZM1023.98 123.641C1026 123.641 1027 121.701 1027 117.82C1027 115.79 1026.76 114.251 1026.28 113.2C1025.8 112.132 1025.02 111.598 1023.93 111.598C1021.87 111.598 1020.83 113.538 1020.83 117.419C1020.83 119.449 1021.08 120.997 1021.58 122.066C1022.1 123.116 1022.9 123.641 1023.98 123.641ZM1021.5 106.765L1026.01 101.211L1028.36 103.267C1027.94 103.979 1027.1 104.851 1025.85 105.884C1024.63 106.916 1023.63 107.593 1022.86 107.913L1021.5 106.765ZM1035.04 112.773L1033.33 112.292V110.45L1037.76 109.889H1037.84L1038.51 110.423V111.465L1038.48 112.105C1039.11 111.518 1039.92 111.011 1040.91 110.583C1041.91 110.156 1042.91 109.942 1043.93 109.942C1045.02 109.942 1045.86 110.147 1046.47 110.557C1047.09 110.948 1047.53 111.571 1047.8 112.426C1048.07 113.28 1048.2 114.437 1048.2 115.897V123.267L1049.83 123.481V125.083H1042.94V123.481L1044.38 123.267V115.897C1044.38 114.971 1044.32 114.251 1044.2 113.734C1044.07 113.2 1043.84 112.817 1043.5 112.586C1043.18 112.337 1042.72 112.212 1042.11 112.212C1041.1 112.212 1040.01 112.648 1038.86 113.521V123.24L1040.46 123.481V125.083H1033.49V123.481L1035.04 123.24V112.773Z" fill="white"/>
<rect x="875.654" y="305.082" width="264.061" height="48.2133" rx="24.1067" fill="#95B8DB"/>
<path d="M983.416 320.351L981.279 320.004V318.348H995.512L995.859 322.835H993.99L993.109 320.191L987.341 319.951V327.134L991.053 327.054L991.48 324.864H993.189V331.326H991.48L991.053 329.03L987.341 328.949V336.48L993.803 336.159L995.352 332.741L997.354 333.302L996.66 338.189H981.306V336.586L983.416 336.319V320.351ZM1002.19 320.912C1001.55 320.912 1001.05 320.725 1000.67 320.351C1000.32 319.977 1000.14 319.497 1000.14 318.909C1000.14 318.233 1000.35 317.672 1000.78 317.227C1001.21 316.782 1001.78 316.559 1002.49 316.559C1003.2 316.559 1003.73 316.755 1004.09 317.147C1004.46 317.521 1004.65 317.992 1004.65 318.562C1004.65 319.274 1004.44 319.844 1004.01 320.271C1003.6 320.698 1003 320.912 1002.22 320.912H1002.19ZM998.777 323.582L1003.61 322.995H1003.66L1004.38 323.529V337.948C1004.38 339.337 1004.13 340.53 1003.61 341.527C1003.09 342.541 1002.44 343.307 1001.63 343.823C1000.85 344.357 1000.05 344.642 999.231 344.677C998.341 344.677 997.798 344.642 997.602 344.571L997.415 343.049C997.878 343.049 998.341 342.951 998.804 342.755C999.48 342.47 999.961 341.865 1000.25 340.939C1000.55 340.013 1000.7 338.767 1000.7 337.201L1000.67 325.932L998.777 325.425V323.582ZM1014.51 338.482C1012.16 338.482 1010.4 337.797 1009.25 336.426C1008.11 335.038 1007.54 333.151 1007.54 330.765C1007.54 329.163 1007.83 327.775 1008.42 326.6C1009.02 325.425 1009.87 324.526 1010.96 323.903C1012.04 323.28 1013.3 322.968 1014.72 322.968C1016.5 322.968 1017.87 323.44 1018.83 324.383C1019.79 325.309 1020.29 326.635 1020.33 328.362C1020.33 329.537 1020.26 330.409 1020.11 330.979H1011.44C1011.51 332.599 1011.89 333.863 1012.58 334.771C1013.28 335.661 1014.27 336.106 1015.55 336.106C1016.24 336.106 1016.95 335.99 1017.68 335.759C1018.43 335.527 1019.02 335.251 1019.45 334.931L1020.11 336.4C1019.63 336.916 1018.85 337.396 1017.76 337.842C1016.7 338.269 1015.61 338.482 1014.51 338.482ZM1016.59 329.377C1016.63 328.878 1016.64 328.496 1016.64 328.229C1016.64 325.861 1015.85 324.677 1014.27 324.677C1013.39 324.677 1012.72 325.024 1012.24 325.718C1011.76 326.413 1011.49 327.632 1011.44 329.377H1016.59ZM1025.42 335.999C1025.57 336.213 1025.89 336.417 1026.38 336.613C1026.9 336.791 1027.42 336.88 1027.93 336.88C1028.77 336.88 1029.39 336.711 1029.8 336.373C1030.23 336.017 1030.44 335.554 1030.44 334.984C1030.44 334.397 1030.19 333.925 1029.67 333.569C1029.15 333.195 1028.28 332.741 1027.05 332.207L1026.3 331.887C1025.08 331.371 1024.16 330.747 1023.55 330.018C1022.95 329.288 1022.65 328.344 1022.65 327.187C1022.65 326.386 1022.89 325.674 1023.37 325.051C1023.85 324.41 1024.52 323.912 1025.4 323.556C1026.27 323.199 1027.27 323.021 1028.41 323.021C1029.25 323.021 1029.96 323.075 1030.55 323.182C1031.16 323.289 1031.79 323.431 1032.45 323.609C1032.8 323.734 1033.07 323.805 1033.25 323.823V327.321H1031.14L1030.52 325.291C1030.42 325.113 1030.18 324.953 1029.8 324.811C1029.43 324.668 1029 324.597 1028.52 324.597C1027.79 324.597 1027.2 324.757 1026.76 325.078C1026.33 325.38 1026.12 325.807 1026.12 326.359C1026.12 326.858 1026.27 327.276 1026.57 327.614C1026.87 327.935 1027.2 328.184 1027.56 328.362C1027.92 328.54 1028.57 328.834 1029.54 329.243C1030.5 329.653 1031.29 330.044 1031.91 330.418C1032.55 330.792 1033.08 331.282 1033.49 331.887C1033.91 332.474 1034.13 333.195 1034.13 334.05C1034.13 335.367 1033.61 336.435 1032.58 337.254C1031.55 338.073 1030.06 338.482 1028.12 338.482C1027.21 338.482 1026.39 338.402 1025.66 338.242C1024.95 338.082 1024.12 337.868 1023.18 337.601L1022.59 337.414V333.89H1024.81L1025.42 335.999Z" fill="white"/>
<rect x="875.654" y="522.188" width="264.061" height="48.2133" rx="24.1067" fill="#979797"/>
<path d="M954.423 555.588C951.521 555.588 949.349 554.68 947.907 552.864C946.466 551.049 945.745 548.574 945.745 545.441C945.745 543.394 946.118 541.596 946.866 540.047C947.632 538.498 948.7 537.306 950.07 536.469C951.441 535.632 953.017 535.214 954.797 535.214C957.734 535.214 959.933 536.086 961.392 537.831C962.87 539.558 963.609 541.979 963.609 545.094C963.609 547.159 963.217 548.993 962.434 550.595C961.668 552.179 960.591 553.407 959.203 554.28C957.814 555.152 956.221 555.588 954.423 555.588ZM954.69 536.843C953.23 536.843 952.091 537.564 951.272 539.006C950.453 540.448 950.044 542.584 950.044 545.414C950.044 548.209 950.435 550.337 951.219 551.796C952.02 553.238 953.159 553.959 954.637 553.959C956.079 553.959 957.209 553.203 958.028 551.69C958.847 550.159 959.256 547.96 959.256 545.094C959.256 542.317 958.865 540.252 958.081 538.899C957.298 537.528 956.168 536.843 954.69 536.843ZM964.371 533.986L969.257 533.398H969.311L970.058 533.906V541.783C970.539 541.302 971.127 540.902 971.821 540.581C972.533 540.243 973.298 540.074 974.117 540.074C975.826 540.074 977.215 540.679 978.283 541.89C979.369 543.082 979.912 544.916 979.912 547.39C979.912 548.921 979.591 550.31 978.951 551.556C978.31 552.802 977.384 553.79 976.173 554.52C974.981 555.232 973.592 555.588 972.008 555.588C970.601 555.588 969.382 555.472 968.349 555.241C967.317 554.992 966.658 554.769 966.373 554.573V535.695L964.371 535.374V533.986ZM972.702 542.424C972.168 542.424 971.661 542.548 971.18 542.798C970.717 543.029 970.343 543.296 970.058 543.599V553.345C970.165 553.541 970.415 553.701 970.806 553.826C971.198 553.95 971.643 554.013 972.141 554.013C973.281 554.013 974.189 553.488 974.865 552.437C975.559 551.369 975.906 549.794 975.906 547.711C975.906 545.913 975.613 544.587 975.025 543.732C974.438 542.86 973.663 542.424 972.702 542.424ZM985.31 538.018C984.669 538.018 984.162 537.831 983.788 537.457C983.432 537.083 983.254 536.602 983.254 536.015C983.254 535.339 983.468 534.778 983.895 534.333C984.322 533.888 984.892 533.665 985.604 533.665C986.316 533.665 986.85 533.861 987.206 534.253C987.58 534.626 987.767 535.098 987.767 535.668C987.767 536.38 987.553 536.95 987.126 537.377C986.716 537.804 986.12 538.018 985.337 538.018H985.31ZM981.892 540.688L986.725 540.101H986.779L987.5 540.635V555.054C987.5 556.443 987.242 557.635 986.725 558.632C986.209 559.647 985.55 560.412 984.749 560.929C983.966 561.463 983.165 561.748 982.346 561.783C981.456 561.783 980.913 561.748 980.717 561.676L980.53 560.154C980.993 560.154 981.456 560.056 981.919 559.861C982.595 559.576 983.076 558.971 983.361 558.045C983.663 557.119 983.815 555.873 983.815 554.306L983.788 543.038L981.892 542.531V540.688ZM997.622 555.588C995.272 555.588 993.519 554.903 992.362 553.532C991.222 552.144 990.653 550.257 990.653 547.871C990.653 546.269 990.947 544.88 991.534 543.705C992.139 542.531 992.985 541.632 994.071 541.008C995.157 540.385 996.412 540.074 997.836 540.074C999.616 540.074 1000.99 540.546 1001.95 541.489C1002.91 542.415 1003.41 543.741 1003.44 545.468C1003.44 546.643 1003.37 547.515 1003.23 548.085H994.551C994.623 549.705 995.005 550.969 995.7 551.876C996.394 552.767 997.382 553.212 998.664 553.212C999.358 553.212 1000.07 553.096 1000.8 552.864C1001.55 552.633 1002.13 552.357 1002.56 552.037L1003.23 553.505C1002.75 554.022 1001.97 554.502 1000.88 554.947C999.812 555.375 998.726 555.588 997.622 555.588ZM999.705 546.483C999.741 545.984 999.758 545.601 999.758 545.334C999.758 542.967 998.966 541.783 997.382 541.783C996.51 541.783 995.833 542.13 995.352 542.824C994.872 543.519 994.605 544.738 994.551 546.483H999.705ZM1010.06 555.535C1008.94 555.535 1008.11 555.277 1007.58 554.76C1007.04 554.244 1006.78 553.425 1006.78 552.304V542.504H1005.04V541.115C1005.18 541.062 1005.44 540.973 1005.81 540.848C1006.19 540.706 1006.47 540.59 1006.67 540.501C1006.97 540.27 1007.23 539.869 1007.44 539.299C1007.6 538.926 1007.9 538 1008.32 536.522H1010.46L1010.57 540.448H1014.65V542.504H1010.59V550.007C1010.59 551.004 1010.62 551.707 1010.67 552.117C1010.73 552.526 1010.84 552.793 1011.02 552.918C1011.2 553.025 1011.51 553.078 1011.96 553.078C1012.4 553.078 1012.86 553.034 1013.34 552.945C1013.83 552.838 1014.23 552.713 1014.55 552.571L1015.05 554.066C1014.56 554.44 1013.83 554.778 1012.86 555.081C1011.9 555.383 1010.97 555.535 1010.06 555.535ZM1019.65 538.018C1019.01 538.018 1018.5 537.831 1018.13 537.457C1017.76 537.083 1017.57 536.602 1017.57 536.015C1017.57 535.339 1017.78 534.778 1018.21 534.333C1018.64 533.888 1019.21 533.665 1019.92 533.665C1020.63 533.665 1021.17 533.861 1021.55 534.253C1021.92 534.626 1022.11 535.098 1022.11 535.668C1022.11 536.38 1021.9 536.95 1021.47 537.377C1021.04 537.804 1020.44 538.018 1019.68 538.018H1019.65ZM1018.24 542.984L1016.34 542.477V540.688L1021.23 540.101H1021.28L1022.03 540.635V553.479L1023.82 553.692V555.294H1016.37V553.692L1018.24 553.452V542.984ZM1024.37 540.448H1031.42V541.996L1029.66 542.344L1032.09 549.607L1032.94 552.437L1033.66 549.687L1036.04 542.344L1034.36 541.996V540.448H1040.23V541.996L1038.84 542.344L1033.88 555.508H1030.78L1025.46 542.344L1024.37 541.996V540.448ZM1040.99 547.898C1040.99 546.224 1041.32 544.8 1041.97 543.625C1042.65 542.45 1043.55 541.569 1044.67 540.982C1045.79 540.376 1047.01 540.074 1048.33 540.074C1050.57 540.074 1052.3 540.768 1053.51 542.157C1054.74 543.527 1055.35 545.397 1055.35 547.764C1055.35 549.455 1055.01 550.897 1054.34 552.09C1053.68 553.265 1052.79 554.146 1051.67 554.734C1050.56 555.303 1049.34 555.588 1048.01 555.588C1045.78 555.588 1044.06 554.903 1042.83 553.532C1041.6 552.144 1040.99 550.265 1040.99 547.898ZM1048.22 553.852C1050.23 553.852 1051.24 551.912 1051.24 548.031C1051.24 546.002 1051 544.462 1050.52 543.412C1050.04 542.344 1049.26 541.81 1048.17 541.81C1046.1 541.81 1045.07 543.75 1045.07 547.631C1045.07 549.66 1045.32 551.209 1045.82 552.277C1046.34 553.327 1047.14 553.852 1048.22 553.852ZM1060.74 553.105C1060.89 553.318 1061.21 553.523 1061.71 553.719C1062.22 553.897 1062.74 553.986 1063.25 553.986C1064.09 553.986 1064.71 553.817 1065.12 553.479C1065.55 553.123 1065.76 552.66 1065.76 552.09C1065.76 551.503 1065.51 551.031 1064.99 550.675C1064.47 550.301 1063.6 549.847 1062.37 549.313L1061.63 548.993C1060.4 548.476 1059.48 547.853 1058.88 547.123C1058.27 546.394 1057.97 545.45 1057.97 544.293C1057.97 543.492 1058.21 542.78 1058.69 542.157C1059.17 541.516 1059.85 541.017 1060.72 540.661C1061.59 540.305 1062.6 540.127 1063.74 540.127C1064.57 540.127 1065.28 540.181 1065.87 540.287C1066.48 540.394 1067.11 540.537 1067.77 540.715C1068.12 540.839 1068.39 540.911 1068.57 540.928V544.426H1066.46L1065.84 542.397C1065.74 542.219 1065.5 542.059 1065.12 541.916C1064.75 541.774 1064.32 541.703 1063.84 541.703C1063.11 541.703 1062.52 541.863 1062.08 542.183C1061.65 542.486 1061.44 542.913 1061.44 543.465C1061.44 543.964 1061.59 544.382 1061.89 544.72C1062.2 545.041 1062.52 545.29 1062.88 545.468C1063.24 545.646 1063.9 545.94 1064.86 546.349C1065.82 546.758 1066.61 547.15 1067.23 547.524C1067.87 547.898 1068.4 548.387 1068.81 548.993C1069.24 549.58 1069.45 550.301 1069.45 551.156C1069.45 552.473 1068.93 553.541 1067.9 554.36C1066.87 555.179 1065.38 555.588 1063.44 555.588C1062.53 555.588 1061.71 555.508 1060.98 555.348C1060.27 555.188 1059.44 554.974 1058.5 554.707L1057.91 554.52V550.995H1060.13L1060.74 553.105Z" fill="white"/>
<rect y="85.3005" width="264.061" height="48.2133" rx="24.1067" fill="#979797"/>
<path d="M34.5193 100.57L32.2496 100.223V98.5671H40.7945V100.223L38.4446 100.57V116.538L40.7945 116.832V118.407H32.2496V116.805L34.5193 116.538V100.57ZM44.6966 106.097L42.9877 105.617V103.774L47.4203 103.213H47.5004L48.168 103.747V104.789L48.1413 105.43C48.7644 104.842 49.5743 104.335 50.5713 103.908C51.5682 103.48 52.574 103.267 53.5887 103.267C54.6746 103.267 55.5202 103.471 56.1254 103.881C56.7485 104.273 57.1935 104.896 57.4606 105.75C57.7276 106.605 57.8611 107.762 57.8611 109.221V116.591L59.49 116.805V118.407H52.6007V116.805L54.0426 116.591V109.221C54.0426 108.296 53.9803 107.575 53.8557 107.059C53.7311 106.524 53.4997 106.142 53.1614 105.91C52.841 105.661 52.3781 105.536 51.7729 105.536C50.7582 105.536 49.6723 105.973 48.5151 106.845V116.565L50.1173 116.805V118.407H43.1479V116.805L44.6966 116.565V106.097ZM65.863 118.648C64.7415 118.648 63.9137 118.389 63.3796 117.873C62.8456 117.357 62.5785 116.538 62.5785 115.417V105.617H60.8429V104.228C60.9853 104.175 61.2434 104.086 61.6172 103.961C61.9911 103.819 62.2759 103.703 62.4717 103.614C62.7744 103.382 63.0325 102.982 63.2461 102.412C63.4063 102.038 63.7 101.113 64.1273 99.6352H66.2635L66.3703 103.56H70.4559V105.617H66.397V113.12C66.397 114.117 66.4237 114.82 66.4771 115.23C66.5305 115.639 66.6463 115.906 66.8243 116.031C67.0023 116.137 67.3138 116.191 67.7589 116.191C68.2039 116.191 68.6668 116.146 69.1474 116.057C69.6281 115.951 70.0286 115.826 70.349 115.684L70.8564 117.179C70.3579 117.553 69.6281 117.891 68.6668 118.194C67.7055 118.496 66.7709 118.648 65.863 118.648ZM79.0062 118.701C76.6563 118.701 74.9028 118.016 73.7457 116.645C72.6064 115.256 72.0367 113.369 72.0367 110.984C72.0367 109.382 72.3305 107.993 72.9179 106.818C73.5232 105.643 74.3688 104.744 75.4547 104.121C76.5406 103.498 77.7956 103.187 79.2198 103.187C81 103.187 82.3707 103.658 83.332 104.602C84.2933 105.528 84.7918 106.854 84.8274 108.581C84.8274 109.756 84.7562 110.628 84.6137 111.197H75.9353C76.0066 112.817 76.3893 114.081 77.0836 114.989C77.7778 115.879 78.7658 116.324 80.0476 116.324C80.7418 116.324 81.4539 116.209 82.1838 115.977C82.9315 115.746 83.5189 115.47 83.9462 115.149L84.6137 116.618C84.1331 117.134 83.3498 117.615 82.2639 118.06C81.1958 118.487 80.1099 118.701 79.0062 118.701ZM81.089 109.595C81.1246 109.097 81.1424 108.714 81.1424 108.447C81.1424 106.079 80.3502 104.896 78.7658 104.896C77.8935 104.896 77.2171 105.243 76.7364 105.937C76.2558 106.631 75.9888 107.851 75.9353 109.595H81.089ZM86.9584 116.832L88.7208 116.618V106.097L87.0118 105.617V103.774L91.1507 103.213H91.2308L91.8984 103.747V104.335L91.8183 106.498H91.8984C92.023 106.142 92.3167 105.706 92.7796 105.189C93.2424 104.655 93.821 104.192 94.5153 103.801C95.2273 103.391 95.9928 103.187 96.8117 103.187C97.2033 103.187 97.5416 103.24 97.8264 103.347V107.352C97.2924 106.978 96.6426 106.792 95.8771 106.792C94.5776 106.792 93.4472 107.139 92.4859 107.833V116.591L95.5834 116.832V118.407H86.9584V116.832ZM98.1656 103.56H105.215V105.109L103.453 105.456L105.883 112.72L106.737 115.55L107.458 112.8L109.835 105.456L108.152 105.109V103.56H114.027V105.109L112.639 105.456L107.672 118.621H104.574L99.2604 105.456L98.1656 105.109V103.56ZM121.512 118.701C119.162 118.701 117.408 118.016 116.251 116.645C115.112 115.256 114.542 113.369 114.542 110.984C114.542 109.382 114.836 107.993 115.423 106.818C116.029 105.643 116.874 104.744 117.96 104.121C119.046 103.498 120.301 103.187 121.725 103.187C123.505 103.187 124.876 103.658 125.837 104.602C126.799 105.528 127.297 106.854 127.333 108.581C127.333 109.756 127.262 110.628 127.119 111.197H118.441C118.512 112.817 118.895 114.081 119.589 114.989C120.283 115.879 121.271 116.324 122.553 116.324C123.247 116.324 123.959 116.209 124.689 115.977C125.437 115.746 126.024 115.47 126.452 115.149L127.119 116.618C126.639 117.134 125.855 117.615 124.769 118.06C123.701 118.487 122.615 118.701 121.512 118.701ZM123.594 109.595C123.63 109.097 123.648 108.714 123.648 108.447C123.648 106.079 122.856 104.896 121.271 104.896C120.399 104.896 119.722 105.243 119.242 105.937C118.761 106.631 118.494 107.851 118.441 109.595H123.594ZM130.959 106.097L129.25 105.617V103.774L133.683 103.213H133.763L134.43 103.747V104.789L134.404 105.43C135.027 104.842 135.837 104.335 136.834 103.908C137.831 103.48 138.836 103.267 139.851 103.267C140.937 103.267 141.783 103.471 142.388 103.881C143.011 104.273 143.456 104.896 143.723 105.75C143.99 106.605 144.124 107.762 144.124 109.221V116.591L145.752 116.805V118.407H138.863V116.805L140.305 116.591V109.221C140.305 108.296 140.243 107.575 140.118 107.059C139.994 106.524 139.762 106.142 139.424 105.91C139.103 105.661 138.641 105.536 138.035 105.536C137.021 105.536 135.935 105.973 134.778 106.845V116.565L136.38 116.805V118.407H129.41V116.805L130.959 116.565V106.097ZM147.292 111.064C147.292 109.533 147.595 108.171 148.2 106.978C148.823 105.786 149.704 104.86 150.844 104.201C152.001 103.525 153.345 103.187 154.876 103.187C155.588 103.187 156.202 103.24 156.718 103.347C157.235 103.454 157.813 103.596 158.454 103.774L159.228 103.988L159.068 108.554H156.745L156.077 105.617C155.971 105.154 155.446 104.922 154.502 104.922C153.505 104.922 152.722 105.358 152.152 106.231C151.6 107.103 151.315 108.465 151.298 110.316C151.298 112.274 151.636 113.779 152.312 114.829C152.989 115.862 153.888 116.378 155.009 116.378C156.362 116.378 157.608 116.013 158.748 115.283L159.362 116.672C158.899 117.17 158.187 117.633 157.226 118.06C156.282 118.487 155.259 118.701 154.155 118.701C151.876 118.701 150.158 117.998 149.001 116.591C147.862 115.185 147.292 113.343 147.292 111.064ZM164.664 101.131C164.023 101.131 163.516 100.944 163.142 100.57C162.768 100.196 162.581 99.7153 162.581 99.1278C162.581 98.4513 162.795 97.8906 163.222 97.4455C163.649 97.0005 164.219 96.778 164.931 96.778C165.643 96.778 166.186 96.9738 166.56 97.3654C166.934 97.7393 167.121 98.211 167.121 98.7807C167.121 99.4928 166.907 100.062 166.48 100.49C166.052 100.917 165.456 101.131 164.691 101.131H164.664ZM163.249 106.097L161.353 105.59V103.801L166.239 103.213H166.293L167.04 103.747V116.591L168.83 116.805V118.407H161.379V116.805L163.249 116.565V106.097ZM170.744 111.011C170.744 109.337 171.073 107.913 171.732 106.738C172.408 105.563 173.307 104.682 174.429 104.095C175.55 103.489 176.769 103.187 178.087 103.187C180.33 103.187 182.057 103.881 183.267 105.269C184.496 106.64 185.11 108.509 185.11 110.877C185.11 112.568 184.771 114.01 184.095 115.203C183.436 116.378 182.546 117.259 181.425 117.846C180.321 118.416 179.102 118.701 177.766 118.701C175.541 118.701 173.814 118.016 172.586 116.645C171.358 115.256 170.744 113.378 170.744 111.011ZM177.98 116.965C179.992 116.965 180.997 115.025 180.997 111.144C180.997 109.115 180.757 107.575 180.276 106.524C179.796 105.456 179.013 104.922 177.927 104.922C175.862 104.922 174.829 106.863 174.829 110.744C174.829 112.773 175.078 114.322 175.577 115.39C176.093 116.44 176.894 116.965 177.98 116.965ZM189.032 106.097L187.323 105.617V103.774L191.756 103.213H191.836L192.504 103.747V104.789L192.477 105.43C193.1 104.842 193.91 104.335 194.907 103.908C195.904 103.48 196.91 103.267 197.924 103.267C199.01 103.267 199.856 103.471 200.461 103.881C201.084 104.273 201.529 104.896 201.796 105.75C202.063 106.605 202.197 107.762 202.197 109.221V116.591L203.826 116.805V118.407H196.936V116.805L198.378 116.591V109.221C198.378 108.296 198.316 107.575 198.192 107.059C198.067 106.524 197.835 106.142 197.497 105.91C197.177 105.661 196.714 105.536 196.109 105.536C195.094 105.536 194.008 105.973 192.851 106.845V116.565L194.453 116.805V118.407H187.484V116.805L189.032 116.565V106.097ZM212.442 118.701C210.092 118.701 208.339 118.016 207.181 116.645C206.042 115.256 205.472 113.369 205.472 110.984C205.472 109.382 205.766 107.993 206.354 106.818C206.959 105.643 207.804 104.744 208.89 104.121C209.976 103.498 211.231 103.187 212.655 103.187C214.436 103.187 215.806 103.658 216.768 104.602C217.729 105.528 218.227 106.854 218.263 108.581C218.263 109.756 218.192 110.628 218.049 111.197H209.371C209.442 112.817 209.825 114.081 210.519 114.989C211.214 115.879 212.202 116.324 213.483 116.324C214.178 116.324 214.89 116.209 215.619 115.977C216.367 115.746 216.955 115.47 217.382 115.149L218.049 116.618C217.569 117.134 216.785 117.615 215.7 118.06C214.631 118.487 213.546 118.701 212.442 118.701ZM214.525 109.595C214.56 109.097 214.578 108.714 214.578 108.447C214.578 106.079 213.786 104.896 212.202 104.896C211.329 104.896 210.653 105.243 210.172 105.937C209.691 106.631 209.424 107.851 209.371 109.595H214.525ZM223.358 116.218C223.5 116.431 223.821 116.636 224.319 116.832C224.836 117.01 225.352 117.099 225.868 117.099C226.705 117.099 227.328 116.93 227.737 116.591C228.165 116.235 228.378 115.773 228.378 115.203C228.378 114.615 228.12 114.144 227.604 113.788C227.088 113.414 226.215 112.96 224.987 112.426L224.239 112.105C223.011 111.589 222.094 110.966 221.489 110.236C220.884 109.506 220.581 108.563 220.581 107.406C220.581 106.605 220.821 105.893 221.302 105.269C221.783 104.629 222.459 104.13 223.331 103.774C224.204 103.418 225.209 103.24 226.349 103.24C227.185 103.24 227.898 103.293 228.485 103.4C229.09 103.507 229.722 103.649 230.381 103.828C230.737 103.952 231.004 104.023 231.182 104.041V107.539H229.072L228.458 105.51C228.351 105.332 228.111 105.172 227.737 105.029C227.363 104.887 226.936 104.816 226.456 104.816C225.726 104.816 225.138 104.976 224.693 105.296C224.266 105.599 224.052 106.026 224.052 106.578C224.052 107.076 224.204 107.495 224.506 107.833C224.809 108.153 225.138 108.403 225.494 108.581C225.85 108.759 226.509 109.052 227.47 109.462C228.432 109.871 229.224 110.263 229.847 110.637C230.488 111.011 231.013 111.5 231.422 112.105C231.85 112.693 232.063 113.414 232.063 114.268C232.063 115.586 231.547 116.654 230.514 117.473C229.482 118.292 227.995 118.701 226.055 118.701C225.147 118.701 224.328 118.621 223.598 118.461C222.886 118.3 222.059 118.087 221.115 117.82L220.528 117.633V114.108H222.744L223.358 116.218Z" fill="white"/>
<rect y="305.082" width="264.061" height="48.2133" rx="24.1067" fill="#95B8DB"/>
<path d="M69.0116 320.351L67.0089 320.004V318.348H71.041C71.4149 318.348 71.9934 318.331 72.7767 318.295C73.8092 318.224 74.7438 318.188 75.5805 318.188C77.4319 318.188 78.8916 318.42 79.9597 318.883C81.0457 319.328 81.8111 319.977 82.2562 320.832C82.719 321.669 82.9505 322.737 82.9505 324.036C82.9505 326.279 82.2473 328.024 80.8409 329.27C79.4524 330.516 77.5209 331.139 75.0464 331.139C74.0673 331.139 73.3642 331.112 72.9369 331.059V336.319L76.5151 336.586V338.189H66.9021V336.586L69.0116 336.319V320.351ZM72.9102 329.35C73.3197 329.439 74.0139 329.484 74.993 329.484C76.1858 329.484 77.1382 329.074 77.8502 328.255C78.5801 327.419 78.945 326.039 78.945 324.116C78.945 322.621 78.6157 321.535 77.957 320.859C77.3162 320.164 76.3282 319.817 74.993 319.817C74.4946 319.817 73.9783 319.853 73.4443 319.924C73.195 319.96 73.017 319.977 72.9102 319.977V329.35ZM84.6897 336.613L86.4521 336.4V325.879L84.7431 325.398V323.556L88.882 322.995H88.9621L89.6297 323.529V324.116L89.5496 326.279H89.6297C89.7543 325.923 90.048 325.487 90.5109 324.971C90.9737 324.437 91.5523 323.974 92.2466 323.582C92.9586 323.173 93.7241 322.968 94.543 322.968C94.9347 322.968 95.2729 323.021 95.5577 323.128V327.134C95.0237 326.76 94.3739 326.573 93.6084 326.573C92.3089 326.573 91.1785 326.92 90.2172 327.614V336.373L93.3147 336.613V338.189H84.6897V336.613ZM97.2588 330.792C97.2588 329.119 97.5881 327.694 98.2468 326.52C98.9232 325.345 99.8222 324.463 100.944 323.876C102.065 323.271 103.285 322.968 104.602 322.968C106.845 322.968 108.572 323.662 109.782 325.051C111.011 326.422 111.625 328.291 111.625 330.658C111.625 332.35 111.287 333.792 110.61 334.984C109.951 336.159 109.061 337.04 107.94 337.628C106.836 338.198 105.617 338.482 104.282 338.482C102.056 338.482 100.33 337.797 99.1013 336.426C97.8729 335.038 97.2588 333.16 97.2588 330.792ZM104.495 336.747C106.507 336.747 107.513 334.806 107.513 330.926C107.513 328.896 107.272 327.356 106.792 326.306C106.311 325.238 105.528 324.704 104.442 324.704C102.377 324.704 101.344 326.644 101.344 330.525C101.344 332.554 101.594 334.103 102.092 335.171C102.608 336.222 103.409 336.747 104.495 336.747ZM116.429 344.838C116.108 344.838 115.761 344.811 115.387 344.758C115.031 344.704 114.773 344.642 114.613 344.571V341.713C114.738 341.785 114.987 341.856 115.361 341.927C115.735 341.998 116.073 342.034 116.375 342.034C117.266 342.034 117.995 341.74 118.565 341.153C119.153 340.565 119.695 339.577 120.194 338.189H118.752L113.732 325.238L112.53 324.891V323.342H119.874V324.891L117.924 325.211L120.301 332.608L121.262 335.759L122.09 332.608L124.279 325.211L122.597 324.891V323.342H128.392V324.891L127.083 325.211C126.104 328.202 125.134 331.086 124.173 333.863C123.211 336.64 122.651 338.198 122.49 338.536C121.921 340.031 121.378 341.224 120.862 342.114C120.345 343.004 119.731 343.681 119.019 344.143C118.307 344.606 117.444 344.838 116.429 344.838ZM136.089 338.482C133.739 338.482 131.985 337.797 130.828 336.426C129.689 335.038 129.119 333.151 129.119 330.765C129.119 329.163 129.413 327.775 130 326.6C130.606 325.425 131.451 324.526 132.537 323.903C133.623 323.28 134.878 322.968 136.302 322.968C138.082 322.968 139.453 323.44 140.414 324.383C141.376 325.309 141.874 326.635 141.91 328.362C141.91 329.537 141.839 330.409 141.696 330.979H133.018C133.089 332.599 133.472 333.863 134.166 334.771C134.86 335.661 135.848 336.106 137.13 336.106C137.824 336.106 138.536 335.99 139.266 335.759C140.014 335.527 140.601 335.251 141.029 334.931L141.696 336.4C141.216 336.916 140.432 337.396 139.346 337.842C138.278 338.269 137.192 338.482 136.089 338.482ZM138.171 329.377C138.207 328.878 138.225 328.496 138.225 328.229C138.225 325.861 137.433 324.677 135.848 324.677C134.976 324.677 134.299 325.024 133.819 325.718C133.338 326.413 133.071 327.632 133.018 329.377H138.171ZM143.694 330.845C143.694 329.314 143.996 327.953 144.602 326.76C145.225 325.567 146.106 324.641 147.245 323.983C148.402 323.306 149.746 322.968 151.277 322.968C151.989 322.968 152.603 323.021 153.12 323.128C153.636 323.235 154.215 323.378 154.855 323.556L155.63 323.769L155.47 328.335H153.146L152.479 325.398C152.372 324.935 151.847 324.704 150.903 324.704C149.906 324.704 149.123 325.14 148.554 326.012C148.002 326.884 147.717 328.246 147.699 330.098C147.699 332.056 148.037 333.56 148.714 334.61C149.39 335.643 150.289 336.159 151.411 336.159C152.764 336.159 154.01 335.794 155.149 335.064L155.763 336.453C155.3 336.951 154.588 337.414 153.627 337.842C152.684 338.269 151.66 338.482 150.556 338.482C148.278 338.482 146.56 337.779 145.403 336.373C144.263 334.967 143.694 333.124 143.694 330.845ZM162.374 338.429C161.252 338.429 160.424 338.171 159.89 337.655C159.356 337.138 159.089 336.319 159.089 335.198V325.398H157.354V324.009C157.496 323.956 157.754 323.867 158.128 323.742C158.502 323.6 158.787 323.484 158.982 323.395C159.285 323.164 159.543 322.763 159.757 322.194C159.917 321.82 160.211 320.894 160.638 319.417H162.774L162.881 323.342H166.967V325.398H162.908V332.902C162.908 333.898 162.934 334.602 162.988 335.011C163.041 335.42 163.157 335.687 163.335 335.812C163.513 335.919 163.825 335.972 164.27 335.972C164.715 335.972 165.177 335.928 165.658 335.839C166.139 335.732 166.539 335.607 166.86 335.465L167.367 336.96C166.869 337.334 166.139 337.672 165.177 337.975C164.216 338.278 163.282 338.429 162.374 338.429ZM168.788 330.792C168.788 329.119 169.117 327.694 169.776 326.52C170.452 325.345 171.351 324.463 172.473 323.876C173.594 323.271 174.814 322.968 176.131 322.968C178.374 322.968 180.101 323.662 181.311 325.051C182.54 326.422 183.154 328.291 183.154 330.658C183.154 332.35 182.816 333.792 182.139 334.984C181.481 336.159 180.59 337.04 179.469 337.628C178.365 338.198 177.146 338.482 175.811 338.482C173.585 338.482 171.859 337.797 170.63 336.426C169.402 335.038 168.788 333.16 168.788 330.792ZM176.024 336.747C178.036 336.747 179.042 334.806 179.042 330.926C179.042 328.896 178.801 327.356 178.321 326.306C177.84 325.238 177.057 324.704 175.971 324.704C173.906 324.704 172.873 326.644 172.873 330.525C172.873 332.554 173.123 334.103 173.621 335.171C174.137 336.222 174.938 336.747 176.024 336.747ZM188.545 335.999C188.688 336.213 189.008 336.417 189.507 336.613C190.023 336.791 190.539 336.88 191.055 336.88C191.892 336.88 192.515 336.711 192.925 336.373C193.352 336.017 193.565 335.554 193.565 334.984C193.565 334.397 193.307 333.925 192.791 333.569C192.275 333.195 191.403 332.741 190.174 332.207L189.427 331.887C188.198 331.371 187.281 330.747 186.676 330.018C186.071 329.288 185.768 328.344 185.768 327.187C185.768 326.386 186.009 325.674 186.489 325.051C186.97 324.41 187.646 323.912 188.519 323.556C189.391 323.199 190.397 323.021 191.536 323.021C192.373 323.021 193.085 323.075 193.672 323.182C194.278 323.289 194.91 323.431 195.568 323.609C195.924 323.734 196.191 323.805 196.369 323.823V327.321H194.26L193.646 325.291C193.539 325.113 193.298 324.953 192.925 324.811C192.551 324.668 192.124 324.597 191.643 324.597C190.913 324.597 190.326 324.757 189.88 325.078C189.453 325.38 189.24 325.807 189.24 326.359C189.24 326.858 189.391 327.276 189.694 327.614C189.996 327.935 190.326 328.184 190.682 328.362C191.038 328.54 191.696 328.834 192.658 329.243C193.619 329.653 194.411 330.044 195.034 330.418C195.675 330.792 196.2 331.282 196.61 331.887C197.037 332.474 197.25 333.195 197.25 334.05C197.25 335.367 196.734 336.435 195.702 337.254C194.669 338.073 193.183 338.482 191.242 338.482C190.334 338.482 189.516 338.402 188.786 338.242C188.074 338.082 187.246 337.868 186.302 337.601L185.715 337.414V333.89H187.931L188.545 335.999Z" fill="white"/>
<rect y="522.188" width="264.061" height="48.2133" rx="24.1067" fill="#979797"/>
<path d="M61.5406 537.457L59.5379 537.11V535.454H63.57C63.9438 535.454 64.5224 535.436 65.3057 535.401C66.3382 535.33 67.2728 535.294 68.1095 535.294C69.9608 535.294 71.4206 535.525 72.4887 535.988C73.5746 536.433 74.3401 537.083 74.7851 537.938C75.248 538.774 75.4794 539.842 75.4794 541.142C75.4794 543.385 74.7762 545.13 73.3699 546.376C71.9814 547.622 70.0499 548.245 67.5754 548.245C66.5963 548.245 65.8931 548.218 65.4659 548.165V553.425L69.044 553.692V555.294H59.431V553.692L61.5406 553.425V537.457ZM65.4392 546.456C65.8486 546.545 66.5429 546.589 67.522 546.589C68.7147 546.589 69.6671 546.18 70.3792 545.361C71.1091 544.524 71.474 543.145 71.474 541.222C71.474 539.727 71.1447 538.641 70.486 537.964C69.8451 537.27 68.8571 536.923 67.522 536.923C67.0235 536.923 66.5073 536.959 65.9732 537.03C65.724 537.065 65.546 537.083 65.4392 537.083V546.456ZM77.2186 553.719L78.981 553.505V542.984L77.2721 542.504V540.661L81.411 540.101H81.4911L82.1587 540.635V541.222L82.0786 543.385H82.1587C82.2833 543.029 82.577 542.593 83.0399 542.077C83.5027 541.543 84.0813 541.08 84.7755 540.688C85.4876 540.279 86.2531 540.074 87.072 540.074C87.4636 540.074 87.8018 540.127 88.0867 540.234V544.239C87.5526 543.866 86.9029 543.679 86.1374 543.679C84.8378 543.679 83.7074 544.026 82.7461 544.72V553.479L85.8436 553.719V555.294H77.2186V553.719ZM89.7877 547.898C89.7877 546.224 90.1171 544.8 90.7757 543.625C91.4522 542.45 92.3512 541.569 93.4727 540.982C94.5942 540.376 95.8137 540.074 97.131 540.074C99.374 540.074 101.101 540.768 102.311 542.157C103.54 543.527 104.154 545.397 104.154 547.764C104.154 549.455 103.816 550.897 103.139 552.09C102.48 553.265 101.59 554.146 100.469 554.734C99.3651 555.303 98.1457 555.588 96.8106 555.588C94.5853 555.588 92.8585 554.903 91.6302 553.532C90.4019 552.144 89.7877 550.265 89.7877 547.898ZM97.0242 553.852C99.0358 553.852 100.042 551.912 100.042 548.031C100.042 546.002 99.8013 544.462 99.3206 543.412C98.84 542.344 98.0567 541.81 96.9708 541.81C94.9058 541.81 93.8733 543.75 93.8733 547.631C93.8733 549.66 94.1225 551.209 94.6209 552.277C95.1372 553.327 95.9383 553.852 97.0242 553.852ZM113.043 562.504C110.658 562.504 108.931 562.13 107.863 561.383C106.795 560.635 106.261 559.62 106.261 558.339C106.261 557.609 106.501 556.914 106.982 556.256C107.48 555.615 108.077 555.134 108.771 554.814C107.952 554.333 107.543 553.568 107.543 552.517C107.543 551.912 107.738 551.342 108.13 550.808C108.522 550.257 109.029 549.829 109.652 549.527C108.673 549.153 107.943 548.583 107.462 547.818C106.982 547.052 106.741 546.144 106.741 545.094C106.741 544.079 107.035 543.198 107.623 542.45C108.228 541.685 109.029 541.097 110.026 540.688C111.041 540.279 112.135 540.074 113.31 540.074C115.393 540.074 116.942 540.474 117.957 541.275C118.188 540.973 118.58 540.688 119.132 540.421C119.683 540.154 120.253 540.02 120.841 540.02H121.775V542.931H119.025C119.292 543.501 119.425 544.106 119.425 544.747C119.443 546.367 118.873 547.666 117.716 548.645C116.559 549.607 114.975 550.087 112.963 550.087C112.127 550.087 111.423 550.025 110.854 549.9C110.676 550.132 110.533 550.381 110.426 550.648C110.337 550.897 110.293 551.12 110.293 551.316C110.293 551.903 110.498 552.304 110.907 552.517C111.334 552.731 112.091 552.838 113.177 552.838H116.034C119.666 552.838 121.481 554.155 121.481 556.79C121.481 557.894 121.09 558.882 120.307 559.754C119.523 560.626 118.482 561.303 117.182 561.783C115.883 562.264 114.503 562.504 113.043 562.504ZM113.23 548.432C114.886 548.432 115.714 547.301 115.714 545.041C115.714 543.883 115.5 543.038 115.073 542.504C114.663 541.952 114.031 541.676 113.177 541.676C112.34 541.676 111.69 541.952 111.228 542.504C110.783 543.038 110.56 543.848 110.56 544.934C110.56 547.266 111.45 548.432 113.23 548.432ZM113.444 560.662C114.565 560.662 115.536 560.386 116.354 559.834C117.173 559.3 117.583 558.552 117.583 557.591C117.583 556.825 117.378 556.274 116.969 555.935C116.577 555.597 115.865 555.428 114.832 555.428H111.922C111.477 555.428 111.067 555.401 110.693 555.348C110.213 555.989 109.973 556.754 109.973 557.644C109.973 558.623 110.24 559.371 110.774 559.887C111.308 560.404 112.198 560.662 113.444 560.662ZM123.192 553.719L124.955 553.505V542.984L123.246 542.504V540.661L127.385 540.101H127.465L128.132 540.635V541.222L128.052 543.385H128.132C128.257 543.029 128.551 542.593 129.013 542.077C129.476 541.543 130.055 541.08 130.749 540.688C131.461 540.279 132.227 540.074 133.046 540.074C133.437 540.074 133.775 540.127 134.06 540.234V544.239C133.526 543.866 132.876 543.679 132.111 543.679C130.811 543.679 129.681 544.026 128.72 544.72V553.479L131.817 553.719V555.294H123.192V553.719ZM135.468 551.129C135.468 549.509 136.278 548.289 137.898 547.471C139.535 546.652 141.645 546.233 144.226 546.215V545.601C144.226 544.871 144.146 544.302 143.986 543.892C143.843 543.483 143.567 543.18 143.158 542.984C142.766 542.771 142.188 542.664 141.422 542.664C140.55 542.664 139.767 542.78 139.073 543.011C138.378 543.225 137.657 543.51 136.91 543.866L136.082 542.157C136.349 541.925 136.794 541.649 137.417 541.329C138.058 541.008 138.814 540.733 139.687 540.501C140.559 540.252 141.458 540.127 142.384 540.127C143.754 540.127 144.823 540.305 145.588 540.661C146.371 541.017 146.932 541.587 147.27 542.37C147.608 543.154 147.778 544.204 147.778 545.521V553.692H149.22V555.188C148.864 555.277 148.356 555.366 147.698 555.455C147.039 555.544 146.46 555.588 145.962 555.588C145.357 555.588 144.947 555.499 144.733 555.321C144.538 555.143 144.44 554.778 144.44 554.226V553.505C143.959 554.039 143.336 554.52 142.571 554.947C141.805 555.375 140.942 555.588 139.98 555.588C139.162 555.588 138.405 555.419 137.711 555.081C137.034 554.725 136.491 554.217 136.082 553.559C135.672 552.882 135.468 552.072 135.468 551.129ZM141.689 553.372C142.063 553.372 142.49 553.265 142.971 553.051C143.452 552.82 143.87 552.544 144.226 552.224V547.844C142.624 547.844 141.422 548.12 140.621 548.672C139.838 549.206 139.446 549.9 139.446 550.755C139.446 551.609 139.642 552.259 140.034 552.704C140.443 553.149 140.995 553.372 141.689 553.372ZM150.886 553.692L152.381 553.452V542.984L150.672 542.504V540.661L155.105 540.101L155.425 540.314L155.826 541.195V542.317C156.413 541.747 157.25 541.249 158.336 540.822C159.44 540.376 160.392 540.154 161.193 540.154C162.155 540.154 162.929 540.314 163.516 540.635C164.122 540.955 164.576 541.453 164.878 542.13C165.466 541.596 166.24 541.133 167.201 540.741C168.163 540.35 169.106 540.154 170.032 540.154C171.616 540.154 172.738 540.617 173.396 541.543C174.055 542.468 174.384 543.981 174.384 546.082V553.452L176.12 553.692V555.294H169.204V553.692L170.593 553.452V546.189C170.593 544.8 170.424 543.83 170.085 543.278C169.765 542.709 169.142 542.424 168.216 542.424C167.718 542.424 167.201 542.539 166.667 542.771C166.151 542.984 165.688 543.251 165.279 543.572C165.403 544.248 165.466 545.094 165.466 546.109V553.452L167.121 553.692V555.294H160.152V553.692L161.62 553.452V546.109C161.62 545.183 161.558 544.462 161.434 543.946C161.327 543.412 161.113 543.029 160.793 542.798C160.472 542.548 160.009 542.424 159.404 542.424C158.835 542.424 158.265 542.557 157.695 542.824C157.143 543.073 156.645 543.376 156.2 543.732V553.452L157.775 553.692V555.294H150.886V553.692ZM177.634 551.129C177.634 549.509 178.444 548.289 180.064 547.471C181.702 546.652 183.811 546.233 186.393 546.215V545.601C186.393 544.871 186.312 544.302 186.152 543.892C186.01 543.483 185.734 543.18 185.324 542.984C184.933 542.771 184.354 542.664 183.589 542.664C182.716 542.664 181.933 542.78 181.239 543.011C180.545 543.225 179.824 543.51 179.076 543.866L178.248 542.157C178.515 541.925 178.96 541.649 179.583 541.329C180.224 541.008 180.981 540.733 181.853 540.501C182.725 540.252 183.624 540.127 184.55 540.127C185.921 540.127 186.989 540.305 187.754 540.661C188.538 541.017 189.098 541.587 189.437 542.37C189.775 543.154 189.944 544.204 189.944 545.521V553.692H191.386V555.188C191.03 555.277 190.523 555.366 189.864 555.455C189.205 555.544 188.627 555.588 188.128 555.588C187.523 555.588 187.114 555.499 186.9 555.321C186.704 555.143 186.606 554.778 186.606 554.226V553.505C186.126 554.039 185.502 554.52 184.737 554.947C183.971 555.375 183.108 555.588 182.147 555.588C181.328 555.588 180.571 555.419 179.877 555.081C179.201 554.725 178.658 554.217 178.248 553.559C177.839 552.882 177.634 552.072 177.634 551.129ZM183.856 553.372C184.23 553.372 184.657 553.265 185.138 553.051C185.618 552.82 186.037 552.544 186.393 552.224V547.844C184.79 547.844 183.589 548.12 182.788 548.672C182.004 549.206 181.613 549.9 181.613 550.755C181.613 551.609 181.809 552.259 182.2 552.704C182.61 553.149 183.162 553.372 183.856 553.372ZM196.016 553.105C196.159 553.318 196.479 553.523 196.978 553.719C197.494 553.897 198.01 553.986 198.526 553.986C199.363 553.986 199.986 553.817 200.396 553.479C200.823 553.123 201.037 552.66 201.037 552.09C201.037 551.503 200.778 551.031 200.262 550.675C199.746 550.301 198.874 549.847 197.645 549.313L196.898 548.993C195.669 548.476 194.752 547.853 194.147 547.123C193.542 546.394 193.239 545.45 193.239 544.293C193.239 543.492 193.48 542.78 193.96 542.157C194.441 541.516 195.117 541.017 195.99 540.661C196.862 540.305 197.868 540.127 199.007 540.127C199.844 540.127 200.556 540.181 201.143 540.287C201.749 540.394 202.381 540.537 203.039 540.715C203.395 540.839 203.662 540.911 203.84 540.928V544.426H201.731L201.117 542.397C201.01 542.219 200.769 542.059 200.396 541.916C200.022 541.774 199.595 541.703 199.114 541.703C198.384 541.703 197.797 541.863 197.352 542.183C196.924 542.486 196.711 542.913 196.711 543.465C196.711 543.964 196.862 544.382 197.165 544.72C197.467 545.041 197.797 545.29 198.153 545.468C198.509 545.646 199.167 545.94 200.129 546.349C201.09 546.758 201.882 547.15 202.505 547.524C203.146 547.898 203.671 548.387 204.081 548.993C204.508 549.58 204.722 550.301 204.722 551.156C204.722 552.473 204.205 553.541 203.173 554.36C202.14 555.179 200.654 555.588 198.713 555.588C197.805 555.588 196.987 555.508 196.257 555.348C195.545 555.188 194.717 554.974 193.773 554.707L193.186 554.52V550.995H195.402L196.016 553.105Z" fill="white"/>
<line x1="569.857" y1="48" x2="569.857" y2="105" stroke="#910121" stroke-width="2"/>
<line x1="569.857" y1="558" x2="569.857" y2="615" stroke="#910121" stroke-width="2"/>
<line x1="263.857" y1="329" x2="441.857" y2="329" stroke="#95B8DB" stroke-width="2"/>
<line x1="250.857" y1="108" x2="317.857" y2="108" stroke="#979797" stroke-width="2"/>
<line x1="894.857" y1="550" x2="827.857" y2="550" stroke="#979797" stroke-width="2"/>
<line y1="-1" x2="67" y2="-1" transform="matrix(1 0 0 -1 250.857 549)" stroke="#979797" stroke-width="2"/>
<line y1="-1" x2="67" y2="-1" transform="matrix(-1 0 0 1 894.857 109)" stroke="#979797" stroke-width="2"/>
<path d="M316.857 108L464.857 185" stroke="#979797" stroke-width="2"/>
<path d="M828.857 550L680.857 473" stroke="#979797" stroke-width="2"/>
<path d="M316.857 550L464.857 473" stroke="#979797" stroke-width="2"/>
<path d="M828.857 108L680.857 185" stroke="#979797" stroke-width="2"/>
<line y1="-1" x2="178" y2="-1" transform="matrix(-1 0 0 1 877.857 330)" stroke="#95B8DB" stroke-width="2"/>
<defs>
<radialGradient id="paint0_radial_344_4590" cx="0" cy="0" r="1" gradientUnits="userSpaceOnUse" gradientTransform="translate(571.341 330.818) rotate(90) scale(124.242)">
<stop offset="0.899038" stop-color="#AEC4DB"/>
<stop offset="0.9999" stop-color="#AEC4DB" stop-opacity="0.44"/>
</radialGradient>
<radialGradient id="paint1_radial_344_4590" cx="0" cy="0" r="1" gradientUnits="userSpaceOnUse" gradientTransform="translate(570.229 329.705) rotate(90) scale(172.455)">
<stop offset="0.803147" stop-color="#D9D9D9"/>
<stop offset="0.904069" stop-color="#D9D9D9" stop-opacity="0.66"/>
</radialGradient>
<radialGradient id="paint2_radial_344_4590" cx="0" cy="0" r="1" gradientUnits="userSpaceOnUse" gradientTransform="translate(569.857 330.818) rotate(90) scale(215.847)">
<stop offset="0.885154" stop-color="#910121"/>
<stop offset="1" stop-color="#910121" stop-opacity="0.66"/>
</radialGradient>
</defs>
</svg>
