<svg width="1000" height="202" viewBox="0 0 1000 202" fill="none" xmlns="http://www.w3.org/2000/svg">
<rect x="18.3636" y="18.3635" width="139.846" height="165.273" fill="#910121"/>
<path d="M95.1729 175.117C86.7636 175.117 78.6854 173.461 70.9382 170.15C63.2573 166.84 56.4371 162.072 50.4778 155.848C44.5846 149.624 39.8834 142.042 36.374 133.103C32.8646 124.098 31.1099 113.967 31.1099 102.71C31.1099 91.4538 32.8315 81.2567 36.2746 72.119C39.7178 62.9151 44.4853 55.0024 50.5771 48.3809C56.6027 41.8256 63.7208 36.7602 71.9314 33.1846C80.1421 29.609 88.9156 27.8212 98.2519 27.8212C105.204 27.8212 111.495 28.682 117.123 30.4036C122.751 32.1251 128.115 34.542 133.213 37.6541L137.286 30.9002H145.231L146.125 81.1574H137.981C136.921 76.2575 135.332 70.9603 133.213 65.2658C131.095 59.5051 128.612 54.6383 125.764 50.6654C122.586 46.1627 118.812 42.6533 114.441 40.1372C110.071 37.5548 105.072 36.2636 99.4438 36.2636C93.0209 36.2636 87.0285 37.6872 81.4664 40.5345C75.9706 43.3817 71.2031 47.5864 67.164 53.1484C63.3235 58.5118 60.3107 65.332 58.1256 73.6089C55.9405 81.8857 54.848 91.1227 54.848 101.32C54.848 110.325 55.9736 118.602 58.2249 126.15C60.5425 133.633 63.8201 140.221 68.0579 145.916C72.2956 151.544 77.2949 155.947 83.0556 159.126C88.8825 162.304 95.3716 163.893 102.523 163.893C107.886 163.893 112.819 163.065 117.322 161.41C121.824 159.688 125.731 157.437 129.042 154.656C132.353 151.743 135.266 148.432 137.782 144.724C140.298 141.016 142.351 136.977 143.94 132.606L151.389 136.182C145.695 150.153 138.146 160.152 128.744 166.177C119.341 172.137 108.151 175.117 95.1729 175.117Z" fill="white"/>
<path d="M225.881 175.117C217.472 175.117 209.394 173.461 201.647 170.15C193.966 166.84 187.146 162.072 181.186 155.848C175.293 149.624 170.592 142.042 167.082 133.103C163.573 124.098 161.818 113.967 161.818 102.71C161.818 91.4538 163.54 81.2567 166.983 72.119C170.426 62.9151 175.194 55.0024 181.286 48.3809C187.311 41.8256 194.429 36.7602 202.64 33.1846C210.851 29.609 219.624 27.8212 228.96 27.8212C235.913 27.8212 242.203 28.682 247.832 30.4036C253.46 32.1251 258.823 34.542 263.922 37.6541L267.994 30.9002H275.94L276.834 81.1574H268.689C267.63 76.2575 266.041 70.9603 263.922 65.2658C261.803 59.5051 259.32 54.6383 256.473 50.6654C253.294 46.1627 249.52 42.6533 245.15 40.1372C240.78 37.5548 235.781 36.2636 230.152 36.2636C223.729 36.2636 217.737 37.6872 212.175 40.5345C206.679 43.3817 201.912 47.5864 197.872 53.1484C194.032 58.5118 191.019 65.332 188.834 73.6089C186.649 81.8857 185.556 91.1227 185.556 101.32C185.556 110.325 186.682 118.602 188.933 126.15C191.251 133.633 194.529 140.221 198.766 145.916C203.004 151.544 208.003 155.947 213.764 159.126C219.591 162.304 226.08 163.893 233.231 163.893C238.595 163.893 243.528 163.065 248.03 161.41C252.533 159.688 256.44 157.437 259.75 154.656C263.061 151.743 265.975 148.432 268.491 144.724C271.007 141.016 273.06 136.977 274.649 132.606L282.098 136.182C276.403 150.153 268.855 160.152 259.452 166.177C250.05 172.137 238.86 175.117 225.881 175.117ZM429.493 102.214C429.493 114.199 427.241 124.594 422.739 133.401C418.236 142.208 412.376 149.425 405.159 155.053C397.875 160.682 389.697 164.886 380.626 167.667C371.554 170.448 362.185 171.839 352.518 171.839H294.116V164.787C296.036 164.787 298.519 164.621 301.565 164.29C304.677 163.893 306.73 163.463 307.723 162.999C309.71 162.138 311.133 160.88 311.994 159.225C312.921 157.503 313.385 155.451 313.385 153.067V51.3606C313.385 49.1093 312.987 47.0897 312.193 45.3019C311.464 43.5141 309.974 42.0905 307.723 41.0311C305.671 40.0378 303.452 39.3095 301.069 38.846C298.685 38.3825 296.632 38.0845 294.911 37.9521V30.9002H356.491C364.966 30.9002 373.309 32.2245 381.52 34.8731C389.73 37.4555 396.882 40.9649 402.973 45.4013C411.25 51.2944 417.739 59.0085 422.441 68.5434C427.142 78.0784 429.493 89.3018 429.493 102.214ZM405.159 102.114C405.159 92.6457 403.901 84.1039 401.384 76.4892C398.868 68.8083 395.193 62.1206 390.36 56.4261C385.791 50.9964 380.162 46.7256 373.475 43.6135C366.853 40.5013 359.47 38.9453 351.326 38.9453C348.611 38.9453 345.532 39.0115 342.089 39.1439C338.712 39.2102 336.196 39.2764 334.54 39.3426V147.703C334.54 153.729 336.295 157.901 339.804 160.218C343.314 162.536 348.71 163.694 355.994 163.694C364.403 163.694 371.753 162.205 378.044 159.225C384.334 156.245 389.433 152.107 393.339 146.81C397.445 141.248 400.424 134.825 402.278 127.541C404.198 120.191 405.159 111.716 405.159 102.114Z" fill="#910121"/>
<path d="M470.651 61.8057C468.584 61.8057 466.599 61.3988 464.694 60.585C462.806 59.7712 461.13 58.5993 459.665 57.0693C458.216 55.5394 457.061 53.6758 456.198 51.4785C455.336 49.265 454.904 46.7747 454.904 44.0078C454.904 41.2409 455.327 38.7344 456.174 36.4883C457.02 34.2259 458.192 32.2809 459.689 30.6533C461.171 29.042 462.92 27.7969 464.938 26.918C466.957 26.0391 469.113 25.5996 471.408 25.5996C473.117 25.5996 474.663 25.8112 476.047 26.2344C477.43 26.6576 478.749 27.2516 480.002 28.0166L481.003 26.3564H482.956L483.176 38.71H481.174C480.913 37.5055 480.523 36.2035 480.002 34.8037C479.481 33.3877 478.871 32.1914 478.171 31.2148C477.39 30.1081 476.462 29.2454 475.388 28.627C474.313 27.9922 473.085 27.6748 471.701 27.6748C470.122 27.6748 468.649 28.0247 467.282 28.7246C465.931 29.4245 464.759 30.458 463.767 31.8252C462.823 33.1436 462.082 34.82 461.545 36.8545C461.008 38.889 460.739 41.1595 460.739 43.666C460.739 45.8796 461.016 47.9141 461.569 49.7695C462.139 51.6087 462.945 53.2282 463.986 54.6279C465.028 56.0114 466.257 57.0938 467.673 57.875C469.105 58.6562 470.7 59.0469 472.458 59.0469C473.776 59.0469 474.989 58.8434 476.096 58.4365C477.202 58.0133 478.163 57.46 478.977 56.7764C479.79 56.0602 480.507 55.2464 481.125 54.335C481.743 53.4235 482.248 52.4307 482.639 51.3564L484.47 52.2354C483.07 55.6696 481.215 58.1273 478.903 59.6084C476.592 61.0732 473.841 61.8057 470.651 61.8057ZM518.647 50.7949L517.988 61H489.229V59.2666C489.717 59.234 490.368 59.1689 491.182 59.0713C491.995 58.9574 492.524 58.8434 492.769 58.7295C493.289 58.4854 493.647 58.168 493.843 57.7773C494.054 57.3867 494.16 56.8903 494.16 56.2881V31.3857C494.16 30.8486 494.071 30.3766 493.892 29.9697C493.713 29.5465 493.338 29.2048 492.769 28.9443C492.329 28.7327 491.735 28.5456 490.986 28.3828C490.254 28.2201 489.668 28.1224 489.229 28.0898V26.3564H516.035V34.7061H514.204C513.879 33.4691 513.171 32.1589 512.08 30.7754C511.006 29.3757 509.98 28.6107 509.004 28.4805C508.499 28.4154 507.897 28.3665 507.197 28.334C506.497 28.3014 505.7 28.2852 504.805 28.2852H499.36V42.0547H503.267C504.52 42.0547 505.431 41.9408 506.001 41.7129C506.587 41.4688 507.1 41.07 507.539 40.5166C507.897 40.0446 508.198 39.418 508.442 38.6367C508.703 37.8392 508.874 37.0905 508.955 36.3906H510.786V49.9404H508.955C508.89 49.1592 508.711 48.3372 508.418 47.4746C508.141 46.5957 507.848 45.9609 507.539 45.5703C507.035 44.9355 506.457 44.5205 505.806 44.3252C505.171 44.1299 504.325 44.0322 503.267 44.0322H499.36V54.4326C499.36 55.4743 499.434 56.2962 499.58 56.8984C499.727 57.5007 500.011 57.9564 500.435 58.2656C500.858 58.5749 501.436 58.7783 502.168 58.876C502.9 58.9574 503.942 58.998 505.293 58.998C505.83 58.998 506.538 58.998 507.417 58.998C508.296 58.998 509.036 58.9655 509.639 58.9004C510.257 58.8353 510.892 58.7214 511.543 58.5586C512.21 58.3796 512.682 58.1436 512.959 57.8506C513.708 57.0693 514.489 55.8893 515.303 54.3105C516.133 52.7155 516.662 51.5436 516.89 50.7949H518.647ZM559.734 28.0898C559.279 28.1061 558.579 28.2363 557.635 28.4805C556.691 28.7246 556.015 28.9769 555.608 29.2373C555.022 29.6442 554.624 30.4255 554.412 31.5811C554.217 32.7367 554.119 34.2015 554.119 35.9756V61.3418H551.995L530.999 32.9971V50.8682C530.999 52.8701 531.121 54.4082 531.365 55.4824C531.626 56.5566 532.016 57.3216 532.537 57.7773C532.911 58.1354 533.685 58.4691 534.856 58.7783C536.028 59.0876 536.801 59.2503 537.176 59.2666V61H522.967V59.2666C523.406 59.234 524.147 59.0794 525.188 58.8027C526.23 58.5098 526.881 58.2493 527.142 58.0215C527.711 57.5658 528.102 56.874 528.313 55.9463C528.525 55.0023 528.631 53.3991 528.631 51.1367V34.0713C528.631 33.3226 528.501 32.5739 528.24 31.8252C527.98 31.0765 527.63 30.4987 527.19 30.0918C526.604 29.5547 525.807 29.099 524.798 28.7246C523.805 28.334 522.999 28.1224 522.381 28.0898V26.3564H532.269L551.751 52.7725V36.293C551.751 34.2747 551.621 32.7285 551.36 31.6543C551.1 30.5638 550.726 29.8395 550.237 29.4814C549.782 29.1722 549.033 28.8711 547.991 28.5781C546.966 28.2852 546.185 28.1224 545.647 28.0898V26.3564H559.734V28.0898ZM592.716 35.7559H591.031C590.885 35.1699 590.616 34.4782 590.226 33.6807C589.851 32.8669 589.428 32.1019 588.956 31.3857C588.468 30.637 587.931 29.986 587.345 29.4326C586.775 28.863 586.222 28.5374 585.685 28.4561C585.18 28.391 584.545 28.3421 583.78 28.3096C583.015 28.277 582.307 28.2607 581.656 28.2607H580.24V55.9707C580.24 56.5078 580.354 57.0042 580.582 57.46C580.81 57.8994 581.209 58.2412 581.778 58.4854C582.071 58.5993 582.682 58.7539 583.609 58.9492C584.553 59.1445 585.286 59.2503 585.807 59.2666V61H569.449V59.2666C569.905 59.234 570.597 59.1689 571.524 59.0713C572.468 58.9736 573.119 58.8516 573.478 58.7051C574.015 58.4935 574.405 58.1924 574.649 57.8018C574.91 57.3949 575.04 56.8577 575.04 56.1904V28.2607H573.624C573.119 28.2607 572.493 28.277 571.744 28.3096C570.995 28.3258 570.279 28.3747 569.596 28.4561C569.059 28.5212 568.497 28.8467 567.911 29.4326C567.341 30.0023 566.812 30.6533 566.324 31.3857C565.836 32.1182 565.405 32.8994 565.03 33.7295C564.656 34.5433 564.396 35.2188 564.249 35.7559H562.54V26.3564H592.716V35.7559ZM631.264 61H621.938C619.87 57.7611 617.999 54.9616 616.322 52.6016C614.662 50.2415 612.855 47.8083 610.902 45.3018H607.362V56.2881C607.362 56.8577 607.452 57.3623 607.631 57.8018C607.81 58.2249 608.192 58.5505 608.778 58.7783C609.071 58.8923 609.584 58.998 610.316 59.0957C611.049 59.1934 611.667 59.2503 612.172 59.2666V61H597.523V59.2666C597.914 59.234 598.476 59.1771 599.208 59.0957C599.957 59.0143 600.478 58.9085 600.771 58.7783C601.259 58.5667 601.609 58.2575 601.82 57.8506C602.048 57.4437 602.162 56.9229 602.162 56.2881V31.2393C602.162 30.6696 602.081 30.165 601.918 29.7256C601.755 29.2861 601.373 28.9525 600.771 28.7246C600.364 28.5781 599.835 28.4479 599.184 28.334C598.533 28.2038 597.979 28.1224 597.523 28.0898V26.3564H613.515C614.979 26.3564 616.355 26.5111 617.641 26.8203C618.926 27.1133 620.09 27.5934 621.132 28.2607C622.141 28.9118 622.947 29.7663 623.549 30.8242C624.151 31.8659 624.452 33.1273 624.452 34.6084C624.452 35.943 624.249 37.123 623.842 38.1484C623.435 39.1738 622.833 40.0609 622.035 40.8096C621.303 41.5094 620.424 42.1198 619.398 42.6406C618.373 43.1452 617.242 43.5765 616.005 43.9346C617.714 46.1969 619.13 48.1012 620.253 49.6475C621.392 51.1937 622.784 53.0736 624.428 55.2871C625.144 56.2637 625.787 56.988 626.356 57.46C626.942 57.9157 627.52 58.29 628.09 58.583C628.513 58.7946 629.042 58.9574 629.677 59.0713C630.312 59.1852 630.84 59.2503 631.264 59.2666V61ZM618.422 35.1699C618.422 33.0703 617.82 31.4102 616.615 30.1895C615.411 28.9525 613.71 28.334 611.513 28.334H607.362V43.2021H610.561C612.807 43.2021 614.678 42.486 616.176 41.0537C617.673 39.6051 618.422 37.6439 618.422 35.1699ZM662.609 30.458C664.139 32.0531 665.336 33.9818 666.198 36.2441C667.061 38.4902 667.492 40.9805 667.492 43.7148C667.492 46.4655 667.053 48.9639 666.174 51.21C665.295 53.4561 664.074 55.3685 662.512 56.9473C660.998 58.5098 659.24 59.7142 657.238 60.5605C655.236 61.4069 653.104 61.8301 650.842 61.8301C648.433 61.8301 646.203 61.3825 644.152 60.4873C642.118 59.5758 640.368 58.3145 638.903 56.7031C637.438 55.1243 636.283 53.2119 635.437 50.9658C634.606 48.7035 634.191 46.2865 634.191 43.7148C634.191 40.8991 634.631 38.3926 635.51 36.1953C636.389 33.9818 637.601 32.0693 639.147 30.458C640.677 28.863 642.451 27.6423 644.47 26.7959C646.504 25.9495 648.628 25.5264 650.842 25.5264C653.137 25.5264 655.301 25.9577 657.336 26.8203C659.37 27.6829 661.128 28.8955 662.609 30.458ZM658.972 55.0186C659.883 53.5374 660.542 51.861 660.949 49.9893C661.372 48.1175 661.584 46.026 661.584 43.7148C661.584 41.3385 661.348 39.1576 660.876 37.1719C660.42 35.1862 659.745 33.4935 658.85 32.0938C657.954 30.7103 656.831 29.6361 655.48 28.8711C654.13 28.0898 652.583 27.6992 650.842 27.6992C648.889 27.6992 647.229 28.1468 645.861 29.042C644.494 29.9372 643.379 31.1335 642.517 32.6309C641.703 34.0632 641.092 35.7396 640.686 37.6602C640.295 39.5807 640.1 41.599 640.1 43.7148C640.1 46.0586 640.311 48.1745 640.734 50.0625C641.158 51.9505 641.825 53.627 642.736 55.0918C643.615 56.5241 644.722 57.6471 646.057 58.4609C647.391 59.2585 648.986 59.6572 650.842 59.6572C652.583 59.6572 654.154 59.2503 655.554 58.4365C656.953 57.6227 658.093 56.4834 658.972 55.0186ZM714.412 34.9014C714.412 36.708 714.054 38.3112 713.338 39.7109C712.638 41.0944 711.661 42.2419 710.408 43.1533C709.171 44.0648 707.812 44.7321 706.331 45.1553C704.85 45.5785 703.279 45.79 701.619 45.79H697.737V56.2881C697.737 56.8577 697.827 57.3623 698.006 57.8018C698.201 58.2249 698.592 58.5505 699.178 58.7783C699.471 58.8923 699.983 58.998 700.716 59.0957C701.465 59.1934 702.148 59.2503 702.767 59.2666V61H687.898V59.2666C688.289 59.234 688.851 59.1771 689.583 59.0957C690.332 59.0143 690.853 58.9085 691.146 58.7783C691.634 58.5667 691.984 58.2575 692.195 57.8506C692.423 57.4437 692.537 56.9229 692.537 56.2881V31.2881C692.537 30.7184 692.456 30.2057 692.293 29.75C692.13 29.2943 691.748 28.9525 691.146 28.7246C690.527 28.513 689.909 28.3665 689.29 28.2852C688.688 28.1875 688.167 28.1224 687.728 28.0898V26.3564H703.548C706.771 26.3564 709.383 27.1377 711.385 28.7002C713.403 30.2464 714.412 32.3135 714.412 34.9014ZM706.99 40.8096C707.544 40.0283 707.91 39.2227 708.089 38.3926C708.268 37.5462 708.357 36.7894 708.357 36.1221C708.357 35.1943 708.243 34.2503 708.016 33.29C707.804 32.3298 707.43 31.4915 706.893 30.7754C706.323 30.0104 705.574 29.4163 704.646 28.9932C703.719 28.57 702.563 28.3584 701.18 28.3584H697.737V43.666H700.228C701.985 43.666 703.41 43.3975 704.5 42.8604C705.607 42.307 706.437 41.6234 706.99 40.8096ZM752.716 61H738.287V59.2666C739.557 59.1852 740.606 59.0225 741.437 58.7783C742.283 58.5342 742.706 58.2331 742.706 57.875C742.706 57.7285 742.69 57.5495 742.657 57.3379C742.625 57.1263 742.576 56.9391 742.511 56.7764L739.63 49.0127H727.496C727.04 50.152 726.666 51.1449 726.373 51.9912C726.096 52.8376 725.844 53.6188 725.616 54.335C725.405 55.0348 725.258 55.6045 725.177 56.0439C725.095 56.4834 725.055 56.8415 725.055 57.1182C725.055 57.7692 725.567 58.2738 726.593 58.6318C727.618 58.9899 728.774 59.2015 730.06 59.2666V61H717.022V59.2666C717.446 59.234 717.975 59.1445 718.609 58.998C719.244 58.8353 719.765 58.6237 720.172 58.3633C720.823 57.9238 721.327 57.4681 721.686 56.9961C722.044 56.5078 722.394 55.8405 722.735 54.9941C724.477 50.6484 726.397 45.7656 728.497 40.3457C730.597 34.9258 732.468 30.0999 734.112 25.8682H736.065L747.613 55.751C747.857 56.3857 748.134 56.8984 748.443 57.2891C748.753 57.6797 749.184 58.0622 749.737 58.4365C750.112 58.6644 750.6 58.8597 751.202 59.0225C751.804 59.1689 752.309 59.2503 752.716 59.2666V61ZM738.751 46.8398L733.502 33.4121L728.351 46.8398H738.751ZM789.701 61H780.375C778.308 57.7611 776.436 54.9616 774.76 52.6016C773.1 50.2415 771.293 47.8083 769.34 45.3018H765.8V56.2881C765.8 56.8577 765.889 57.3623 766.068 57.8018C766.247 58.2249 766.63 58.5505 767.216 58.7783C767.509 58.8923 768.021 58.998 768.754 59.0957C769.486 59.1934 770.105 59.2503 770.609 59.2666V61H755.961V59.2666C756.352 59.234 756.913 59.1771 757.646 59.0957C758.394 59.0143 758.915 58.9085 759.208 58.7783C759.696 58.5667 760.046 58.2575 760.258 57.8506C760.486 57.4437 760.6 56.9229 760.6 56.2881V31.2393C760.6 30.6696 760.518 30.165 760.355 29.7256C760.193 29.2861 759.81 28.9525 759.208 28.7246C758.801 28.5781 758.272 28.4479 757.621 28.334C756.97 28.2038 756.417 28.1224 755.961 28.0898V26.3564H771.952C773.417 26.3564 774.792 26.5111 776.078 26.8203C777.364 27.1133 778.528 27.5934 779.569 28.2607C780.578 28.9118 781.384 29.7663 781.986 30.8242C782.589 31.8659 782.89 33.1273 782.89 34.6084C782.89 35.943 782.686 37.123 782.279 38.1484C781.872 39.1738 781.27 40.0609 780.473 40.8096C779.74 41.5094 778.861 42.1198 777.836 42.6406C776.811 43.1452 775.679 43.5765 774.442 43.9346C776.151 46.1969 777.567 48.1012 778.69 49.6475C779.83 51.1937 781.221 53.0736 782.865 55.2871C783.581 56.2637 784.224 56.988 784.794 57.46C785.38 57.9157 785.958 58.29 786.527 58.583C786.951 58.7946 787.479 58.9574 788.114 59.0713C788.749 59.1852 789.278 59.2503 789.701 59.2666V61ZM776.859 35.1699C776.859 33.0703 776.257 31.4102 775.053 30.1895C773.848 28.9525 772.147 28.334 769.95 28.334H765.8V43.2021H768.998C771.244 43.2021 773.116 42.486 774.613 41.0537C776.111 39.6051 776.859 37.6439 776.859 35.1699ZM825.368 61H810.939V59.2666C812.209 59.1852 813.259 59.0225 814.089 58.7783C814.935 58.5342 815.358 58.2331 815.358 57.875C815.358 57.7285 815.342 57.5495 815.31 57.3379C815.277 57.1263 815.228 56.9391 815.163 56.7764L812.282 49.0127H800.148C799.693 50.152 799.318 51.1449 799.025 51.9912C798.749 52.8376 798.496 53.6188 798.269 54.335C798.057 55.0348 797.91 55.6045 797.829 56.0439C797.748 56.4834 797.707 56.8415 797.707 57.1182C797.707 57.7692 798.22 58.2738 799.245 58.6318C800.271 58.9899 801.426 59.2015 802.712 59.2666V61H789.675V59.2666C790.098 59.234 790.627 59.1445 791.262 58.998C791.896 58.8353 792.417 58.6237 792.824 58.3633C793.475 57.9238 793.98 57.4681 794.338 56.9961C794.696 56.5078 795.046 55.8405 795.388 54.9941C797.129 50.6484 799.05 45.7656 801.149 40.3457C803.249 34.9258 805.121 30.0999 806.765 25.8682H808.718L820.266 55.751C820.51 56.3857 820.786 56.8984 821.096 57.2891C821.405 57.6797 821.836 58.0622 822.39 58.4365C822.764 58.6644 823.252 58.8597 823.854 59.0225C824.457 59.1689 824.961 59.2503 825.368 59.2666V61ZM811.403 46.8398L806.154 33.4121L801.003 46.8398H811.403ZM483.2 107.697L482.468 118H455.393V116.267C455.783 116.234 456.345 116.177 457.077 116.096C457.826 116.014 458.347 115.909 458.64 115.778C459.128 115.567 459.478 115.257 459.689 114.851C459.917 114.444 460.031 113.923 460.031 113.288V88.4834C460.031 87.93 459.934 87.4417 459.738 87.0186C459.559 86.5954 459.193 86.2536 458.64 85.9932C458.265 85.7979 457.736 85.6107 457.053 85.4316C456.385 85.2363 455.832 85.1224 455.393 85.0898V83.3564H470.017V85.0898C469.561 85.1061 468.967 85.1875 468.234 85.334C467.518 85.4805 466.997 85.6107 466.672 85.7246C466.118 85.9199 465.736 86.2536 465.524 86.7256C465.329 87.1976 465.231 87.7021 465.231 88.2393V111.506C465.231 112.58 465.28 113.418 465.378 114.021C465.492 114.606 465.744 115.062 466.135 115.388C466.509 115.681 467.062 115.876 467.795 115.974C468.544 116.055 469.585 116.096 470.92 116.096C471.522 116.096 472.149 116.079 472.8 116.047C473.451 116.014 474.069 115.949 474.655 115.852C475.225 115.754 475.746 115.624 476.218 115.461C476.706 115.282 477.064 115.062 477.292 114.802C477.959 114.053 478.732 112.922 479.611 111.408C480.507 109.878 481.125 108.641 481.467 107.697H483.2ZM519.868 118H505.439V116.267C506.709 116.185 507.759 116.022 508.589 115.778C509.435 115.534 509.858 115.233 509.858 114.875C509.858 114.729 509.842 114.549 509.81 114.338C509.777 114.126 509.728 113.939 509.663 113.776L506.782 106.013H494.648C494.193 107.152 493.818 108.145 493.525 108.991C493.249 109.838 492.996 110.619 492.769 111.335C492.557 112.035 492.41 112.604 492.329 113.044C492.248 113.483 492.207 113.841 492.207 114.118C492.207 114.769 492.72 115.274 493.745 115.632C494.771 115.99 495.926 116.201 497.212 116.267V118H484.175V116.267C484.598 116.234 485.127 116.145 485.762 115.998C486.396 115.835 486.917 115.624 487.324 115.363C487.975 114.924 488.48 114.468 488.838 113.996C489.196 113.508 489.546 112.84 489.888 111.994C491.629 107.648 493.55 102.766 495.649 97.3457C497.749 91.9258 499.621 87.0999 501.265 82.8682H503.218L514.766 112.751C515.01 113.386 515.286 113.898 515.596 114.289C515.905 114.68 516.336 115.062 516.89 115.437C517.264 115.664 517.752 115.86 518.354 116.022C518.957 116.169 519.461 116.25 519.868 116.267V118ZM505.903 103.84L500.654 90.4121L495.503 103.84H505.903ZM552.433 118.806C550.366 118.806 548.38 118.399 546.476 117.585C544.588 116.771 542.911 115.599 541.446 114.069C539.998 112.539 538.842 110.676 537.979 108.479C537.117 106.265 536.686 103.775 536.686 101.008C536.686 98.2409 537.109 95.7344 537.955 93.4883C538.801 91.2259 539.973 89.2809 541.471 87.6533C542.952 86.042 544.701 84.7969 546.72 83.918C548.738 83.0391 550.895 82.5996 553.189 82.5996C554.898 82.5996 556.445 82.8112 557.828 83.2344C559.212 83.6576 560.53 84.2516 561.783 85.0166L562.784 83.3564H564.737L564.957 95.71H562.955C562.695 94.5055 562.304 93.2035 561.783 91.8037C561.262 90.3877 560.652 89.1914 559.952 88.2148C559.171 87.1081 558.243 86.2454 557.169 85.627C556.095 84.9922 554.866 84.6748 553.482 84.6748C551.904 84.6748 550.431 85.0247 549.063 85.7246C547.713 86.4245 546.541 87.458 545.548 88.8252C544.604 90.1436 543.863 91.82 543.326 93.8545C542.789 95.889 542.521 98.1595 542.521 100.666C542.521 102.88 542.797 104.914 543.351 106.77C543.92 108.609 544.726 110.228 545.768 111.628C546.809 113.011 548.038 114.094 549.454 114.875C550.886 115.656 552.481 116.047 554.239 116.047C555.558 116.047 556.77 115.843 557.877 115.437C558.984 115.013 559.944 114.46 560.758 113.776C561.572 113.06 562.288 112.246 562.906 111.335C563.525 110.424 564.029 109.431 564.42 108.356L566.251 109.235C564.851 112.67 562.996 115.127 560.685 116.608C558.373 118.073 555.623 118.806 552.433 118.806ZM599.281 87.458C600.811 89.0531 602.007 90.9818 602.87 93.2441C603.733 95.4902 604.164 97.9805 604.164 100.715C604.164 103.465 603.725 105.964 602.846 108.21C601.967 110.456 600.746 112.368 599.184 113.947C597.67 115.51 595.912 116.714 593.91 117.561C591.908 118.407 589.776 118.83 587.514 118.83C585.105 118.83 582.875 118.382 580.824 117.487C578.79 116.576 577.04 115.314 575.575 113.703C574.11 112.124 572.955 110.212 572.108 107.966C571.278 105.703 570.863 103.286 570.863 100.715C570.863 97.8991 571.303 95.3926 572.182 93.1953C573.061 90.9818 574.273 89.0693 575.819 87.458C577.349 85.863 579.123 84.6423 581.142 83.7959C583.176 82.9495 585.3 82.5264 587.514 82.5264C589.809 82.5264 591.973 82.9577 594.008 83.8203C596.042 84.6829 597.8 85.8955 599.281 87.458ZM595.644 112.019C596.555 110.537 597.214 108.861 597.621 106.989C598.044 105.118 598.256 103.026 598.256 100.715C598.256 98.3385 598.02 96.1576 597.548 94.1719C597.092 92.1862 596.417 90.4935 595.521 89.0938C594.626 87.7103 593.503 86.6361 592.152 85.8711C590.801 85.0898 589.255 84.6992 587.514 84.6992C585.561 84.6992 583.9 85.1468 582.533 86.042C581.166 86.9372 580.051 88.1335 579.188 89.6309C578.375 91.0632 577.764 92.7396 577.357 94.6602C576.967 96.5807 576.771 98.599 576.771 100.715C576.771 103.059 576.983 105.174 577.406 107.062C577.829 108.951 578.497 110.627 579.408 112.092C580.287 113.524 581.394 114.647 582.729 115.461C584.063 116.258 585.658 116.657 587.514 116.657C589.255 116.657 590.826 116.25 592.226 115.437C593.625 114.623 594.765 113.483 595.644 112.019ZM652.209 118H636.901V116.267C637.455 116.25 638.163 116.193 639.025 116.096C639.904 115.998 640.507 115.86 640.832 115.681C641.337 115.371 641.703 115.021 641.931 114.631C642.175 114.224 642.297 113.719 642.297 113.117V87.9219H641.931L630.114 117.438H628.894L617.639 87.3115H617.321V107.99C617.321 109.992 617.443 111.514 617.688 112.556C617.948 113.597 618.339 114.346 618.859 114.802C619.217 115.144 619.958 115.469 621.081 115.778C622.204 116.088 622.937 116.25 623.278 116.267V118H609.289V116.267C610.021 116.201 610.786 116.079 611.584 115.9C612.398 115.721 613.024 115.453 613.464 115.095C614.034 114.639 614.424 113.939 614.636 112.995C614.847 112.051 614.953 110.472 614.953 108.259V90.5342C614.953 89.5088 614.831 88.6706 614.587 88.0195C614.343 87.3685 613.993 86.8395 613.537 86.4326C613.033 85.9932 612.414 85.6676 611.682 85.4561C610.949 85.2445 610.225 85.1224 609.509 85.0898V83.3564H621.325L631.237 109.333L639.709 87.6045C640.018 86.807 640.279 85.9769 640.49 85.1143C640.718 84.2354 640.84 83.6494 640.856 83.3564H652.16V85.0898C651.704 85.1061 651.118 85.1794 650.402 85.3096C649.702 85.4398 649.19 85.5618 648.864 85.6758C648.311 85.8711 647.937 86.1966 647.741 86.6523C647.546 87.1081 647.448 87.6045 647.448 88.1416V113.117C647.448 113.687 647.546 114.167 647.741 114.558C647.937 114.948 648.311 115.29 648.864 115.583C649.157 115.746 649.678 115.9 650.427 116.047C651.175 116.177 651.77 116.25 652.209 116.267V118ZM685.41 91.9014C685.41 93.708 685.052 95.3112 684.336 96.7109C683.636 98.0944 682.66 99.2419 681.406 100.153C680.169 101.065 678.81 101.732 677.329 102.155C675.848 102.578 674.277 102.79 672.617 102.79H668.735V113.288C668.735 113.858 668.825 114.362 669.004 114.802C669.199 115.225 669.59 115.55 670.176 115.778C670.469 115.892 670.981 115.998 671.714 116.096C672.463 116.193 673.146 116.25 673.765 116.267V118H658.896V116.267C659.287 116.234 659.849 116.177 660.581 116.096C661.33 116.014 661.851 115.909 662.144 115.778C662.632 115.567 662.982 115.257 663.193 114.851C663.421 114.444 663.535 113.923 663.535 113.288V88.2881C663.535 87.7184 663.454 87.2057 663.291 86.75C663.128 86.2943 662.746 85.9525 662.144 85.7246C661.525 85.513 660.907 85.3665 660.288 85.2852C659.686 85.1875 659.165 85.1224 658.726 85.0898V83.3564H674.546C677.769 83.3564 680.381 84.1377 682.383 85.7002C684.401 87.2464 685.41 89.3135 685.41 91.9014ZM677.988 97.8096C678.542 97.0283 678.908 96.2227 679.087 95.3926C679.266 94.5462 679.355 93.7894 679.355 93.1221C679.355 92.1943 679.242 91.2503 679.014 90.29C678.802 89.3298 678.428 88.4915 677.891 87.7754C677.321 87.0104 676.572 86.4163 675.645 85.9932C674.717 85.57 673.561 85.3584 672.178 85.3584H668.735V100.666H671.226C672.983 100.666 674.408 100.397 675.498 99.8604C676.605 99.307 677.435 98.6234 677.988 97.8096ZM720.54 107.795L719.881 118H691.121V116.267C691.609 116.234 692.26 116.169 693.074 116.071C693.888 115.957 694.417 115.843 694.661 115.729C695.182 115.485 695.54 115.168 695.735 114.777C695.947 114.387 696.053 113.89 696.053 113.288V88.3857C696.053 87.8486 695.963 87.3766 695.784 86.9697C695.605 86.5465 695.231 86.2048 694.661 85.9443C694.222 85.7327 693.628 85.5456 692.879 85.3828C692.146 85.2201 691.561 85.1224 691.121 85.0898V83.3564H717.928V91.7061H716.097C715.771 90.4691 715.063 89.1589 713.973 87.7754C712.898 86.3757 711.873 85.6107 710.896 85.4805C710.392 85.4154 709.79 85.3665 709.09 85.334C708.39 85.3014 707.592 85.2852 706.697 85.2852H701.253V99.0547H705.159C706.412 99.0547 707.324 98.9408 707.894 98.7129C708.479 98.4688 708.992 98.07 709.432 97.5166C709.79 97.0446 710.091 96.418 710.335 95.6367C710.595 94.8392 710.766 94.0905 710.848 93.3906H712.679V106.94H710.848C710.783 106.159 710.604 105.337 710.311 104.475C710.034 103.596 709.741 102.961 709.432 102.57C708.927 101.936 708.349 101.521 707.698 101.325C707.063 101.13 706.217 101.032 705.159 101.032H701.253V111.433C701.253 112.474 701.326 113.296 701.473 113.898C701.619 114.501 701.904 114.956 702.327 115.266C702.75 115.575 703.328 115.778 704.061 115.876C704.793 115.957 705.835 115.998 707.186 115.998C707.723 115.998 708.431 115.998 709.31 115.998C710.188 115.998 710.929 115.965 711.531 115.9C712.15 115.835 712.785 115.721 713.436 115.559C714.103 115.38 714.575 115.144 714.852 114.851C715.6 114.069 716.382 112.889 717.195 111.311C718.025 109.715 718.554 108.544 718.782 107.795H720.54ZM754.229 92.7559H752.545C752.398 92.1699 752.13 91.4782 751.739 90.6807C751.365 89.8669 750.942 89.1019 750.47 88.3857C749.981 87.637 749.444 86.986 748.858 86.4326C748.289 85.863 747.735 85.5374 747.198 85.4561C746.694 85.391 746.059 85.3421 745.294 85.3096C744.529 85.277 743.821 85.2607 743.17 85.2607H741.754V112.971C741.754 113.508 741.868 114.004 742.096 114.46C742.324 114.899 742.722 115.241 743.292 115.485C743.585 115.599 744.195 115.754 745.123 115.949C746.067 116.145 746.799 116.25 747.32 116.267V118H730.963V116.267C731.419 116.234 732.11 116.169 733.038 116.071C733.982 115.974 734.633 115.852 734.991 115.705C735.528 115.493 735.919 115.192 736.163 114.802C736.424 114.395 736.554 113.858 736.554 113.19V85.2607H735.138C734.633 85.2607 734.007 85.277 733.258 85.3096C732.509 85.3258 731.793 85.3747 731.109 85.4561C730.572 85.5212 730.011 85.8467 729.425 86.4326C728.855 87.0023 728.326 87.6533 727.838 88.3857C727.35 89.1182 726.918 89.8994 726.544 90.7295C726.17 91.5433 725.909 92.2188 725.763 92.7559H724.054V83.3564H754.229V92.7559ZM774.174 118H758.573V116.267C759.013 116.234 759.647 116.185 760.478 116.12C761.308 116.055 761.894 115.957 762.235 115.827C762.772 115.616 763.163 115.331 763.407 114.973C763.651 114.598 763.773 114.086 763.773 113.435V88.3369C763.773 87.7673 763.684 87.2952 763.505 86.9209C763.326 86.5303 762.903 86.2048 762.235 85.9443C761.747 85.749 761.129 85.57 760.38 85.4072C759.647 85.2282 759.045 85.1224 758.573 85.0898V83.3564H774.174V85.0898C773.669 85.1061 773.067 85.1712 772.367 85.2852C771.667 85.3828 771.057 85.513 770.536 85.6758C769.918 85.8711 769.503 86.1885 769.291 86.6279C769.079 87.0674 768.974 87.5557 768.974 88.0928V113.166C768.974 113.703 769.088 114.183 769.315 114.606C769.56 115.013 769.966 115.339 770.536 115.583C770.878 115.713 771.431 115.86 772.196 116.022C772.978 116.169 773.637 116.25 774.174 116.267V118ZM808.669 92.7559H806.984C806.838 92.1699 806.569 91.4782 806.179 90.6807C805.804 89.8669 805.381 89.1019 804.909 88.3857C804.421 87.637 803.884 86.986 803.298 86.4326C802.728 85.863 802.175 85.5374 801.638 85.4561C801.133 85.391 800.498 85.3421 799.733 85.3096C798.968 85.277 798.26 85.2607 797.609 85.2607H796.193V112.971C796.193 113.508 796.307 114.004 796.535 114.46C796.763 114.899 797.162 115.241 797.731 115.485C798.024 115.599 798.635 115.754 799.562 115.949C800.507 116.145 801.239 116.25 801.76 116.267V118H785.402V116.267C785.858 116.234 786.55 116.169 787.478 116.071C788.422 115.974 789.073 115.852 789.431 115.705C789.968 115.493 790.358 115.192 790.603 114.802C790.863 114.395 790.993 113.858 790.993 113.19V85.2607H789.577C789.073 85.2607 788.446 85.277 787.697 85.3096C786.949 85.3258 786.232 85.3747 785.549 85.4561C785.012 85.5212 784.45 85.8467 783.864 86.4326C783.295 87.0023 782.766 87.6533 782.277 88.3857C781.789 89.1182 781.358 89.8994 780.983 90.7295C780.609 91.5433 780.349 92.2188 780.202 92.7559H778.493V83.3564H808.669V92.7559ZM828.613 118H813.013V116.267C813.452 116.234 814.087 116.185 814.917 116.12C815.747 116.055 816.333 115.957 816.675 115.827C817.212 115.616 817.603 115.331 817.847 114.973C818.091 114.598 818.213 114.086 818.213 113.435V88.3369C818.213 87.7673 818.123 87.2952 817.944 86.9209C817.765 86.5303 817.342 86.2048 816.675 85.9443C816.187 85.749 815.568 85.57 814.819 85.4072C814.087 85.2282 813.485 85.1224 813.013 85.0898V83.3564H828.613V85.0898C828.109 85.1061 827.507 85.1712 826.807 85.2852C826.107 85.3828 825.496 85.513 824.976 85.6758C824.357 85.8711 823.942 86.1885 823.73 86.6279C823.519 87.0674 823.413 87.5557 823.413 88.0928V113.166C823.413 113.703 823.527 114.183 823.755 114.606C823.999 115.013 824.406 115.339 824.976 115.583C825.317 115.713 825.871 115.86 826.636 116.022C827.417 116.169 828.076 116.25 828.613 116.267V118ZM866.917 85.0898C866.494 85.1061 865.981 85.2038 865.379 85.3828C864.777 85.5456 864.28 85.749 863.89 85.9932C863.336 86.335 862.889 86.7744 862.547 87.3115C862.221 87.8486 861.896 88.4834 861.57 89.2158C860.48 91.8037 858.844 95.8402 856.663 101.325C854.482 106.794 852.236 112.499 849.925 118.439H847.898C845.555 112.141 843.292 106.07 841.111 100.227C838.93 94.3835 837.449 90.4365 836.668 88.3857C836.473 87.8812 836.212 87.4417 835.887 87.0674C835.561 86.6768 835.13 86.3105 834.593 85.9688C834.153 85.6921 833.665 85.4886 833.128 85.3584C832.591 85.2119 832.094 85.1224 831.639 85.0898V83.3564H845.97V85.0898C844.749 85.1549 843.715 85.277 842.869 85.4561C842.039 85.6351 841.624 85.9525 841.624 86.4082C841.624 86.5872 841.657 86.7988 841.722 87.043C841.787 87.2871 841.844 87.4824 841.893 87.6289C842.495 89.224 843.471 91.8281 844.822 95.4414C846.173 99.0384 848.094 104.165 850.584 110.822C851.821 107.811 853.245 104.255 854.856 100.153C856.468 96.0518 857.55 93.236 858.104 91.7061C858.641 90.2249 858.95 89.1995 859.031 88.6299C859.129 88.0602 859.178 87.5964 859.178 87.2383C859.178 86.8639 859.007 86.5547 858.665 86.3105C858.34 86.0501 857.9 85.8304 857.347 85.6514C856.81 85.4886 856.264 85.3665 855.711 85.2852C855.158 85.2038 854.596 85.1387 854.026 85.0898V83.3564H866.917V85.0898ZM885.445 118H869.845V116.267C870.284 116.234 870.919 116.185 871.749 116.12C872.579 116.055 873.165 115.957 873.507 115.827C874.044 115.616 874.435 115.331 874.679 114.973C874.923 114.598 875.045 114.086 875.045 113.435V88.3369C875.045 87.7673 874.955 87.2952 874.776 86.9209C874.597 86.5303 874.174 86.2048 873.507 85.9443C873.019 85.749 872.4 85.57 871.651 85.4072C870.919 85.2282 870.317 85.1224 869.845 85.0898V83.3564H885.445V85.0898C884.941 85.1061 884.339 85.1712 883.639 85.2852C882.939 85.3828 882.328 85.513 881.808 85.6758C881.189 85.8711 880.774 86.1885 880.562 86.6279C880.351 87.0674 880.245 87.5557 880.245 88.0928V113.166C880.245 113.703 880.359 114.183 880.587 114.606C880.831 115.013 881.238 115.339 881.808 115.583C882.149 115.713 882.703 115.86 883.468 116.022C884.249 116.169 884.908 116.25 885.445 116.267V118ZM924.97 100.886C924.97 103.832 924.416 106.387 923.31 108.552C922.203 110.716 920.762 112.491 918.988 113.874C917.198 115.257 915.188 116.291 912.958 116.975C910.728 117.658 908.425 118 906.049 118H891.693V116.267C892.165 116.267 892.776 116.226 893.524 116.145C894.289 116.047 894.794 115.941 895.038 115.827C895.526 115.616 895.876 115.306 896.088 114.899C896.316 114.476 896.43 113.972 896.43 113.386V88.3857C896.43 87.8324 896.332 87.3359 896.137 86.8965C895.958 86.457 895.591 86.1071 895.038 85.8467C894.534 85.6025 893.988 85.4235 893.402 85.3096C892.816 85.1956 892.312 85.1224 891.889 85.0898V83.3564H907.025C909.109 83.3564 911.16 83.682 913.178 84.333C915.196 84.9678 916.954 85.8304 918.451 86.9209C920.486 88.3695 922.081 90.2656 923.236 92.6094C924.392 94.9531 924.97 97.7119 924.97 100.886ZM918.988 100.861C918.988 98.5339 918.679 96.4342 918.061 94.5625C917.442 92.6745 916.539 91.0306 915.351 89.6309C914.228 88.2962 912.844 87.2464 911.2 86.4814C909.573 85.7165 907.758 85.334 905.756 85.334C905.089 85.334 904.332 85.3503 903.485 85.3828C902.655 85.3991 902.037 85.4154 901.63 85.4316V112.067C901.63 113.549 902.061 114.574 902.924 115.144C903.786 115.713 905.113 115.998 906.903 115.998C908.97 115.998 910.777 115.632 912.323 114.899C913.869 114.167 915.123 113.15 916.083 111.848C917.092 110.48 917.825 108.902 918.28 107.111C918.752 105.305 918.988 103.221 918.988 100.861ZM963.542 118H949.113V116.267C950.383 116.185 951.433 116.022 952.263 115.778C953.109 115.534 953.532 115.233 953.532 114.875C953.532 114.729 953.516 114.549 953.483 114.338C953.451 114.126 953.402 113.939 953.337 113.776L950.456 106.013H938.322C937.867 107.152 937.492 108.145 937.199 108.991C936.923 109.838 936.67 110.619 936.442 111.335C936.231 112.035 936.084 112.604 936.003 113.044C935.922 113.483 935.881 113.841 935.881 114.118C935.881 114.769 936.394 115.274 937.419 115.632C938.444 115.99 939.6 116.201 940.886 116.267V118H927.849V116.267C928.272 116.234 928.801 116.145 929.436 115.998C930.07 115.835 930.591 115.624 930.998 115.363C931.649 114.924 932.154 114.468 932.512 113.996C932.87 113.508 933.22 112.84 933.562 111.994C935.303 107.648 937.224 102.766 939.323 97.3457C941.423 91.9258 943.295 87.0999 944.938 82.8682H946.892L958.439 112.751C958.684 113.386 958.96 113.898 959.27 114.289C959.579 114.68 960.01 115.062 960.563 115.437C960.938 115.664 961.426 115.86 962.028 116.022C962.631 116.169 963.135 116.25 963.542 116.267V118ZM949.577 103.84L944.328 90.4121L939.177 103.84H949.577ZM999.966 100.886C999.966 103.832 999.412 106.387 998.306 108.552C997.199 110.716 995.758 112.491 993.984 113.874C992.194 115.257 990.184 116.291 987.954 116.975C985.724 117.658 983.421 118 981.045 118H966.689V116.267C967.161 116.267 967.772 116.226 968.521 116.145C969.285 116.047 969.79 115.941 970.034 115.827C970.522 115.616 970.872 115.306 971.084 114.899C971.312 114.476 971.426 113.972 971.426 113.386V88.3857C971.426 87.8324 971.328 87.3359 971.133 86.8965C970.954 86.457 970.588 86.1071 970.034 85.8467C969.53 85.6025 968.984 85.4235 968.398 85.3096C967.812 85.1956 967.308 85.1224 966.885 85.0898V83.3564H982.021C984.105 83.3564 986.156 83.682 988.174 84.333C990.192 84.9678 991.95 85.8304 993.447 86.9209C995.482 88.3695 997.077 90.2656 998.232 92.6094C999.388 94.9531 999.966 97.7119 999.966 100.886ZM993.984 100.861C993.984 98.5339 993.675 96.4342 993.057 94.5625C992.438 92.6745 991.535 91.0306 990.347 89.6309C989.224 88.2962 987.84 87.2464 986.196 86.4814C984.569 85.7165 982.754 85.334 980.752 85.334C980.085 85.334 979.328 85.3503 978.481 85.3828C977.651 85.3991 977.033 85.4154 976.626 85.4316V112.067C976.626 113.549 977.057 114.574 977.92 115.144C978.783 115.713 980.109 115.998 981.899 115.998C983.966 115.998 985.773 115.632 987.319 114.899C988.866 114.167 990.119 113.15 991.079 111.848C992.088 110.48 992.821 108.902 993.276 107.111C993.748 105.305 993.984 103.221 993.984 100.861ZM485.08 142.09C484.803 142.106 484.364 142.22 483.762 142.432C483.16 142.627 482.728 142.822 482.468 143.018C481.833 143.408 481.402 143.709 481.174 143.921C480.946 144.132 480.507 144.686 479.855 145.581C478.586 147.371 477.414 149.186 476.34 151.025C475.266 152.865 473.923 155.2 472.312 158.032C471.709 159.074 471.311 159.912 471.115 160.547C470.92 161.182 470.822 162.101 470.822 163.306V169.922C470.822 170.508 470.936 171.021 471.164 171.46C471.408 171.883 471.815 172.225 472.385 172.485C472.727 172.616 473.337 172.778 474.216 172.974C475.095 173.153 475.803 173.25 476.34 173.267V175H460.129V173.267C460.585 173.234 461.268 173.177 462.18 173.096C463.091 172.998 463.726 172.876 464.084 172.729C464.67 172.485 465.069 172.152 465.28 171.729C465.508 171.305 465.622 170.785 465.622 170.166V161.743C465.622 161.483 465.459 161.011 465.134 160.327C464.825 159.627 464.45 158.854 464.011 158.008C463.034 156.12 461.952 154.077 460.764 151.88C459.576 149.683 458.542 147.803 457.663 146.24C457.126 145.312 456.646 144.613 456.223 144.141C455.816 143.669 455.344 143.254 454.807 142.896C454.416 142.651 453.944 142.464 453.391 142.334C452.854 142.204 452.365 142.122 451.926 142.09V140.356H466.696V142.09C465.036 142.122 463.864 142.236 463.181 142.432C462.497 142.627 462.155 142.904 462.155 143.262C462.155 143.359 462.204 143.53 462.302 143.774C462.399 144.019 462.538 144.328 462.717 144.702C462.928 145.125 463.181 145.614 463.474 146.167C463.767 146.704 464.043 147.225 464.304 147.729C465.069 149.178 465.85 150.627 466.647 152.075C467.445 153.507 468.487 155.379 469.772 157.69C472.328 153.573 474.273 150.366 475.607 148.071C476.958 145.76 477.634 144.377 477.634 143.921C477.634 143.547 477.495 143.245 477.219 143.018C476.942 142.79 476.576 142.611 476.12 142.48C475.648 142.35 475.135 142.269 474.582 142.236C474.029 142.188 473.516 142.139 473.044 142.09V140.356H485.08V142.09ZM531.341 164.795L530.682 175H501.922V173.267C502.41 173.234 503.061 173.169 503.875 173.071C504.689 172.957 505.218 172.843 505.462 172.729C505.983 172.485 506.341 172.168 506.536 171.777C506.748 171.387 506.854 170.89 506.854 170.288V145.386C506.854 144.849 506.764 144.377 506.585 143.97C506.406 143.547 506.032 143.205 505.462 142.944C505.022 142.733 504.428 142.546 503.68 142.383C502.947 142.22 502.361 142.122 501.922 142.09V140.356H528.729V148.706H526.897C526.572 147.469 525.864 146.159 524.773 144.775C523.699 143.376 522.674 142.611 521.697 142.48C521.193 142.415 520.59 142.367 519.891 142.334C519.191 142.301 518.393 142.285 517.498 142.285H512.054V156.055H515.96C517.213 156.055 518.125 155.941 518.694 155.713C519.28 155.469 519.793 155.07 520.232 154.517C520.59 154.045 520.892 153.418 521.136 152.637C521.396 151.839 521.567 151.09 521.648 150.391H523.479V163.94H521.648C521.583 163.159 521.404 162.337 521.111 161.475C520.835 160.596 520.542 159.961 520.232 159.57C519.728 158.936 519.15 158.521 518.499 158.325C517.864 158.13 517.018 158.032 515.96 158.032H512.054V168.433C512.054 169.474 512.127 170.296 512.273 170.898C512.42 171.501 512.705 171.956 513.128 172.266C513.551 172.575 514.129 172.778 514.861 172.876C515.594 172.957 516.635 172.998 517.986 172.998C518.523 172.998 519.231 172.998 520.11 172.998C520.989 172.998 521.73 172.965 522.332 172.9C522.951 172.835 523.585 172.721 524.236 172.559C524.904 172.38 525.376 172.144 525.652 171.851C526.401 171.069 527.182 169.889 527.996 168.311C528.826 166.715 529.355 165.544 529.583 164.795H531.341ZM564.688 164.697L563.956 175H536.881V173.267C537.271 173.234 537.833 173.177 538.565 173.096C539.314 173.014 539.835 172.909 540.128 172.778C540.616 172.567 540.966 172.257 541.178 171.851C541.406 171.444 541.52 170.923 541.52 170.288V145.483C541.52 144.93 541.422 144.442 541.227 144.019C541.048 143.595 540.681 143.254 540.128 142.993C539.754 142.798 539.225 142.611 538.541 142.432C537.874 142.236 537.32 142.122 536.881 142.09V140.356H551.505V142.09C551.049 142.106 550.455 142.188 549.723 142.334C549.007 142.48 548.486 142.611 548.16 142.725C547.607 142.92 547.224 143.254 547.013 143.726C546.817 144.198 546.72 144.702 546.72 145.239V168.506C546.72 169.58 546.769 170.418 546.866 171.021C546.98 171.606 547.232 172.062 547.623 172.388C547.997 172.681 548.551 172.876 549.283 172.974C550.032 173.055 551.074 173.096 552.408 173.096C553.01 173.096 553.637 173.079 554.288 173.047C554.939 173.014 555.558 172.949 556.144 172.852C556.713 172.754 557.234 172.624 557.706 172.461C558.194 172.282 558.552 172.062 558.78 171.802C559.448 171.053 560.221 169.922 561.1 168.408C561.995 166.878 562.613 165.641 562.955 164.697H564.688ZM616.296 157.886C616.296 160.832 615.743 163.387 614.636 165.552C613.529 167.716 612.089 169.491 610.314 170.874C608.524 172.257 606.514 173.291 604.284 173.975C602.054 174.658 599.751 175 597.375 175H583.02V173.267C583.492 173.267 584.102 173.226 584.851 173.145C585.616 173.047 586.12 172.941 586.364 172.827C586.853 172.616 587.202 172.306 587.414 171.899C587.642 171.476 587.756 170.972 587.756 170.386V145.386C587.756 144.832 587.658 144.336 587.463 143.896C587.284 143.457 586.918 143.107 586.364 142.847C585.86 142.603 585.314 142.424 584.729 142.31C584.143 142.196 583.638 142.122 583.215 142.09V140.356H598.352C600.435 140.356 602.486 140.682 604.504 141.333C606.522 141.968 608.28 142.83 609.777 143.921C611.812 145.369 613.407 147.266 614.562 149.609C615.718 151.953 616.296 154.712 616.296 157.886ZM610.314 157.861C610.314 155.534 610.005 153.434 609.387 151.562C608.768 149.674 607.865 148.031 606.677 146.631C605.554 145.296 604.17 144.246 602.526 143.481C600.899 142.716 599.084 142.334 597.082 142.334C596.415 142.334 595.658 142.35 594.812 142.383C593.981 142.399 593.363 142.415 592.956 142.432V169.067C592.956 170.549 593.387 171.574 594.25 172.144C595.113 172.713 596.439 172.998 598.229 172.998C600.297 172.998 602.103 172.632 603.649 171.899C605.196 171.167 606.449 170.15 607.409 168.848C608.418 167.48 609.151 165.902 609.606 164.111C610.078 162.305 610.314 160.221 610.314 157.861ZM651.694 164.795L651.035 175H622.275V173.267C622.764 173.234 623.415 173.169 624.229 173.071C625.042 172.957 625.571 172.843 625.815 172.729C626.336 172.485 626.694 172.168 626.89 171.777C627.101 171.387 627.207 170.89 627.207 170.288V145.386C627.207 144.849 627.118 144.377 626.938 143.97C626.759 143.547 626.385 143.205 625.815 142.944C625.376 142.733 624.782 142.546 624.033 142.383C623.301 142.22 622.715 142.122 622.275 142.09V140.356H649.082V148.706H647.251C646.925 147.469 646.217 146.159 645.127 144.775C644.053 143.376 643.027 142.611 642.051 142.48C641.546 142.415 640.944 142.367 640.244 142.334C639.544 142.301 638.747 142.285 637.852 142.285H632.407V156.055H636.313C637.567 156.055 638.478 155.941 639.048 155.713C639.634 155.469 640.146 155.07 640.586 154.517C640.944 154.045 641.245 153.418 641.489 152.637C641.75 151.839 641.921 151.09 642.002 150.391H643.833V163.94H642.002C641.937 163.159 641.758 162.337 641.465 161.475C641.188 160.596 640.895 159.961 640.586 159.57C640.081 158.936 639.504 158.521 638.853 158.325C638.218 158.13 637.371 158.032 636.313 158.032H632.407V168.433C632.407 169.474 632.48 170.296 632.627 170.898C632.773 171.501 633.058 171.956 633.481 172.266C633.905 172.575 634.482 172.778 635.215 172.876C635.947 172.957 636.989 172.998 638.34 172.998C638.877 172.998 639.585 172.998 640.464 172.998C641.343 172.998 642.083 172.965 642.686 172.9C643.304 172.835 643.939 172.721 644.59 172.559C645.257 172.38 645.729 172.144 646.006 171.851C646.755 171.069 647.536 169.889 648.35 168.311C649.18 166.715 649.709 165.544 649.937 164.795H651.694ZM678.792 159.106C679.524 159.92 680.062 160.815 680.403 161.792C680.761 162.752 680.94 163.875 680.94 165.161C680.94 168.221 679.809 170.744 677.547 172.729C675.285 174.715 672.477 175.708 669.124 175.708C667.578 175.708 666.032 175.472 664.485 175C662.939 174.512 661.604 173.926 660.481 173.242L659.432 175.024H657.479L657.137 163.159H659.114C659.521 164.624 659.993 165.951 660.53 167.139C661.084 168.311 661.808 169.409 662.703 170.435C663.549 171.395 664.534 172.16 665.657 172.729C666.797 173.299 668.115 173.584 669.612 173.584C670.735 173.584 671.712 173.438 672.542 173.145C673.388 172.852 674.072 172.437 674.593 171.899C675.114 171.362 675.496 170.736 675.74 170.02C676.001 169.287 676.131 168.449 676.131 167.505C676.131 166.121 675.74 164.836 674.959 163.647C674.178 162.443 673.014 161.532 671.468 160.913C670.41 160.49 669.197 160.026 667.83 159.521C666.463 159.001 665.283 158.512 664.29 158.057C662.337 157.178 660.815 156.03 659.725 154.614C658.65 153.182 658.113 151.318 658.113 149.023C658.113 147.705 658.382 146.476 658.919 145.337C659.456 144.198 660.221 143.18 661.214 142.285C662.158 141.439 663.273 140.78 664.559 140.308C665.844 139.819 667.187 139.575 668.587 139.575C670.182 139.575 671.606 139.819 672.859 140.308C674.129 140.796 675.285 141.366 676.326 142.017L677.327 140.356H679.28L679.476 151.855H677.498C677.14 150.537 676.733 149.276 676.277 148.071C675.838 146.867 675.26 145.776 674.544 144.8C673.844 143.856 672.99 143.107 671.98 142.554C670.971 141.984 669.734 141.699 668.27 141.699C666.723 141.699 665.405 142.196 664.314 143.188C663.224 144.181 662.679 145.394 662.679 146.826C662.679 148.324 663.029 149.569 663.729 150.562C664.428 151.538 665.446 152.344 666.78 152.979C667.968 153.548 669.132 154.045 670.271 154.468C671.427 154.875 672.542 155.314 673.616 155.786C674.593 156.209 675.529 156.689 676.424 157.227C677.335 157.764 678.125 158.39 678.792 159.106ZM719.61 175H705.182V173.267C706.451 173.185 707.501 173.022 708.331 172.778C709.177 172.534 709.601 172.233 709.601 171.875C709.601 171.729 709.584 171.549 709.552 171.338C709.519 171.126 709.47 170.939 709.405 170.776L706.524 163.013H694.391C693.935 164.152 693.561 165.145 693.268 165.991C692.991 166.838 692.739 167.619 692.511 168.335C692.299 169.035 692.153 169.604 692.071 170.044C691.99 170.483 691.949 170.841 691.949 171.118C691.949 171.769 692.462 172.274 693.487 172.632C694.513 172.99 695.668 173.201 696.954 173.267V175H683.917V173.267C684.34 173.234 684.869 173.145 685.504 172.998C686.139 172.835 686.66 172.624 687.066 172.363C687.717 171.924 688.222 171.468 688.58 170.996C688.938 170.508 689.288 169.84 689.63 168.994C691.371 164.648 693.292 159.766 695.392 154.346C697.491 148.926 699.363 144.1 701.007 139.868H702.96L714.508 169.751C714.752 170.386 715.029 170.898 715.338 171.289C715.647 171.68 716.078 172.062 716.632 172.437C717.006 172.664 717.494 172.86 718.097 173.022C718.699 173.169 719.203 173.25 719.61 173.267V175ZM705.646 160.84L700.396 147.412L695.245 160.84H705.646ZM756.596 175H747.27C745.202 171.761 743.331 168.962 741.654 166.602C739.994 164.242 738.188 161.808 736.234 159.302H732.694V170.288C732.694 170.858 732.784 171.362 732.963 171.802C733.142 172.225 733.524 172.55 734.11 172.778C734.403 172.892 734.916 172.998 735.648 173.096C736.381 173.193 736.999 173.25 737.504 173.267V175H722.855V173.267C723.246 173.234 723.808 173.177 724.54 173.096C725.289 173.014 725.81 172.909 726.103 172.778C726.591 172.567 726.941 172.257 727.152 171.851C727.38 171.444 727.494 170.923 727.494 170.288V145.239C727.494 144.67 727.413 144.165 727.25 143.726C727.087 143.286 726.705 142.952 726.103 142.725C725.696 142.578 725.167 142.448 724.516 142.334C723.865 142.204 723.311 142.122 722.855 142.09V140.356H738.847C740.312 140.356 741.687 140.511 742.973 140.82C744.258 141.113 745.422 141.593 746.464 142.261C747.473 142.912 748.279 143.766 748.881 144.824C749.483 145.866 749.784 147.127 749.784 148.608C749.784 149.943 749.581 151.123 749.174 152.148C748.767 153.174 748.165 154.061 747.367 154.81C746.635 155.509 745.756 156.12 744.73 156.641C743.705 157.145 742.574 157.576 741.337 157.935C743.046 160.197 744.462 162.101 745.585 163.647C746.724 165.194 748.116 167.074 749.76 169.287C750.476 170.264 751.119 170.988 751.688 171.46C752.274 171.916 752.852 172.29 753.422 172.583C753.845 172.795 754.374 172.957 755.009 173.071C755.644 173.185 756.173 173.25 756.596 173.267V175ZM743.754 149.17C743.754 147.07 743.152 145.41 741.947 144.189C740.743 142.952 739.042 142.334 736.845 142.334H732.694V157.202H735.893C738.139 157.202 740.01 156.486 741.508 155.054C743.005 153.605 743.754 151.644 743.754 149.17ZM793.703 175H784.377C782.31 171.761 780.438 168.962 778.762 166.602C777.102 164.242 775.295 161.808 773.342 159.302H769.802V170.288C769.802 170.858 769.891 171.362 770.07 171.802C770.249 172.225 770.632 172.55 771.218 172.778C771.511 172.892 772.023 172.998 772.756 173.096C773.488 173.193 774.107 173.25 774.611 173.267V175H759.963V173.267C760.354 173.234 760.915 173.177 761.647 173.096C762.396 173.014 762.917 172.909 763.21 172.778C763.698 172.567 764.048 172.257 764.26 171.851C764.488 171.444 764.602 170.923 764.602 170.288V145.239C764.602 144.67 764.52 144.165 764.357 143.726C764.195 143.286 763.812 142.952 763.21 142.725C762.803 142.578 762.274 142.448 761.623 142.334C760.972 142.204 760.419 142.122 759.963 142.09V140.356H775.954C777.419 140.356 778.794 140.511 780.08 140.82C781.366 141.113 782.53 141.593 783.571 142.261C784.58 142.912 785.386 143.766 785.988 144.824C786.59 145.866 786.892 147.127 786.892 148.608C786.892 149.943 786.688 151.123 786.281 152.148C785.874 153.174 785.272 154.061 784.475 154.81C783.742 155.509 782.863 156.12 781.838 156.641C780.812 157.145 779.681 157.576 778.444 157.935C780.153 160.197 781.569 162.101 782.692 163.647C783.832 165.194 785.223 167.074 786.867 169.287C787.583 170.264 788.226 170.988 788.796 171.46C789.382 171.916 789.96 172.29 790.529 172.583C790.952 172.795 791.481 172.957 792.116 173.071C792.751 173.185 793.28 173.25 793.703 173.267V175ZM780.861 149.17C780.861 147.07 780.259 145.41 779.055 144.189C777.85 142.952 776.149 142.334 773.952 142.334H769.802V157.202H773C775.246 157.202 777.118 156.486 778.615 155.054C780.113 153.605 780.861 151.644 780.861 149.17ZM825.049 144.458C826.579 146.053 827.775 147.982 828.638 150.244C829.5 152.49 829.932 154.98 829.932 157.715C829.932 160.465 829.492 162.964 828.613 165.21C827.734 167.456 826.514 169.368 824.951 170.947C823.438 172.51 821.68 173.714 819.678 174.561C817.676 175.407 815.544 175.83 813.281 175.83C810.872 175.83 808.643 175.382 806.592 174.487C804.557 173.576 802.808 172.314 801.343 170.703C799.878 169.124 798.722 167.212 797.876 164.966C797.046 162.703 796.631 160.286 796.631 157.715C796.631 154.899 797.07 152.393 797.949 150.195C798.828 147.982 800.041 146.069 801.587 144.458C803.117 142.863 804.891 141.642 806.909 140.796C808.944 139.95 811.068 139.526 813.281 139.526C815.576 139.526 817.741 139.958 819.775 140.82C821.81 141.683 823.568 142.896 825.049 144.458ZM821.411 169.019C822.323 167.537 822.982 165.861 823.389 163.989C823.812 162.118 824.023 160.026 824.023 157.715C824.023 155.339 823.787 153.158 823.315 151.172C822.86 149.186 822.184 147.493 821.289 146.094C820.394 144.71 819.271 143.636 817.92 142.871C816.569 142.09 815.023 141.699 813.281 141.699C811.328 141.699 809.668 142.147 808.301 143.042C806.934 143.937 805.819 145.133 804.956 146.631C804.142 148.063 803.532 149.74 803.125 151.66C802.734 153.581 802.539 155.599 802.539 157.715C802.539 160.059 802.751 162.174 803.174 164.062C803.597 165.951 804.264 167.627 805.176 169.092C806.055 170.524 807.161 171.647 808.496 172.461C809.831 173.258 811.426 173.657 813.281 173.657C815.023 173.657 816.593 173.25 817.993 172.437C819.393 171.623 820.532 170.483 821.411 169.019ZM864.085 164.697L863.353 175H836.277V173.267C836.668 173.234 837.229 173.177 837.962 173.096C838.711 173.014 839.231 172.909 839.524 172.778C840.013 172.567 840.363 172.257 840.574 171.851C840.802 171.444 840.916 170.923 840.916 170.288V145.483C840.916 144.93 840.818 144.442 840.623 144.019C840.444 143.595 840.078 143.254 839.524 142.993C839.15 142.798 838.621 142.611 837.938 142.432C837.27 142.236 836.717 142.122 836.277 142.09V140.356H850.901V142.09C850.446 142.106 849.852 142.188 849.119 142.334C848.403 142.48 847.882 142.611 847.557 142.725C847.003 142.92 846.621 143.254 846.409 143.726C846.214 144.198 846.116 144.702 846.116 145.239V168.506C846.116 169.58 846.165 170.418 846.263 171.021C846.377 171.606 846.629 172.062 847.02 172.388C847.394 172.681 847.947 172.876 848.68 172.974C849.428 173.055 850.47 173.096 851.805 173.096C852.407 173.096 853.034 173.079 853.685 173.047C854.336 173.014 854.954 172.949 855.54 172.852C856.11 172.754 856.631 172.624 857.103 172.461C857.591 172.282 857.949 172.062 858.177 171.802C858.844 171.053 859.617 169.922 860.496 168.408C861.391 166.878 862.01 165.641 862.352 164.697H864.085ZM896.261 164.697L895.528 175H868.453V173.267C868.844 173.234 869.405 173.177 870.138 173.096C870.886 173.014 871.407 172.909 871.7 172.778C872.188 172.567 872.538 172.257 872.75 171.851C872.978 171.444 873.092 170.923 873.092 170.288V145.483C873.092 144.93 872.994 144.442 872.799 144.019C872.62 143.595 872.254 143.254 871.7 142.993C871.326 142.798 870.797 142.611 870.113 142.432C869.446 142.236 868.893 142.122 868.453 142.09V140.356H883.077V142.09C882.621 142.106 882.027 142.188 881.295 142.334C880.579 142.48 880.058 142.611 879.732 142.725C879.179 142.92 878.797 143.254 878.585 143.726C878.39 144.198 878.292 144.702 878.292 145.239V168.506C878.292 169.58 878.341 170.418 878.438 171.021C878.552 171.606 878.805 172.062 879.195 172.388C879.57 172.681 880.123 172.876 880.855 172.974C881.604 173.055 882.646 173.096 883.98 173.096C884.583 173.096 885.209 173.079 885.86 173.047C886.511 173.014 887.13 172.949 887.716 172.852C888.285 172.754 888.806 172.624 889.278 172.461C889.767 172.282 890.125 172.062 890.353 171.802C891.02 171.053 891.793 169.922 892.672 168.408C893.567 166.878 894.186 165.641 894.527 164.697H896.261ZM928.607 144.458C930.137 146.053 931.334 147.982 932.196 150.244C933.059 152.49 933.49 154.98 933.49 157.715C933.49 160.465 933.051 162.964 932.172 165.21C931.293 167.456 930.072 169.368 928.51 170.947C926.996 172.51 925.238 173.714 923.236 174.561C921.234 175.407 919.102 175.83 916.84 175.83C914.431 175.83 912.201 175.382 910.15 174.487C908.116 173.576 906.366 172.314 904.901 170.703C903.437 169.124 902.281 167.212 901.435 164.966C900.604 162.703 900.189 160.286 900.189 157.715C900.189 154.899 900.629 152.393 901.508 150.195C902.387 147.982 903.599 146.069 905.146 144.458C906.675 142.863 908.45 141.642 910.468 140.796C912.502 139.95 914.626 139.526 916.84 139.526C919.135 139.526 921.299 139.958 923.334 140.82C925.368 141.683 927.126 142.896 928.607 144.458ZM924.97 169.019C925.881 167.537 926.54 165.861 926.947 163.989C927.37 162.118 927.582 160.026 927.582 157.715C927.582 155.339 927.346 153.158 926.874 151.172C926.418 149.186 925.743 147.493 924.848 146.094C923.952 144.71 922.829 143.636 921.479 142.871C920.128 142.09 918.581 141.699 916.84 141.699C914.887 141.699 913.227 142.147 911.859 143.042C910.492 143.937 909.377 145.133 908.515 146.631C907.701 148.063 907.09 149.74 906.684 151.66C906.293 153.581 906.098 155.599 906.098 157.715C906.098 160.059 906.309 162.174 906.732 164.062C907.156 165.951 907.823 167.627 908.734 169.092C909.613 170.524 910.72 171.647 912.055 172.461C913.389 173.258 914.984 173.657 916.84 173.657C918.581 173.657 920.152 173.25 921.552 172.437C922.951 171.623 924.091 170.483 924.97 169.019Z" fill="#910121"/>
</svg>
