<svg width="458" height="90" viewBox="0 0 458 90" fill="none" xmlns="http://www.w3.org/2000/svg">
<rect width="76.1538" height="90" fill="#910121"/>
<path d="M41.8268 85.4001C37.2475 85.4001 32.8485 84.4986 28.6297 82.6958C24.447 80.8929 20.7331 78.2967 17.4879 74.9073C14.2788 71.5179 11.7187 67.3893 9.80762 62.5215C7.89656 57.6176 6.94103 52.1008 6.94103 45.971C6.94103 39.8412 7.87853 34.2883 9.75353 29.3124C11.6285 24.3003 14.2247 19.9914 17.542 16.3857C20.8232 12.816 24.6994 10.0575 29.1706 8.11043C33.6418 6.16331 38.4194 5.18976 43.5035 5.18976C47.2896 5.18976 50.7151 5.65851 53.78 6.59601C56.8449 7.53351 59.7655 8.84961 62.542 10.5443L64.7595 6.86644H69.0865L69.5732 34.2342H65.1381C64.5612 31.566 63.6958 28.6813 62.542 25.5804C61.3881 22.4434 60.036 19.7931 58.4855 17.6297C56.7547 15.1777 54.6994 13.2667 52.3196 11.8965C49.9398 10.4902 47.2175 9.78711 44.1526 9.78711C40.655 9.78711 37.3918 10.5624 34.3629 12.1128C31.3701 13.6633 28.774 15.953 26.5744 18.9818C24.4831 21.9025 22.8425 25.6164 21.6526 30.1237C20.4627 34.6309 19.8677 39.6609 19.8677 45.2138C19.8677 50.1176 20.4807 54.6249 21.7067 58.7354C22.9687 62.8099 24.7535 66.3977 27.0612 69.4986C29.3689 72.5636 32.0913 74.9614 35.2283 76.6922C38.4014 78.4229 41.935 79.2883 45.8293 79.2883C48.7499 79.2883 51.4362 78.8376 53.8881 77.9361C56.3401 76.9986 58.4675 75.7727 60.2704 74.2583C62.0732 72.6717 63.6598 70.8688 65.03 68.8496C66.4002 66.8304 67.518 64.6309 68.3833 62.2511L72.4398 64.1982C69.3389 71.8063 65.2283 77.2511 60.1081 80.5323C54.9879 83.7775 48.8942 85.4001 41.8268 85.4001Z" fill="white"/>
<path d="M113.005 85.4001C108.425 85.4001 104.026 84.4986 99.8076 82.6958C95.6249 80.8929 91.911 78.2967 88.6658 74.9073C85.4567 71.5179 82.8966 67.3893 80.9855 62.5215C79.0744 57.6176 78.1189 52.1008 78.1189 45.971C78.1189 39.8412 79.0564 34.2883 80.9314 29.3124C82.8064 24.3003 85.4026 19.9914 88.7199 16.3857C92.0011 12.816 95.8773 10.0575 100.348 8.11043C104.82 6.16331 109.597 5.18976 114.681 5.18976C118.467 5.18976 121.893 5.65851 124.958 6.59601C128.023 7.53351 130.943 8.84961 133.72 10.5443L135.937 6.86644H140.264L140.751 34.2342H136.316C135.739 31.566 134.874 28.6813 133.72 25.5804C132.566 22.4434 131.214 19.7931 129.663 17.6297C127.933 15.1777 125.877 13.2667 123.498 11.8965C121.118 10.4902 118.395 9.78711 115.33 9.78711C111.833 9.78711 108.57 10.5624 105.541 12.1128C102.548 13.6633 99.9518 15.953 97.7523 18.9818C95.661 21.9025 94.0204 25.6164 92.8304 30.1237C91.6405 34.6309 91.0456 39.6609 91.0456 45.2138C91.0456 50.1176 91.6586 54.6249 92.8845 58.7354C94.1466 62.8099 95.9314 66.3977 98.2391 69.4986C100.547 72.5636 103.269 74.9614 106.406 76.6922C109.579 78.4229 113.113 79.2883 117.007 79.2883C119.928 79.2883 122.614 78.8376 125.066 77.9361C127.518 76.9986 129.645 75.7727 131.448 74.2583C133.251 72.6717 134.838 70.8688 136.208 68.8496C137.578 66.8304 138.696 64.6309 139.561 62.2511L143.618 64.1982C140.517 71.8063 136.406 77.2511 131.286 80.5323C126.166 83.7775 120.072 85.4001 113.005 85.4001ZM223.882 45.7006C223.882 52.227 222.656 57.8881 220.204 62.6837C217.752 67.4794 214.561 71.4097 210.631 74.4746C206.665 77.5395 202.211 79.8292 197.272 81.3436C192.332 82.858 187.229 83.6152 181.965 83.6152H150.162V79.7751C151.208 79.7751 152.56 79.6849 154.219 79.5047C155.913 79.2883 157.031 79.0539 157.572 78.8015C158.654 78.3328 159.429 77.6477 159.898 76.7462C160.403 75.8087 160.655 74.691 160.655 73.3929V18.0083C160.655 16.7823 160.439 15.6825 160.006 14.709C159.609 13.7354 158.798 12.9602 157.572 12.3833C156.454 11.8424 155.246 11.4458 153.948 11.1934C152.65 10.941 151.532 10.7787 150.595 10.7066V6.86644H184.129C188.744 6.86644 193.287 7.58759 197.758 9.0299C202.229 10.4362 206.124 12.3472 209.441 14.7631C213.948 17.9722 217.482 22.1729 220.042 27.3652C222.602 32.5575 223.882 38.6693 223.882 45.7006ZM210.631 45.6465C210.631 40.4902 209.946 35.8388 208.576 31.6922C207.205 27.5095 205.204 23.8676 202.572 20.7667C200.084 17.8099 197.019 15.4842 193.377 13.7895C189.772 12.0948 185.751 11.2474 181.316 11.2474C179.838 11.2474 178.161 11.2835 176.286 11.3556C174.447 11.3917 173.077 11.4277 172.175 11.4638V70.4722C172.175 73.7535 173.131 76.0251 175.042 77.2871C176.953 78.5491 179.892 79.1801 183.858 79.1801C188.437 79.1801 192.44 78.3688 195.865 76.7462C199.291 75.1236 202.067 72.87 204.195 69.9854C206.43 66.9566 208.053 63.459 209.062 59.4926C210.108 55.4902 210.631 50.8749 210.631 45.6465Z" fill="#910121"/>
<path d="M245.061 28.3223C244.234 28.3223 243.439 28.1595 242.678 27.834C241.923 27.5085 241.252 27.0397 240.666 26.4277C240.087 25.8158 239.624 25.0703 239.279 24.1914C238.934 23.306 238.762 22.3099 238.762 21.2031C238.762 20.0964 238.931 19.0938 239.27 18.1953C239.608 17.2904 240.077 16.5124 240.676 15.8613C241.268 15.2168 241.968 14.7188 242.775 14.3672C243.583 14.0156 244.445 13.8398 245.363 13.8398C246.047 13.8398 246.665 13.9245 247.219 14.0938C247.772 14.263 248.299 14.5007 248.801 14.8066L249.201 14.1426H249.982L250.07 19.084H249.27C249.165 18.6022 249.009 18.0814 248.801 17.5215C248.592 16.9551 248.348 16.4766 248.068 16.0859C247.756 15.6432 247.385 15.2982 246.955 15.0508C246.525 14.7969 246.034 14.6699 245.48 14.6699C244.849 14.6699 244.26 14.8099 243.713 15.0898C243.173 15.3698 242.704 15.7832 242.307 16.3301C241.929 16.8574 241.633 17.528 241.418 18.3418C241.203 19.1556 241.096 20.0638 241.096 21.0664C241.096 21.9518 241.206 22.7656 241.428 23.5078C241.656 24.2435 241.978 24.8913 242.395 25.4512C242.811 26.0046 243.303 26.4375 243.869 26.75C244.442 27.0625 245.08 27.2188 245.783 27.2188C246.311 27.2188 246.796 27.1374 247.238 26.9746C247.681 26.8053 248.065 26.584 248.391 26.3105C248.716 26.0241 249.003 25.6986 249.25 25.334C249.497 24.9694 249.699 24.5723 249.855 24.1426L250.588 24.4941C250.028 25.8678 249.286 26.8509 248.361 27.4434C247.437 28.0293 246.337 28.3223 245.061 28.3223ZM264.259 23.918L263.995 28H252.491V27.3066C252.687 27.2936 252.947 27.2676 253.273 27.2285C253.598 27.1829 253.81 27.1374 253.907 27.0918C254.116 26.9941 254.259 26.8672 254.337 26.7109C254.422 26.5547 254.464 26.3561 254.464 26.1152V16.1543C254.464 15.9395 254.428 15.7507 254.357 15.5879C254.285 15.4186 254.135 15.2819 253.907 15.1777C253.732 15.0931 253.494 15.0182 253.195 14.9531C252.902 14.888 252.667 14.849 252.491 14.8359V14.1426H263.214V17.4824H262.482C262.351 16.9876 262.068 16.4635 261.632 15.9102C261.202 15.3503 260.792 15.0443 260.402 14.9922C260.2 14.9661 259.959 14.9466 259.679 14.9336C259.399 14.9206 259.08 14.9141 258.722 14.9141H256.544V20.4219H258.107C258.608 20.4219 258.973 20.3763 259.2 20.2852C259.435 20.1875 259.64 20.028 259.816 19.8066C259.959 19.6178 260.079 19.3672 260.177 19.0547C260.281 18.7357 260.349 18.4362 260.382 18.1562H261.114V23.5762H260.382C260.356 23.2637 260.284 22.9349 260.167 22.5898C260.057 22.2383 259.939 21.9844 259.816 21.8281C259.614 21.5742 259.383 21.4082 259.122 21.3301C258.868 21.252 258.53 21.2129 258.107 21.2129H256.544V25.373C256.544 25.7897 256.573 26.1185 256.632 26.3594C256.691 26.6003 256.805 26.7826 256.974 26.9062C257.143 27.0299 257.374 27.1113 257.667 27.1504C257.96 27.1829 258.377 27.1992 258.917 27.1992C259.132 27.1992 259.415 27.1992 259.767 27.1992C260.118 27.1992 260.415 27.1862 260.655 27.1602C260.903 27.1341 261.157 27.0885 261.417 27.0234C261.684 26.9518 261.873 26.8574 261.984 26.7402C262.283 26.4277 262.596 25.9557 262.921 25.3242C263.253 24.6862 263.465 24.2174 263.556 23.918H264.259ZM280.694 14.8359C280.511 14.8424 280.232 14.8945 279.854 14.9922C279.476 15.0898 279.206 15.1908 279.043 15.2949C278.809 15.4577 278.649 15.7702 278.565 16.2324C278.487 16.6947 278.448 17.2806 278.448 17.9902V28.1367H277.598L269.2 16.7988V23.9473C269.2 24.748 269.248 25.3633 269.346 25.793C269.45 26.2227 269.607 26.5286 269.815 26.7109C269.965 26.8542 270.274 26.9876 270.743 27.1113C271.211 27.235 271.521 27.3001 271.67 27.3066V28H265.987V27.3066C266.163 27.2936 266.459 27.2318 266.875 27.1211C267.292 27.0039 267.552 26.8997 267.657 26.8086C267.885 26.6263 268.041 26.3496 268.125 25.9785C268.21 25.6009 268.252 24.9596 268.252 24.0547V17.2285C268.252 16.929 268.2 16.6296 268.096 16.3301C267.992 16.0306 267.852 15.7995 267.676 15.6367C267.442 15.4219 267.123 15.2396 266.719 15.0898C266.322 14.9336 266 14.849 265.752 14.8359V14.1426H269.707L277.5 24.709V18.1172C277.5 17.3099 277.448 16.6914 277.344 16.2617C277.24 15.8255 277.09 15.5358 276.895 15.3926C276.713 15.2689 276.413 15.1484 275.996 15.0312C275.586 14.9141 275.274 14.849 275.059 14.8359V14.1426H280.694V14.8359ZM293.886 17.9023H293.213C293.154 17.668 293.046 17.3913 292.89 17.0723C292.74 16.7467 292.571 16.4408 292.382 16.1543C292.187 15.8548 291.972 15.5944 291.738 15.373C291.51 15.1452 291.289 15.015 291.074 14.9824C290.872 14.9564 290.618 14.9368 290.312 14.9238C290.006 14.9108 289.723 14.9043 289.463 14.9043H288.896V25.9883C288.896 26.2031 288.942 26.4017 289.033 26.584C289.124 26.7598 289.283 26.8965 289.511 26.9941C289.629 27.0397 289.873 27.1016 290.244 27.1797C290.621 27.2578 290.914 27.3001 291.123 27.3066V28H284.58V27.3066C284.762 27.2936 285.039 27.2676 285.41 27.2285C285.787 27.1895 286.048 27.1406 286.191 27.082C286.406 26.9974 286.562 26.877 286.66 26.7207C286.764 26.5579 286.816 26.3431 286.816 26.0762V14.9043H286.25C286.048 14.9043 285.797 14.9108 285.498 14.9238C285.198 14.9303 284.912 14.9499 284.638 14.9824C284.423 15.0085 284.199 15.1387 283.964 15.373C283.737 15.6009 283.525 15.8613 283.33 16.1543C283.134 16.4473 282.962 16.7598 282.812 17.0918C282.662 17.4173 282.558 17.6875 282.5 17.9023H281.816V14.1426H293.886V17.9023ZM309.305 28H305.575C304.748 26.7044 303.999 25.5846 303.329 24.6406C302.665 23.6966 301.942 22.7233 301.161 21.7207H299.745V26.1152C299.745 26.3431 299.781 26.5449 299.852 26.7207C299.924 26.89 300.077 27.0202 300.311 27.1113C300.429 27.1569 300.634 27.1992 300.927 27.2383C301.22 27.2773 301.467 27.3001 301.669 27.3066V28H295.809V27.3066C295.966 27.2936 296.19 27.2708 296.483 27.2383C296.783 27.2057 296.991 27.1634 297.108 27.1113C297.304 27.0267 297.443 26.903 297.528 26.7402C297.619 26.5775 297.665 26.3691 297.665 26.1152V16.0957C297.665 15.8678 297.632 15.666 297.567 15.4902C297.502 15.3145 297.349 15.181 297.108 15.0898C296.945 15.0312 296.734 14.9792 296.473 14.9336C296.213 14.8815 295.992 14.849 295.809 14.8359V14.1426H302.206C302.792 14.1426 303.342 14.2044 303.856 14.3281C304.371 14.4453 304.836 14.6374 305.253 14.9043C305.656 15.1647 305.979 15.5065 306.22 15.9297C306.46 16.3464 306.581 16.8509 306.581 17.4434C306.581 17.9772 306.499 18.4492 306.337 18.8594C306.174 19.2695 305.933 19.6243 305.614 19.9238C305.321 20.2038 304.97 20.4479 304.559 20.6562C304.149 20.8581 303.697 21.0306 303.202 21.1738C303.886 22.0788 304.452 22.8405 304.901 23.459C305.357 24.0775 305.914 24.8294 306.571 25.7148C306.858 26.1055 307.115 26.3952 307.343 26.584C307.577 26.7663 307.808 26.916 308.036 27.0332C308.205 27.1178 308.417 27.1829 308.671 27.2285C308.925 27.2741 309.136 27.3001 309.305 27.3066V28ZM304.169 17.668C304.169 16.8281 303.928 16.1641 303.446 15.6758C302.964 15.181 302.284 14.9336 301.405 14.9336H299.745V20.8809H301.024C301.923 20.8809 302.671 20.5944 303.27 20.0215C303.869 19.4421 304.169 18.6576 304.169 17.668ZM321.844 15.7832C322.456 16.4212 322.934 17.1927 323.279 18.0977C323.624 18.9961 323.797 19.9922 323.797 21.0859C323.797 22.1862 323.621 23.1855 323.27 24.084C322.918 24.9824 322.43 25.7474 321.805 26.3789C321.199 27.0039 320.496 27.4857 319.695 27.8242C318.895 28.1628 318.042 28.332 317.137 28.332C316.173 28.332 315.281 28.153 314.461 27.7949C313.647 27.4303 312.947 26.9258 312.361 26.2812C311.775 25.6497 311.313 24.8848 310.975 23.9863C310.643 23.0814 310.477 22.1146 310.477 21.0859C310.477 19.9596 310.652 18.957 311.004 18.0781C311.355 17.1927 311.84 16.4277 312.459 15.7832C313.071 15.1452 313.781 14.6569 314.588 14.3184C315.402 13.9798 316.251 13.8105 317.137 13.8105C318.055 13.8105 318.921 13.9831 319.734 14.3281C320.548 14.6732 321.251 15.1582 321.844 15.7832ZM320.389 25.6074C320.753 25.015 321.017 24.3444 321.18 23.5957C321.349 22.847 321.434 22.0104 321.434 21.0859C321.434 20.1354 321.339 19.263 321.15 18.4688C320.968 17.6745 320.698 16.9974 320.34 16.4375C319.982 15.8841 319.533 15.4544 318.992 15.1484C318.452 14.8359 317.833 14.6797 317.137 14.6797C316.355 14.6797 315.691 14.8587 315.145 15.2168C314.598 15.5749 314.152 16.0534 313.807 16.6523C313.481 17.2253 313.237 17.8958 313.074 18.6641C312.918 19.4323 312.84 20.2396 312.84 21.0859C312.84 22.0234 312.924 22.8698 313.094 23.625C313.263 24.3802 313.53 25.0508 313.895 25.6367C314.246 26.2096 314.689 26.6589 315.223 26.9844C315.757 27.3034 316.395 27.4629 317.137 27.4629C317.833 27.4629 318.462 27.3001 319.021 26.9746C319.581 26.6491 320.037 26.1934 320.389 25.6074ZM342.565 17.5605C342.565 18.2832 342.422 18.9245 342.135 19.4844C341.855 20.0378 341.465 20.4967 340.963 20.8613C340.468 21.2259 339.925 21.4928 339.332 21.6621C338.74 21.8314 338.112 21.916 337.448 21.916H335.895V26.1152C335.895 26.3431 335.931 26.5449 336.002 26.7207C336.08 26.89 336.237 27.0202 336.471 27.1113C336.588 27.1569 336.793 27.1992 337.086 27.2383C337.386 27.2773 337.659 27.3001 337.907 27.3066V28H331.959V27.3066C332.116 27.2936 332.34 27.2708 332.633 27.2383C332.933 27.2057 333.141 27.1634 333.258 27.1113C333.454 27.0267 333.593 26.903 333.678 26.7402C333.769 26.5775 333.815 26.3691 333.815 26.1152V16.1152C333.815 15.8874 333.782 15.6823 333.717 15.5C333.652 15.3177 333.499 15.181 333.258 15.0898C333.011 15.0052 332.763 14.9466 332.516 14.9141C332.275 14.875 332.067 14.849 331.891 14.8359V14.1426H338.219C339.508 14.1426 340.553 14.4551 341.354 15.0801C342.161 15.6986 342.565 16.5254 342.565 17.5605ZM339.596 19.9238C339.817 19.6113 339.964 19.2891 340.036 18.957C340.107 18.6185 340.143 18.3158 340.143 18.0488C340.143 17.6777 340.097 17.3001 340.006 16.916C339.922 16.5319 339.772 16.1966 339.557 15.9102C339.329 15.6042 339.03 15.3665 338.659 15.1973C338.287 15.028 337.825 14.9434 337.272 14.9434H335.895V21.0664H336.891C337.594 21.0664 338.164 20.959 338.6 20.7441C339.043 20.5228 339.375 20.2493 339.596 19.9238ZM357.886 28H352.115V27.3066C352.623 27.2741 353.043 27.209 353.375 27.1113C353.713 27.0137 353.882 26.8932 353.882 26.75C353.882 26.6914 353.876 26.6198 353.863 26.5352C353.85 26.4505 353.83 26.3757 353.804 26.3105L352.652 23.2051H347.798C347.616 23.6608 347.466 24.0579 347.349 24.3965C347.239 24.735 347.138 25.0475 347.046 25.334C346.962 25.6139 346.903 25.8418 346.871 26.0176C346.838 26.1934 346.822 26.3366 346.822 26.4473C346.822 26.7077 347.027 26.9095 347.437 27.0527C347.847 27.196 348.31 27.2806 348.824 27.3066V28H343.609V27.3066C343.778 27.2936 343.99 27.2578 344.244 27.1992C344.498 27.1341 344.706 27.0495 344.869 26.9453C345.129 26.7695 345.331 26.5872 345.474 26.3984C345.617 26.2031 345.757 25.9362 345.894 25.5977C346.591 23.8594 347.359 21.9062 348.199 19.7383C349.039 17.5703 349.787 15.64 350.445 13.9473H351.226L355.845 25.9004C355.943 26.1543 356.054 26.3594 356.177 26.5156C356.301 26.6719 356.474 26.8249 356.695 26.9746C356.845 27.0658 357.04 27.1439 357.281 27.209C357.522 27.2676 357.724 27.3001 357.886 27.3066V28ZM352.3 22.3359L350.201 16.9648L348.14 22.3359H352.3ZM372.68 28H368.95C368.123 26.7044 367.374 25.5846 366.704 24.6406C366.04 23.6966 365.317 22.7233 364.536 21.7207H363.12V26.1152C363.12 26.3431 363.156 26.5449 363.227 26.7207C363.299 26.89 363.452 27.0202 363.686 27.1113C363.804 27.1569 364.009 27.1992 364.302 27.2383C364.595 27.2773 364.842 27.3001 365.044 27.3066V28H359.184V27.3066C359.341 27.2936 359.565 27.2708 359.858 27.2383C360.158 27.2057 360.366 27.1634 360.483 27.1113C360.679 27.0267 360.818 26.903 360.903 26.7402C360.994 26.5775 361.04 26.3691 361.04 26.1152V16.0957C361.04 15.8678 361.007 15.666 360.942 15.4902C360.877 15.3145 360.724 15.181 360.483 15.0898C360.32 15.0312 360.109 14.9792 359.848 14.9336C359.588 14.8815 359.367 14.849 359.184 14.8359V14.1426H365.581C366.167 14.1426 366.717 14.2044 367.231 14.3281C367.746 14.4453 368.211 14.6374 368.628 14.9043C369.031 15.1647 369.354 15.5065 369.595 15.9297C369.835 16.3464 369.956 16.8509 369.956 17.4434C369.956 17.9772 369.874 18.4492 369.712 18.8594C369.549 19.2695 369.308 19.6243 368.989 19.9238C368.696 20.2038 368.345 20.4479 367.934 20.6562C367.524 20.8581 367.072 21.0306 366.577 21.1738C367.261 22.0788 367.827 22.8405 368.276 23.459C368.732 24.0775 369.289 24.8294 369.946 25.7148C370.233 26.1055 370.49 26.3952 370.718 26.584C370.952 26.7663 371.183 26.916 371.411 27.0332C371.58 27.1178 371.792 27.1829 372.046 27.2285C372.3 27.2741 372.511 27.3001 372.68 27.3066V28ZM367.544 17.668C367.544 16.8281 367.303 16.1641 366.821 15.6758C366.339 15.181 365.659 14.9336 364.78 14.9336H363.12V20.8809H364.399C365.298 20.8809 366.046 20.5944 366.645 20.0215C367.244 19.4421 367.544 18.6576 367.544 17.668ZM386.947 28H381.176V27.3066C381.684 27.2741 382.104 27.209 382.436 27.1113C382.774 27.0137 382.943 26.8932 382.943 26.75C382.943 26.6914 382.937 26.6198 382.924 26.5352C382.911 26.4505 382.891 26.3757 382.865 26.3105L381.713 23.2051H376.859C376.677 23.6608 376.527 24.0579 376.41 24.3965C376.299 24.735 376.199 25.0475 376.107 25.334C376.023 25.6139 375.964 25.8418 375.932 26.0176C375.899 26.1934 375.883 26.3366 375.883 26.4473C375.883 26.7077 376.088 26.9095 376.498 27.0527C376.908 27.196 377.37 27.2806 377.885 27.3066V28H372.67V27.3066C372.839 27.2936 373.051 27.2578 373.305 27.1992C373.559 27.1341 373.767 27.0495 373.93 26.9453C374.19 26.7695 374.392 26.5872 374.535 26.3984C374.678 26.2031 374.818 25.9362 374.955 25.5977C375.652 23.8594 376.42 21.9062 377.26 19.7383C378.1 17.5703 378.848 15.64 379.506 13.9473H380.287L384.906 25.9004C385.004 26.1543 385.115 26.3594 385.238 26.5156C385.362 26.6719 385.535 26.8249 385.756 26.9746C385.906 27.0658 386.101 27.1439 386.342 27.209C386.583 27.2676 386.785 27.3001 386.947 27.3066V28ZM381.361 22.3359L379.262 16.9648L377.201 22.3359H381.361ZM250.08 46.8789L249.787 51H238.957V50.3066C239.113 50.2936 239.338 50.2708 239.631 50.2383C239.93 50.2057 240.139 50.1634 240.256 50.1113C240.451 50.0267 240.591 49.903 240.676 49.7402C240.767 49.5775 240.812 49.3691 240.812 49.1152V39.1934C240.812 38.972 240.773 38.7767 240.695 38.6074C240.624 38.4382 240.477 38.3014 240.256 38.1973C240.106 38.1191 239.895 38.0443 239.621 37.9727C239.354 37.8945 239.133 37.849 238.957 37.8359V37.1426H244.807V37.8359C244.624 37.8424 244.387 37.875 244.094 37.9336C243.807 37.9922 243.599 38.0443 243.469 38.0898C243.247 38.168 243.094 38.3014 243.01 38.4902C242.932 38.679 242.893 38.8809 242.893 39.0957V48.4023C242.893 48.832 242.912 49.1673 242.951 49.4082C242.997 49.6426 243.098 49.8249 243.254 49.9551C243.404 50.0723 243.625 50.1504 243.918 50.1895C244.217 50.222 244.634 50.2383 245.168 50.2383C245.409 50.2383 245.66 50.2318 245.92 50.2188C246.18 50.2057 246.428 50.1797 246.662 50.1406C246.89 50.1016 247.098 50.0495 247.287 49.9844C247.482 49.9128 247.626 49.8249 247.717 49.7207C247.984 49.4212 248.293 48.9688 248.645 48.3633C249.003 47.7513 249.25 47.2565 249.387 46.8789H250.08ZM264.747 51H258.976V50.3066C259.484 50.2741 259.904 50.209 260.236 50.1113C260.574 50.0137 260.743 49.8932 260.743 49.75C260.743 49.6914 260.737 49.6198 260.724 49.5352C260.711 49.4505 260.691 49.3757 260.665 49.3105L259.513 46.2051H254.659C254.477 46.6608 254.327 47.0579 254.21 47.3965C254.099 47.735 253.999 48.0475 253.907 48.334C253.823 48.6139 253.764 48.8418 253.732 49.0176C253.699 49.1934 253.683 49.3366 253.683 49.4473C253.683 49.7077 253.888 49.9095 254.298 50.0527C254.708 50.196 255.17 50.2806 255.685 50.3066V51H250.47V50.3066C250.639 50.2936 250.851 50.2578 251.105 50.1992C251.359 50.1341 251.567 50.0495 251.73 49.9453C251.99 49.7695 252.192 49.5872 252.335 49.3984C252.478 49.2031 252.618 48.9362 252.755 48.5977C253.452 46.8594 254.22 44.9062 255.06 42.7383C255.9 40.5703 256.648 38.64 257.306 36.9473H258.087L262.706 48.9004C262.804 49.1543 262.915 49.3594 263.038 49.5156C263.162 49.6719 263.335 49.8249 263.556 49.9746C263.706 50.0658 263.901 50.1439 264.142 50.209C264.383 50.2676 264.585 50.3001 264.747 50.3066V51ZM259.161 45.3359L257.062 39.9648L255.001 45.3359H259.161ZM277.773 51.3223C276.946 51.3223 276.152 51.1595 275.39 50.834C274.635 50.5085 273.964 50.0397 273.379 49.4277C272.799 48.8158 272.337 48.0703 271.992 47.1914C271.647 46.306 271.474 45.3099 271.474 44.2031C271.474 43.0964 271.643 42.0938 271.982 41.1953C272.321 40.2904 272.789 39.5124 273.388 38.8613C273.981 38.2168 274.681 37.7188 275.488 37.3672C276.295 37.0156 277.158 36.8398 278.076 36.8398C278.759 36.8398 279.378 36.9245 279.931 37.0938C280.485 37.263 281.012 37.5007 281.513 37.8066L281.914 37.1426H282.695L282.783 42.084H281.982C281.878 41.6022 281.722 41.0814 281.513 40.5215C281.305 39.9551 281.061 39.4766 280.781 39.0859C280.468 38.6432 280.097 38.2982 279.668 38.0508C279.238 37.7969 278.746 37.6699 278.193 37.6699C277.561 37.6699 276.972 37.8099 276.425 38.0898C275.885 38.3698 275.416 38.7832 275.019 39.3301C274.642 39.8574 274.345 40.528 274.13 41.3418C273.916 42.1556 273.808 43.0638 273.808 44.0664C273.808 44.9518 273.919 45.7656 274.14 46.5078C274.368 47.2435 274.69 47.8913 275.107 48.4512C275.524 49.0046 276.015 49.4375 276.582 49.75C277.155 50.0625 277.793 50.2188 278.496 50.2188C279.023 50.2188 279.508 50.1374 279.951 49.9746C280.393 49.8053 280.778 49.584 281.103 49.3105C281.429 49.0241 281.715 48.6986 281.963 48.334C282.21 47.9694 282.412 47.5723 282.568 47.1426L283.3 47.4941C282.74 48.8678 281.998 49.8509 281.074 50.4434C280.149 51.0293 279.049 51.3223 277.773 51.3223ZM296.513 38.7832C297.124 39.4212 297.603 40.1927 297.948 41.0977C298.293 41.9961 298.466 42.9922 298.466 44.0859C298.466 45.1862 298.29 46.1855 297.938 47.084C297.587 47.9824 297.098 48.7474 296.473 49.3789C295.868 50.0039 295.165 50.4857 294.364 50.8242C293.563 51.1628 292.71 51.332 291.805 51.332C290.842 51.332 289.95 51.153 289.13 50.7949C288.316 50.4303 287.616 49.9258 287.03 49.2812C286.444 48.6497 285.982 47.8848 285.643 46.9863C285.311 46.0814 285.145 45.1146 285.145 44.0859C285.145 42.9596 285.321 41.957 285.673 41.0781C286.024 40.1927 286.509 39.4277 287.128 38.7832C287.74 38.1452 288.449 37.6569 289.257 37.3184C290.07 36.9798 290.92 36.8105 291.805 36.8105C292.723 36.8105 293.589 36.9831 294.403 37.3281C295.217 37.6732 295.92 38.1582 296.513 38.7832ZM295.057 48.6074C295.422 48.015 295.686 47.3444 295.848 46.5957C296.018 45.847 296.102 45.0104 296.102 44.0859C296.102 43.1354 296.008 42.263 295.819 41.4688C295.637 40.6745 295.367 39.9974 295.009 39.4375C294.651 38.8841 294.201 38.4544 293.661 38.1484C293.121 37.8359 292.502 37.6797 291.805 37.6797C291.024 37.6797 290.36 37.8587 289.813 38.2168C289.266 38.5749 288.82 39.0534 288.475 39.6523C288.15 40.2253 287.906 40.8958 287.743 41.6641C287.587 42.4323 287.509 43.2396 287.509 44.0859C287.509 45.0234 287.593 45.8698 287.763 46.625C287.932 47.3802 288.199 48.0508 288.563 48.6367C288.915 49.2096 289.358 49.6589 289.891 49.9844C290.425 50.3034 291.063 50.4629 291.805 50.4629C292.502 50.4629 293.13 50.3001 293.69 49.9746C294.25 49.6491 294.706 49.1934 295.057 48.6074ZM317.684 51H311.561V50.3066C311.782 50.3001 312.065 50.2773 312.41 50.2383C312.762 50.1992 313.003 50.1439 313.133 50.0723C313.335 49.9486 313.481 49.8086 313.572 49.6523C313.67 49.4896 313.719 49.2878 313.719 49.0469V38.9688H313.572L308.846 50.7754H308.357L303.855 38.7246H303.729V46.9961C303.729 47.7969 303.777 48.4056 303.875 48.8223C303.979 49.2389 304.135 49.5384 304.344 49.7207C304.487 49.8574 304.783 49.9876 305.232 50.1113C305.682 50.235 305.975 50.3001 306.111 50.3066V51H300.516V50.3066C300.809 50.2806 301.115 50.2318 301.434 50.1602C301.759 50.0885 302.01 49.9811 302.186 49.8379C302.413 49.6556 302.57 49.3757 302.654 48.998C302.739 48.6204 302.781 47.9889 302.781 47.1035V40.0137C302.781 39.6035 302.732 39.2682 302.635 39.0078C302.537 38.7474 302.397 38.5358 302.215 38.373C302.013 38.1973 301.766 38.0671 301.473 37.9824C301.18 37.8978 300.89 37.849 300.604 37.8359V37.1426H305.33L309.295 47.5332L312.684 38.8418C312.807 38.5228 312.911 38.1908 312.996 37.8457C313.087 37.4941 313.136 37.2598 313.143 37.1426H317.664V37.8359C317.482 37.8424 317.247 37.8717 316.961 37.9238C316.681 37.9759 316.476 38.0247 316.346 38.0703C316.124 38.1484 315.975 38.2786 315.896 38.4609C315.818 38.6432 315.779 38.8418 315.779 39.0566V49.0469C315.779 49.2747 315.818 49.4668 315.896 49.623C315.975 49.7793 316.124 49.916 316.346 50.0332C316.463 50.0983 316.671 50.1602 316.971 50.2188C317.27 50.2708 317.508 50.3001 317.684 50.3066V51ZM330.964 40.5605C330.964 41.2832 330.821 41.9245 330.534 42.4844C330.254 43.0378 329.864 43.4967 329.363 43.8613C328.868 44.2259 328.324 44.4928 327.732 44.6621C327.139 44.8314 326.511 44.916 325.847 44.916H324.294V49.1152C324.294 49.3431 324.33 49.5449 324.402 49.7207C324.48 49.89 324.636 50.0202 324.87 50.1113C324.988 50.1569 325.193 50.1992 325.486 50.2383C325.785 50.2773 326.058 50.3001 326.306 50.3066V51H320.359V50.3066C320.515 50.2936 320.739 50.2708 321.032 50.2383C321.332 50.2057 321.54 50.1634 321.657 50.1113C321.853 50.0267 321.993 49.903 322.077 49.7402C322.168 49.5775 322.214 49.3691 322.214 49.1152V39.1152C322.214 38.8874 322.182 38.6823 322.116 38.5C322.051 38.3177 321.898 38.181 321.657 38.0898C321.41 38.0052 321.163 37.9466 320.915 37.9141C320.674 37.875 320.466 37.849 320.29 37.8359V37.1426H326.618C327.907 37.1426 328.952 37.4551 329.753 38.0801C330.56 38.6986 330.964 39.5254 330.964 40.5605ZM327.995 42.9238C328.217 42.6113 328.363 42.2891 328.435 41.957C328.506 41.6185 328.542 41.3158 328.542 41.0488C328.542 40.6777 328.497 40.3001 328.405 39.916C328.321 39.5319 328.171 39.1966 327.956 38.9102C327.728 38.6042 327.429 38.3665 327.058 38.1973C326.687 38.028 326.224 37.9434 325.671 37.9434H324.294V44.0664H325.29C325.993 44.0664 326.563 43.959 326.999 43.7441C327.442 43.5228 327.774 43.2493 327.995 42.9238ZM345.016 46.918L344.752 51H333.248V50.3066C333.444 50.2936 333.704 50.2676 334.03 50.2285C334.355 50.1829 334.567 50.1374 334.664 50.0918C334.873 49.9941 335.016 49.8672 335.094 49.7109C335.179 49.5547 335.221 49.3561 335.221 49.1152V39.1543C335.221 38.9395 335.185 38.7507 335.114 38.5879C335.042 38.4186 334.892 38.2819 334.664 38.1777C334.489 38.0931 334.251 38.0182 333.952 37.9531C333.659 37.888 333.424 37.849 333.248 37.8359V37.1426H343.971V40.4824H343.239C343.108 39.9876 342.825 39.4635 342.389 38.9102C341.959 38.3503 341.549 38.0443 341.159 37.9922C340.957 37.9661 340.716 37.9466 340.436 37.9336C340.156 37.9206 339.837 37.9141 339.479 37.9141H337.301V43.4219H338.864C339.365 43.4219 339.73 43.3763 339.957 43.2852C340.192 43.1875 340.397 43.028 340.573 42.8066C340.716 42.6178 340.836 42.3672 340.934 42.0547C341.038 41.7357 341.107 41.4362 341.139 41.1562H341.871V46.5762H341.139C341.113 46.2637 341.041 45.9349 340.924 45.5898C340.814 45.2383 340.696 44.9844 340.573 44.8281C340.371 44.5742 340.14 44.4082 339.879 44.3301C339.625 44.252 339.287 44.2129 338.864 44.2129H337.301V48.373C337.301 48.7897 337.33 49.1185 337.389 49.3594C337.448 49.6003 337.562 49.7826 337.731 49.9062C337.9 50.0299 338.131 50.1113 338.424 50.1504C338.717 50.1829 339.134 50.1992 339.674 50.1992C339.889 50.1992 340.172 50.1992 340.524 50.1992C340.875 50.1992 341.172 50.1862 341.412 50.1602C341.66 50.1341 341.914 50.0885 342.174 50.0234C342.441 49.9518 342.63 49.8574 342.741 49.7402C343.04 49.4277 343.353 48.9557 343.678 48.3242C344.01 47.6862 344.222 47.2174 344.313 46.918H345.016ZM358.492 40.9023H357.818C357.759 40.668 357.652 40.3913 357.496 40.0723C357.346 39.7467 357.177 39.4408 356.988 39.1543C356.793 38.8548 356.578 38.5944 356.343 38.373C356.115 38.1452 355.894 38.015 355.679 37.9824C355.477 37.9564 355.224 37.9368 354.918 37.9238C354.612 37.9108 354.328 37.9043 354.068 37.9043H353.502V48.9883C353.502 49.2031 353.547 49.4017 353.638 49.584C353.729 49.7598 353.889 49.8965 354.117 49.9941C354.234 50.0397 354.478 50.1016 354.849 50.1797C355.227 50.2578 355.52 50.3001 355.728 50.3066V51H349.185V50.3066C349.367 50.2936 349.644 50.2676 350.015 50.2285C350.393 50.1895 350.653 50.1406 350.796 50.082C351.011 49.9974 351.168 49.877 351.265 49.7207C351.369 49.5579 351.421 49.3431 351.421 49.0762V37.9043H350.855C350.653 37.9043 350.403 37.9108 350.103 37.9238C349.804 37.9303 349.517 37.9499 349.244 37.9824C349.029 38.0085 348.804 38.1387 348.57 38.373C348.342 38.6009 348.13 38.8613 347.935 39.1543C347.74 39.4473 347.567 39.7598 347.418 40.0918C347.268 40.4173 347.164 40.6875 347.105 40.9023H346.421V37.1426H358.492V40.9023ZM366.47 51H360.229V50.3066C360.405 50.2936 360.659 50.2741 360.991 50.248C361.323 50.222 361.557 50.1829 361.694 50.1309C361.909 50.0462 362.065 49.9323 362.163 49.7891C362.261 49.6393 362.309 49.4342 362.309 49.1738V39.1348C362.309 38.9069 362.274 38.7181 362.202 38.5684C362.13 38.4121 361.961 38.2819 361.694 38.1777C361.499 38.0996 361.251 38.028 360.952 37.9629C360.659 37.8913 360.418 37.849 360.229 37.8359V37.1426H366.47V37.8359C366.268 37.8424 366.027 37.8685 365.747 37.9141C365.467 37.9531 365.223 38.0052 365.014 38.0703C364.767 38.1484 364.601 38.2754 364.516 38.4512C364.432 38.627 364.389 38.8223 364.389 39.0371V49.0664C364.389 49.2812 364.435 49.4733 364.526 49.6426C364.624 49.8053 364.787 49.9355 365.014 50.0332C365.151 50.0853 365.373 50.1439 365.679 50.209C365.991 50.2676 366.255 50.3001 366.47 50.3066V51ZM380.268 40.9023H379.594C379.535 40.668 379.428 40.3913 379.271 40.0723C379.122 39.7467 378.952 39.4408 378.764 39.1543C378.568 38.8548 378.354 38.5944 378.119 38.373C377.891 38.1452 377.67 38.015 377.455 37.9824C377.253 37.9564 376.999 37.9368 376.693 37.9238C376.387 37.9108 376.104 37.9043 375.844 37.9043H375.277V48.9883C375.277 49.2031 375.323 49.4017 375.414 49.584C375.505 49.7598 375.665 49.8965 375.893 49.9941C376.01 50.0397 376.254 50.1016 376.625 50.1797C377.003 50.2578 377.296 50.3001 377.504 50.3066V51H370.961V50.3066C371.143 50.2936 371.42 50.2676 371.791 50.2285C372.169 50.1895 372.429 50.1406 372.572 50.082C372.787 49.9974 372.943 49.877 373.041 49.7207C373.145 49.5579 373.197 49.3431 373.197 49.0762V37.9043H372.631C372.429 37.9043 372.178 37.9108 371.879 37.9238C371.579 37.9303 371.293 37.9499 371.02 37.9824C370.805 38.0085 370.58 38.1387 370.346 38.373C370.118 38.6009 369.906 38.8613 369.711 39.1543C369.516 39.4473 369.343 39.7598 369.193 40.0918C369.044 40.4173 368.939 40.6875 368.881 40.9023H368.197V37.1426H380.268V40.9023ZM388.245 51H382.005V50.3066C382.181 50.2936 382.435 50.2741 382.767 50.248C383.099 50.222 383.333 50.1829 383.47 50.1309C383.685 50.0462 383.841 49.9323 383.939 49.7891C384.036 49.6393 384.085 49.4342 384.085 49.1738V39.1348C384.085 38.9069 384.049 38.7181 383.978 38.5684C383.906 38.4121 383.737 38.2819 383.47 38.1777C383.275 38.0996 383.027 38.028 382.728 37.9629C382.435 37.8913 382.194 37.849 382.005 37.8359V37.1426H388.245V37.8359C388.043 37.8424 387.803 37.8685 387.523 37.9141C387.243 37.9531 386.999 38.0052 386.79 38.0703C386.543 38.1484 386.377 38.2754 386.292 38.4512C386.208 38.627 386.165 38.8223 386.165 39.0371V49.0664C386.165 49.2812 386.211 49.4733 386.302 49.6426C386.4 49.8053 386.562 49.9355 386.79 50.0332C386.927 50.0853 387.148 50.1439 387.454 50.209C387.767 50.2676 388.03 50.3001 388.245 50.3066V51ZM403.567 37.8359C403.398 37.8424 403.192 37.8815 402.952 37.9531C402.711 38.0182 402.512 38.0996 402.356 38.1973C402.135 38.334 401.955 38.5098 401.819 38.7246C401.689 38.9395 401.558 39.1934 401.428 39.4863C400.992 40.5215 400.338 42.1361 399.465 44.3301C398.593 46.5176 397.694 48.7995 396.77 51.1758H395.959C395.022 48.6562 394.117 46.2279 393.245 43.8906C392.372 41.5534 391.78 39.9746 391.467 39.1543C391.389 38.9525 391.285 38.7767 391.155 38.627C391.024 38.4707 390.852 38.3242 390.637 38.1875C390.461 38.0768 390.266 37.9954 390.051 37.9434C389.836 37.8848 389.638 37.849 389.455 37.8359V37.1426H395.188V37.8359C394.7 37.862 394.286 37.9108 393.948 37.9824C393.616 38.054 393.45 38.181 393.45 38.3633C393.45 38.4349 393.463 38.5195 393.489 38.6172C393.515 38.7148 393.538 38.793 393.557 38.8516C393.798 39.4896 394.189 40.5312 394.729 41.9766C395.269 43.4154 396.038 45.4661 397.034 48.1289C397.528 46.9245 398.098 45.502 398.743 43.8613C399.387 42.2207 399.82 41.0944 400.041 40.4824C400.256 39.89 400.38 39.4798 400.413 39.252C400.452 39.0241 400.471 38.8385 400.471 38.6953C400.471 38.5456 400.403 38.4219 400.266 38.3242C400.136 38.2201 399.96 38.1322 399.739 38.0605C399.524 37.9954 399.306 37.9466 399.084 37.9141C398.863 37.8815 398.638 37.8555 398.411 37.8359V37.1426H403.567V37.8359ZM410.978 51H404.738V50.3066C404.914 50.2936 405.168 50.2741 405.5 50.248C405.832 50.222 406.066 50.1829 406.203 50.1309C406.418 50.0462 406.574 49.9323 406.671 49.7891C406.769 49.6393 406.818 49.4342 406.818 49.1738V39.1348C406.818 38.9069 406.782 38.7181 406.711 38.5684C406.639 38.4121 406.47 38.2819 406.203 38.1777C406.007 38.0996 405.76 38.028 405.461 37.9629C405.168 37.8913 404.927 37.849 404.738 37.8359V37.1426H410.978V37.8359C410.776 37.8424 410.535 37.8685 410.255 37.9141C409.976 37.9531 409.731 38.0052 409.523 38.0703C409.276 38.1484 409.11 38.2754 409.025 38.4512C408.94 38.627 408.898 38.8223 408.898 39.0371V49.0664C408.898 49.2812 408.944 49.4733 409.035 49.6426C409.132 49.8053 409.295 49.9355 409.523 50.0332C409.66 50.0853 409.881 50.1439 410.187 50.209C410.5 50.2676 410.763 50.3001 410.978 50.3066V51ZM426.788 44.1543C426.788 45.3327 426.567 46.3548 426.124 47.2207C425.681 48.0866 425.105 48.7962 424.395 49.3496C423.679 49.903 422.875 50.3164 421.983 50.5898C421.091 50.8633 420.17 51 419.22 51H413.477V50.3066C413.666 50.3066 413.91 50.2904 414.21 50.2578C414.516 50.2188 414.718 50.1764 414.815 50.1309C415.011 50.0462 415.151 49.9225 415.235 49.7598C415.326 49.5905 415.372 49.3887 415.372 49.1543V39.1543C415.372 38.9329 415.333 38.7344 415.255 38.5586C415.183 38.3828 415.037 38.2428 414.815 38.1387C414.613 38.041 414.395 37.9694 414.161 37.9238C413.927 37.8783 413.725 37.849 413.555 37.8359V37.1426H419.61C420.443 37.1426 421.264 37.2728 422.071 37.5332C422.878 37.7871 423.582 38.1322 424.18 38.5684C424.994 39.1478 425.632 39.9062 426.095 40.8438C426.557 41.7812 426.788 42.8848 426.788 44.1543ZM424.395 44.1445C424.395 43.2135 424.272 42.3737 424.024 41.625C423.777 40.8698 423.415 40.2122 422.94 39.6523C422.491 39.1185 421.938 38.6986 421.28 38.3926C420.629 38.0866 419.903 37.9336 419.102 37.9336C418.835 37.9336 418.533 37.9401 418.194 37.9531C417.862 37.9596 417.615 37.9661 417.452 37.9727V48.627C417.452 49.2194 417.624 49.6296 417.97 49.8574C418.315 50.0853 418.845 50.1992 419.561 50.1992C420.388 50.1992 421.111 50.0527 421.729 49.7598C422.348 49.4668 422.849 49.0599 423.233 48.5391C423.637 47.9922 423.93 47.3607 424.112 46.6445C424.301 45.9219 424.395 45.0885 424.395 44.1445ZM442.217 51H436.445V50.3066C436.953 50.2741 437.373 50.209 437.705 50.1113C438.044 50.0137 438.213 49.8932 438.213 49.75C438.213 49.6914 438.206 49.6198 438.193 49.5352C438.18 49.4505 438.161 49.3757 438.135 49.3105L436.982 46.2051H432.129C431.947 46.6608 431.797 47.0579 431.68 47.3965C431.569 47.735 431.468 48.0475 431.377 48.334C431.292 48.6139 431.234 48.8418 431.201 49.0176C431.169 49.1934 431.152 49.3366 431.152 49.4473C431.152 49.7077 431.357 49.9095 431.768 50.0527C432.178 50.196 432.64 50.2806 433.154 50.3066V51H427.939V50.3066C428.109 50.2936 428.32 50.2578 428.574 50.1992C428.828 50.1341 429.036 50.0495 429.199 49.9453C429.46 49.7695 429.661 49.5872 429.805 49.3984C429.948 49.2031 430.088 48.9362 430.225 48.5977C430.921 46.8594 431.689 44.9062 432.529 42.7383C433.369 40.5703 434.118 38.64 434.775 36.9473H435.557L440.176 48.9004C440.273 49.1543 440.384 49.3594 440.508 49.5156C440.632 49.6719 440.804 49.8249 441.025 49.9746C441.175 50.0658 441.37 50.1439 441.611 50.209C441.852 50.2676 442.054 50.3001 442.217 50.3066V51ZM436.631 45.3359L434.531 39.9648L432.471 45.3359H436.631ZM456.786 44.1543C456.786 45.3327 456.565 46.3548 456.122 47.2207C455.68 48.0866 455.103 48.7962 454.394 49.3496C453.678 49.903 452.874 50.3164 451.982 50.5898C451.09 50.8633 450.168 51 449.218 51H443.476V50.3066C443.665 50.3066 443.909 50.2904 444.208 50.2578C444.514 50.2188 444.716 50.1764 444.814 50.1309C445.009 50.0462 445.149 49.9225 445.234 49.7598C445.325 49.5905 445.37 49.3887 445.37 49.1543V39.1543C445.37 38.9329 445.331 38.7344 445.253 38.5586C445.182 38.3828 445.035 38.2428 444.814 38.1387C444.612 38.041 444.394 37.9694 444.159 37.9238C443.925 37.8783 443.723 37.849 443.554 37.8359V37.1426H449.609C450.442 37.1426 451.262 37.2728 452.07 37.5332C452.877 37.7871 453.58 38.1322 454.179 38.5684C454.993 39.1478 455.631 39.9062 456.093 40.8438C456.555 41.7812 456.786 42.8848 456.786 44.1543ZM454.394 44.1445C454.394 43.2135 454.27 42.3737 454.023 41.625C453.775 40.8698 453.414 40.2122 452.939 39.6523C452.489 39.1185 451.936 38.6986 451.279 38.3926C450.627 38.0866 449.902 37.9336 449.101 37.9336C448.834 37.9336 448.531 37.9401 448.193 37.9531C447.861 37.9596 447.613 37.9661 447.45 37.9727V48.627C447.45 49.2194 447.623 49.6296 447.968 49.8574C448.313 50.0853 448.844 50.1992 449.56 50.1992C450.387 50.1992 451.109 50.0527 451.728 49.7598C452.346 49.4668 452.848 49.0599 453.232 48.5391C453.635 47.9922 453.928 47.3607 454.111 46.6445C454.299 45.9219 454.394 45.0885 454.394 44.1445ZM250.832 60.8359C250.721 60.8424 250.546 60.888 250.305 60.9727C250.064 61.0508 249.891 61.1289 249.787 61.207C249.533 61.3633 249.361 61.4837 249.27 61.5684C249.178 61.653 249.003 61.8743 248.742 62.2324C248.234 62.9486 247.766 63.6745 247.336 64.4102C246.906 65.1458 246.369 66.0801 245.725 67.2129C245.484 67.6296 245.324 67.9648 245.246 68.2188C245.168 68.4727 245.129 68.8405 245.129 69.3223V71.9688C245.129 72.2031 245.174 72.4082 245.266 72.584C245.363 72.7533 245.526 72.89 245.754 72.9941C245.891 73.0462 246.135 73.1113 246.486 73.1895C246.838 73.2611 247.121 73.3001 247.336 73.3066V74H240.852V73.3066C241.034 73.2936 241.307 73.2708 241.672 73.2383C242.036 73.1992 242.29 73.1504 242.434 73.0918C242.668 72.9941 242.827 72.8607 242.912 72.6914C243.003 72.5221 243.049 72.3138 243.049 72.0664V68.6973C243.049 68.5931 242.984 68.4043 242.854 68.1309C242.73 67.8509 242.58 67.5417 242.404 67.2031C242.014 66.4479 241.581 65.6309 241.105 64.752C240.63 63.873 240.217 63.1211 239.865 62.4961C239.65 62.125 239.458 61.8451 239.289 61.6562C239.126 61.4674 238.938 61.3014 238.723 61.1582C238.566 61.0605 238.378 60.9857 238.156 60.9336C237.941 60.8815 237.746 60.849 237.57 60.8359V60.1426H243.479V60.8359C242.814 60.849 242.346 60.8945 242.072 60.9727C241.799 61.0508 241.662 61.1615 241.662 61.3047C241.662 61.3438 241.682 61.4121 241.721 61.5098C241.76 61.6074 241.815 61.7311 241.887 61.8809C241.971 62.0501 242.072 62.2454 242.189 62.4668C242.307 62.6816 242.417 62.89 242.521 63.0918C242.827 63.6712 243.14 64.2507 243.459 64.8301C243.778 65.403 244.195 66.1517 244.709 67.0762C245.731 65.429 246.509 64.1465 247.043 63.2285C247.583 62.304 247.854 61.7507 247.854 61.5684C247.854 61.4186 247.798 61.2982 247.688 61.207C247.577 61.1159 247.43 61.0443 247.248 60.9922C247.059 60.9401 246.854 60.9076 246.633 60.8945C246.411 60.875 246.206 60.8555 246.018 60.8359V60.1426H250.832V60.8359ZM269.336 69.918L269.073 74H257.569V73.3066C257.764 73.2936 258.024 73.2676 258.35 73.2285C258.676 73.1829 258.887 73.1374 258.985 73.0918C259.193 72.9941 259.336 72.8672 259.414 72.7109C259.499 72.5547 259.541 72.3561 259.541 72.1152V62.1543C259.541 61.9395 259.506 61.7507 259.434 61.5879C259.362 61.4186 259.213 61.2819 258.985 61.1777C258.809 61.0931 258.571 61.0182 258.272 60.9531C257.979 60.888 257.745 60.849 257.569 60.8359V60.1426H268.291V63.4824H267.559C267.429 62.9876 267.146 62.4635 266.709 61.9102C266.28 61.3503 265.87 61.0443 265.479 60.9922C265.277 60.9661 265.036 60.9466 264.756 60.9336C264.476 60.9206 264.157 60.9141 263.799 60.9141H261.621V66.4219H263.184C263.685 66.4219 264.05 66.3763 264.278 66.2852C264.512 66.1875 264.717 66.028 264.893 65.8066C265.036 65.6178 265.157 65.3672 265.254 65.0547C265.358 64.7357 265.427 64.4362 265.459 64.1562H266.192V69.5762H265.459C265.433 69.2637 265.362 68.9349 265.245 68.5898C265.134 68.2383 265.017 67.9844 264.893 67.8281C264.691 67.5742 264.46 67.4082 264.2 67.3301C263.946 67.252 263.607 67.2129 263.184 67.2129H261.621V71.373C261.621 71.7897 261.651 72.1185 261.709 72.3594C261.768 72.6003 261.882 72.7826 262.051 72.9062C262.22 73.0299 262.452 73.1113 262.745 73.1504C263.038 73.1829 263.454 73.1992 263.995 73.1992C264.209 73.1992 264.493 73.1992 264.844 73.1992C265.196 73.1992 265.492 73.1862 265.733 73.1602C265.98 73.1341 266.234 73.0885 266.495 73.0234C266.761 72.9518 266.95 72.8574 267.061 72.7402C267.36 72.4277 267.673 71.9557 267.998 71.3242C268.33 70.6862 268.542 70.2174 268.633 69.918H269.336ZM282.675 69.8789L282.382 74H271.552V73.3066C271.709 73.2936 271.933 73.2708 272.226 73.2383C272.526 73.2057 272.734 73.1634 272.851 73.1113C273.046 73.0267 273.186 72.903 273.271 72.7402C273.362 72.5775 273.408 72.3691 273.408 72.1152V62.1934C273.408 61.972 273.369 61.7767 273.291 61.6074C273.219 61.4382 273.073 61.3014 272.851 61.1973C272.701 61.1191 272.49 61.0443 272.216 60.9727C271.949 60.8945 271.728 60.849 271.552 60.8359V60.1426H277.402V60.8359C277.22 60.8424 276.982 60.875 276.689 60.9336C276.403 60.9922 276.194 61.0443 276.064 61.0898C275.843 61.168 275.69 61.3014 275.605 61.4902C275.527 61.679 275.488 61.8809 275.488 62.0957V71.4023C275.488 71.832 275.507 72.1673 275.546 72.4082C275.592 72.6426 275.693 72.8249 275.849 72.9551C275.999 73.0723 276.22 73.1504 276.513 73.1895C276.813 73.222 277.229 73.2383 277.763 73.2383C278.004 73.2383 278.255 73.2318 278.515 73.2188C278.776 73.2057 279.023 73.1797 279.257 73.1406C279.485 73.1016 279.694 73.0495 279.882 72.9844C280.078 72.9128 280.221 72.8249 280.312 72.7207C280.579 72.4212 280.888 71.9688 281.24 71.3633C281.598 70.7513 281.845 70.2565 281.982 69.8789H282.675ZM303.318 67.1543C303.318 68.3327 303.097 69.3548 302.654 70.2207C302.212 71.0866 301.635 71.7962 300.926 72.3496C300.21 72.903 299.406 73.3164 298.514 73.5898C297.622 73.8633 296.701 74 295.75 74H290.008V73.3066C290.197 73.3066 290.441 73.2904 290.74 73.2578C291.046 73.2188 291.248 73.1764 291.346 73.1309C291.541 73.0462 291.681 72.9225 291.766 72.7598C291.857 72.5905 291.902 72.3887 291.902 72.1543V62.1543C291.902 61.9329 291.863 61.7344 291.785 61.5586C291.714 61.3828 291.567 61.2428 291.346 61.1387C291.144 61.041 290.926 60.9694 290.691 60.9238C290.457 60.8783 290.255 60.849 290.086 60.8359V60.1426H296.141C296.974 60.1426 297.794 60.2728 298.602 60.5332C299.409 60.7871 300.112 61.1322 300.711 61.5684C301.525 62.1478 302.163 62.9062 302.625 63.8438C303.087 64.7812 303.318 65.8848 303.318 67.1543ZM300.926 67.1445C300.926 66.2135 300.802 65.3737 300.555 64.625C300.307 63.8698 299.946 63.2122 299.471 62.6523C299.021 62.1185 298.468 61.6986 297.811 61.3926C297.16 61.0866 296.434 60.9336 295.633 60.9336C295.366 60.9336 295.063 60.9401 294.725 60.9531C294.393 60.9596 294.145 60.9661 293.982 60.9727V71.627C293.982 72.2194 294.155 72.6296 294.5 72.8574C294.845 73.0853 295.376 73.1992 296.092 73.1992C296.919 73.1992 297.641 73.0527 298.26 72.7598C298.878 72.4668 299.38 72.0599 299.764 71.5391C300.167 70.9922 300.46 70.3607 300.643 69.6445C300.831 68.9219 300.926 68.0885 300.926 67.1445ZM317.478 69.918L317.214 74H305.71V73.3066C305.905 73.2936 306.166 73.2676 306.491 73.2285C306.817 73.1829 307.029 73.1374 307.126 73.0918C307.335 72.9941 307.478 72.8672 307.556 72.7109C307.64 72.5547 307.683 72.3561 307.683 72.1152V62.1543C307.683 61.9395 307.647 61.7507 307.575 61.5879C307.504 61.4186 307.354 61.2819 307.126 61.1777C306.95 61.0931 306.713 61.0182 306.413 60.9531C306.12 60.888 305.886 60.849 305.71 60.8359V60.1426H316.433V63.4824H315.7C315.57 62.9876 315.287 62.4635 314.851 61.9102C314.421 61.3503 314.011 61.0443 313.62 60.9922C313.418 60.9661 313.178 60.9466 312.898 60.9336C312.618 60.9206 312.299 60.9141 311.941 60.9141H309.763V66.4219H311.325C311.827 66.4219 312.191 66.3763 312.419 66.2852C312.654 66.1875 312.859 66.028 313.034 65.8066C313.178 65.6178 313.298 65.3672 313.396 65.0547C313.5 64.7357 313.568 64.4362 313.601 64.1562H314.333V69.5762H313.601C313.575 69.2637 313.503 68.9349 313.386 68.5898C313.275 68.2383 313.158 67.9844 313.034 67.8281C312.833 67.5742 312.601 67.4082 312.341 67.3301C312.087 67.252 311.749 67.2129 311.325 67.2129H309.763V71.373C309.763 71.7897 309.792 72.1185 309.851 72.3594C309.909 72.6003 310.023 72.7826 310.193 72.9062C310.362 73.0299 310.593 73.1113 310.886 73.1504C311.179 73.1829 311.596 73.1992 312.136 73.1992C312.351 73.1992 312.634 73.1992 312.986 73.1992C313.337 73.1992 313.633 73.1862 313.874 73.1602C314.122 73.1341 314.376 73.0885 314.636 73.0234C314.903 72.9518 315.092 72.8574 315.202 72.7402C315.502 72.4277 315.814 71.9557 316.14 71.3242C316.472 70.6862 316.683 70.2174 316.775 69.918H317.478ZM328.317 67.6426C328.61 67.9681 328.825 68.3262 328.961 68.7168C329.105 69.1009 329.176 69.5501 329.176 70.0645C329.176 71.2884 328.724 72.2975 327.819 73.0918C326.914 73.8861 325.791 74.2832 324.45 74.2832C323.831 74.2832 323.213 74.1888 322.594 74C321.976 73.8047 321.442 73.5703 320.993 73.2969L320.573 74.0098H319.791L319.655 69.2637H320.446C320.608 69.8496 320.797 70.3802 321.012 70.8555C321.233 71.3242 321.523 71.7637 321.881 72.1738C322.22 72.5579 322.614 72.8639 323.063 73.0918C323.519 73.3197 324.046 73.4336 324.645 73.4336C325.094 73.4336 325.485 73.375 325.817 73.2578C326.155 73.1406 326.429 72.9746 326.637 72.7598C326.845 72.5449 326.998 72.2943 327.096 72.0078C327.2 71.7148 327.252 71.3796 327.252 71.002C327.252 70.4486 327.096 69.9342 326.784 69.459C326.471 68.9772 326.006 68.6126 325.387 68.3652C324.964 68.196 324.479 68.0104 323.932 67.8086C323.385 67.6003 322.913 67.4049 322.516 67.2227C321.735 66.8711 321.126 66.4121 320.69 65.8457C320.26 65.2728 320.045 64.5273 320.045 63.6094C320.045 63.082 320.153 62.5905 320.368 62.1348C320.582 61.679 320.888 61.2721 321.286 60.9141C321.663 60.5755 322.109 60.3118 322.623 60.123C323.138 59.9277 323.675 59.8301 324.235 59.8301C324.873 59.8301 325.442 59.9277 325.944 60.123C326.452 60.3184 326.914 60.5462 327.33 60.8066L327.731 60.1426H328.512L328.59 64.7422H327.799C327.656 64.2148 327.493 63.7103 327.311 63.2285C327.135 62.7467 326.904 62.3105 326.618 61.9199C326.338 61.5423 325.996 61.2428 325.592 61.0215C325.189 60.7936 324.694 60.6797 324.108 60.6797C323.489 60.6797 322.962 60.8783 322.526 61.2754C322.09 61.6725 321.871 62.1576 321.871 62.7305C321.871 63.3294 322.011 63.8275 322.291 64.2246C322.571 64.6152 322.978 64.9375 323.512 65.1914C323.987 65.4193 324.453 65.6178 324.909 65.7871C325.371 65.9499 325.817 66.1257 326.246 66.3145C326.637 66.4837 327.011 66.6758 327.37 66.8906C327.734 67.1055 328.05 67.3561 328.317 67.6426ZM344.644 74H338.873V73.3066C339.38 73.2741 339.8 73.209 340.132 73.1113C340.471 73.0137 340.64 72.8932 340.64 72.75C340.64 72.6914 340.634 72.6198 340.621 72.5352C340.608 72.4505 340.588 72.3757 340.562 72.3105L339.41 69.2051H334.556C334.374 69.6608 334.224 70.0579 334.107 70.3965C333.996 70.735 333.895 71.0475 333.804 71.334C333.72 71.6139 333.661 71.8418 333.629 72.0176C333.596 72.1934 333.58 72.3366 333.58 72.4473C333.58 72.7077 333.785 72.9095 334.195 73.0527C334.605 73.196 335.067 73.2806 335.582 73.3066V74H330.367V73.3066C330.536 73.2936 330.748 73.2578 331.002 73.1992C331.255 73.1341 331.464 73.0495 331.627 72.9453C331.887 72.7695 332.089 72.5872 332.232 72.3984C332.375 72.2031 332.515 71.9362 332.652 71.5977C333.349 69.8594 334.117 67.9062 334.957 65.7383C335.796 63.5703 336.545 61.64 337.203 59.9473H337.984L342.603 71.9004C342.701 72.1543 342.811 72.3594 342.935 72.5156C343.059 72.6719 343.231 72.8249 343.453 72.9746C343.602 73.0658 343.798 73.1439 344.039 73.209C344.28 73.2676 344.481 73.3001 344.644 73.3066V74ZM339.058 68.3359L336.959 62.9648L334.898 68.3359H339.058ZM359.438 74H355.708C354.881 72.7044 354.132 71.5846 353.462 70.6406C352.798 69.6966 352.075 68.7233 351.294 67.7207H349.878V72.1152C349.878 72.3431 349.914 72.5449 349.985 72.7207C350.057 72.89 350.21 73.0202 350.444 73.1113C350.561 73.1569 350.766 73.1992 351.059 73.2383C351.352 73.2773 351.6 73.3001 351.802 73.3066V74H345.942V73.3066C346.098 73.2936 346.323 73.2708 346.616 73.2383C346.915 73.2057 347.124 73.1634 347.241 73.1113C347.436 73.0267 347.576 72.903 347.661 72.7402C347.752 72.5775 347.798 72.3691 347.798 72.1152V62.0957C347.798 61.8678 347.765 61.666 347.7 61.4902C347.635 61.3145 347.482 61.181 347.241 61.0898C347.078 61.0312 346.867 60.9792 346.606 60.9336C346.346 60.8815 346.124 60.849 345.942 60.8359V60.1426H352.339C352.925 60.1426 353.475 60.2044 353.989 60.3281C354.503 60.4453 354.969 60.6374 355.386 60.9043C355.789 61.1647 356.111 61.5065 356.352 61.9297C356.593 62.3464 356.714 62.8509 356.714 63.4434C356.714 63.9772 356.632 64.4492 356.47 64.8594C356.307 65.2695 356.066 65.6243 355.747 65.9238C355.454 66.2038 355.102 66.4479 354.692 66.6562C354.282 66.8581 353.83 67.0306 353.335 67.1738C354.018 68.0788 354.585 68.8405 355.034 69.459C355.49 70.0775 356.046 70.8294 356.704 71.7148C356.99 72.1055 357.248 72.3952 357.475 72.584C357.71 72.7663 357.941 72.916 358.169 73.0332C358.338 73.1178 358.55 73.1829 358.804 73.2285C359.057 73.2741 359.269 73.3001 359.438 73.3066V74ZM354.302 63.668C354.302 62.8281 354.061 62.1641 353.579 61.6758C353.097 61.181 352.417 60.9336 351.538 60.9336H349.878V66.8809H351.157C352.055 66.8809 352.804 66.5944 353.403 66.0215C354.002 65.4421 354.302 64.6576 354.302 63.668ZM374.281 74H370.551C369.724 72.7044 368.975 71.5846 368.305 70.6406C367.641 69.6966 366.918 68.7233 366.137 67.7207H364.721V72.1152C364.721 72.3431 364.757 72.5449 364.828 72.7207C364.9 72.89 365.053 73.0202 365.287 73.1113C365.404 73.1569 365.609 73.1992 365.902 73.2383C366.195 73.2773 366.443 73.3001 366.645 73.3066V74H360.785V73.3066C360.941 73.2936 361.166 73.2708 361.459 73.2383C361.758 73.2057 361.967 73.1634 362.084 73.1113C362.279 73.0267 362.419 72.903 362.504 72.7402C362.595 72.5775 362.641 72.3691 362.641 72.1152V62.0957C362.641 61.8678 362.608 61.666 362.543 61.4902C362.478 61.3145 362.325 61.181 362.084 61.0898C361.921 61.0312 361.71 60.9792 361.449 60.9336C361.189 60.8815 360.967 60.849 360.785 60.8359V60.1426H367.182C367.768 60.1426 368.318 60.2044 368.832 60.3281C369.346 60.4453 369.812 60.6374 370.229 60.9043C370.632 61.1647 370.954 61.5065 371.195 61.9297C371.436 62.3464 371.557 62.8509 371.557 63.4434C371.557 63.9772 371.475 64.4492 371.312 64.8594C371.15 65.2695 370.909 65.6243 370.59 65.9238C370.297 66.2038 369.945 66.4479 369.535 66.6562C369.125 66.8581 368.673 67.0306 368.178 67.1738C368.861 68.0788 369.428 68.8405 369.877 69.459C370.333 70.0775 370.889 70.8294 371.547 71.7148C371.833 72.1055 372.09 72.3952 372.318 72.584C372.553 72.7663 372.784 72.916 373.012 73.0332C373.181 73.1178 373.393 73.1829 373.646 73.2285C373.9 73.2741 374.112 73.3001 374.281 73.3066V74ZM369.145 63.668C369.145 62.8281 368.904 62.1641 368.422 61.6758C367.94 61.181 367.26 60.9336 366.381 60.9336H364.721V66.8809H366C366.898 66.8809 367.647 66.5944 368.246 66.0215C368.845 65.4421 369.145 64.6576 369.145 63.668ZM386.82 61.7832C387.432 62.4212 387.91 63.1927 388.255 64.0977C388.6 64.9961 388.773 65.9922 388.773 67.0859C388.773 68.1862 388.597 69.1855 388.245 70.084C387.894 70.9824 387.405 71.7474 386.78 72.3789C386.175 73.0039 385.472 73.4857 384.671 73.8242C383.87 74.1628 383.017 74.332 382.113 74.332C381.149 74.332 380.257 74.153 379.437 73.7949C378.623 73.4303 377.923 72.9258 377.337 72.2812C376.751 71.6497 376.289 70.8848 375.95 69.9863C375.618 69.0814 375.452 68.1146 375.452 67.0859C375.452 65.9596 375.628 64.957 375.98 64.0781C376.331 63.1927 376.816 62.4277 377.435 61.7832C378.047 61.1452 378.756 60.6569 379.564 60.3184C380.377 59.9798 381.227 59.8105 382.113 59.8105C383.03 59.8105 383.896 59.9831 384.71 60.3281C385.524 60.6732 386.227 61.1582 386.82 61.7832ZM385.364 71.6074C385.729 71.015 385.993 70.3444 386.155 69.5957C386.325 68.847 386.409 68.0104 386.409 67.0859C386.409 66.1354 386.315 65.263 386.126 64.4688C385.944 63.6745 385.674 62.9974 385.316 62.4375C384.958 61.8841 384.508 61.4544 383.968 61.1484C383.428 60.8359 382.809 60.6797 382.113 60.6797C381.331 60.6797 380.667 60.8587 380.12 61.2168C379.573 61.5749 379.127 62.0534 378.782 62.6523C378.457 63.2253 378.213 63.8958 378.05 64.6641C377.894 65.4323 377.816 66.2396 377.816 67.0859C377.816 68.0234 377.9 68.8698 378.07 69.625C378.239 70.3802 378.506 71.0508 378.87 71.6367C379.222 72.2096 379.665 72.6589 380.198 72.9844C380.732 73.3034 381.37 73.4629 382.113 73.4629C382.809 73.4629 383.437 73.3001 383.997 72.9746C384.557 72.6491 385.013 72.1934 385.364 71.6074ZM402.434 69.8789L402.141 74H391.311V73.3066C391.467 73.2936 391.692 73.2708 391.985 73.2383C392.284 73.2057 392.493 73.1634 392.61 73.1113C392.805 73.0267 392.945 72.903 393.03 72.7402C393.121 72.5775 393.166 72.3691 393.166 72.1152V62.1934C393.166 61.972 393.127 61.7767 393.049 61.6074C392.978 61.4382 392.831 61.3014 392.61 61.1973C392.46 61.1191 392.248 61.0443 391.975 60.9727C391.708 60.8945 391.487 60.849 391.311 60.8359V60.1426H397.161V60.8359C396.978 60.8424 396.741 60.875 396.448 60.9336C396.161 60.9922 395.953 61.0443 395.823 61.0898C395.601 61.168 395.448 61.3014 395.364 61.4902C395.286 61.679 395.246 61.8809 395.246 62.0957V71.4023C395.246 71.832 395.266 72.1673 395.305 72.4082C395.351 72.6426 395.452 72.8249 395.608 72.9551C395.758 73.0723 395.979 73.1504 396.272 73.1895C396.571 73.222 396.988 73.2383 397.522 73.2383C397.763 73.2383 398.013 73.2318 398.274 73.2188C398.534 73.2057 398.782 73.1797 399.016 73.1406C399.244 73.1016 399.452 73.0495 399.641 72.9844C399.836 72.9128 399.98 72.8249 400.071 72.7207C400.338 72.4212 400.647 71.9688 400.998 71.3633C401.357 70.7513 401.604 70.2565 401.741 69.8789H402.434ZM415.304 69.8789L415.011 74H404.181V73.3066C404.337 73.2936 404.562 73.2708 404.855 73.2383C405.155 73.2057 405.363 73.1634 405.48 73.1113C405.675 73.0267 405.815 72.903 405.9 72.7402C405.991 72.5775 406.037 72.3691 406.037 72.1152V62.1934C406.037 61.972 405.998 61.7767 405.92 61.6074C405.848 61.4382 405.701 61.3014 405.48 61.1973C405.33 61.1191 405.119 61.0443 404.845 60.9727C404.578 60.8945 404.357 60.849 404.181 60.8359V60.1426H410.031V60.8359C409.849 60.8424 409.611 60.875 409.318 60.9336C409.032 60.9922 408.823 61.0443 408.693 61.0898C408.472 61.168 408.319 61.3014 408.234 61.4902C408.156 61.679 408.117 61.8809 408.117 62.0957V71.4023C408.117 71.832 408.136 72.1673 408.175 72.4082C408.221 72.6426 408.322 72.8249 408.478 72.9551C408.628 73.0723 408.849 73.1504 409.142 73.1895C409.442 73.222 409.858 73.2383 410.392 73.2383C410.633 73.2383 410.884 73.2318 411.144 73.2188C411.405 73.2057 411.652 73.1797 411.886 73.1406C412.114 73.1016 412.323 73.0495 412.511 72.9844C412.707 72.9128 412.85 72.8249 412.941 72.7207C413.208 72.4212 413.517 71.9688 413.869 71.3633C414.227 70.7513 414.474 70.2565 414.611 69.8789H415.304ZM428.243 61.7832C428.855 62.4212 429.333 63.1927 429.679 64.0977C430.024 64.9961 430.196 65.9922 430.196 67.0859C430.196 68.1862 430.02 69.1855 429.669 70.084C429.317 70.9824 428.829 71.7474 428.204 72.3789C427.598 73.0039 426.895 73.4857 426.095 73.8242C425.294 74.1628 424.441 74.332 423.536 74.332C422.572 74.332 421.68 74.153 420.86 73.7949C420.046 73.4303 419.346 72.9258 418.761 72.2812C418.175 71.6497 417.712 70.8848 417.374 69.9863C417.042 69.0814 416.876 68.1146 416.876 67.0859C416.876 65.9596 417.052 64.957 417.403 64.0781C417.755 63.1927 418.24 62.4277 418.858 61.7832C419.47 61.1452 420.18 60.6569 420.987 60.3184C421.801 59.9798 422.651 59.8105 423.536 59.8105C424.454 59.8105 425.32 59.9831 426.134 60.3281C426.947 60.6732 427.651 61.1582 428.243 61.7832ZM426.788 71.6074C427.152 71.015 427.416 70.3444 427.579 69.5957C427.748 68.847 427.833 68.0104 427.833 67.0859C427.833 66.1354 427.738 65.263 427.55 64.4688C427.367 63.6745 427.097 62.9974 426.739 62.4375C426.381 61.8841 425.932 61.4544 425.391 61.1484C424.851 60.8359 424.233 60.6797 423.536 60.6797C422.755 60.6797 422.091 60.8587 421.544 61.2168C420.997 61.5749 420.551 62.0534 420.206 62.6523C419.88 63.2253 419.636 63.8958 419.473 64.6641C419.317 65.4323 419.239 66.2396 419.239 67.0859C419.239 68.0234 419.324 68.8698 419.493 69.625C419.662 70.3802 419.929 71.0508 420.294 71.6367C420.645 72.2096 421.088 72.6589 421.622 72.9844C422.156 73.3034 422.794 73.4629 423.536 73.4629C424.233 73.4629 424.861 73.3001 425.421 72.9746C425.981 72.6491 426.436 72.1934 426.788 71.6074Z" fill="#910121"/>
</svg>
